<?xml version="1.0" encoding="UTF-8"?><svg id="a" xmlns="http://www.w3.org/2000/svg" viewBox="0 0 282.95 250.26"><defs><style>.b{fill:#fee1bc;}.c{fill:#fe4d4d;}.d{fill:#009590;}.e{fill:#4b8dea;}.f{fill:#f4f8fe;}.g{fill:#fe7c70;}.h{fill:#cee2fe;}.i{fill:#508fea;}.j{fill:#20211b;}.k{fill:#feeeda;}.l{fill:#aacdfe;}.m{fill:#fe4202;}.n{fill:#6faafe;}.o{fill:#fe695c;}.p{fill:#feb864;}.q{fill:#fefefe;}</style></defs><path class="k" d="M202.29,56.61c2.74,1.39,4.81,3.45,6.19,6.2-2.97,1.74-6.36,1.37-9.57,1.87-4.3,.66-4.52,.82-3.94,5.17,1.6,11.92,3.06,23.87,4.64,35.79,.12,.93,.11,1.89,.63,2.72,4.41,1.29,9.01,1.35,13.5,2.1,5.15,.87,10.34,1.51,15.53,2.19,1.01,.13,2.06,.17,2.88,.92,.09,3.23,.9,6.41,.62,9.67,.07,1.79-1.37,2.63-2.45,3.52-5.5,4.57-10.21,9.94-15.36,14.86-.81,.77-1.51,1.68-2.54,2.2-.4,.15-.81,.18-1.23,.1-2.95-1.65-4.66-4.55-6.84-6.96-6.24-6.88-12.33-13.89-18.56-20.78-1.37-1.51-3.29-2.13-5.09-2.93-3.7-1.65-7.62-2.67-11.49-3.81-3.28-2.44-7.35-1.99-11.01-3.05-.91-.18-1.76-.48-2.49-1.08-1.64-2.56-1.31-5.6-2.05-8.39-.05-.45-.06-.89-.01-1.34,.7-2.81,1.76-5.15,4.89-6.26,3.95-1.39,7.99-9.95,4.43-14.12-.52-1.9,.16-3.73,.39-5.57,.28-2.16,.07-4.17-1.17-5.92-1.14-1.6-.93-2.9,.3-4.28,.94-1.06,1.69-2.26,2.06-3.65,.4-1.51,.47-3.03-.62-4.28-1.01-1.16-1.2-2.43-1.19-3.9,.01-2.57-1.3-3.55-3.83-2.99-2.37,.53-4.16,2.09-6.04,3.5-3,2.24-5.72,4.89-9.43,6.04-2.12,.66-4.2,.93-6.35,.2-.98-.33-2-.53-3.01-.75-8.12-1.75-13.07,1.89-14.58,10.12-.72,3.91,.38,7.66,.02,11.48-2.38,1.62-2.62,3.86-1.88,6.4,1.09,3.71,2.76,6.82,6.8,8.21,2.58,.89,3.03,3.52,3.71,5.83-.25,2.65-.73,5.26-1.21,7.87-.11,.6-.24,1.19-.62,1.69-.82,.74-1.86,.95-2.87,1.22-2.19,.55-4.42,.85-6.64,1.18-1.62,.24-3.07,.83-4.37,1.8-3.42,1.28-7,2.06-10.43,3.34-3.56,1.33-6.4,3.48-8.8,6.3-6.49,7.63-13.38,14.91-19.87,22.55-.79,.92-1.6,1.85-2.8,2.28-.27,.06-.54,.08-.82,.06-1.18-.24-1.91-1.12-2.7-1.9-5.55-5.53-11.09-11.06-16.61-16.62-.75-.75-1.85-1.37-1.62-2.74,.39-3.41,.3-6.87,1.18-10.22,2.03-.1,2.84,1.65,3.95,2.78,1.44,1.47,2.73,1.82,4.71,.94,13.53-6.02,27.04-12.08,40.54-18.16,1.7-.76,3.95-.78,4.86-2.91-.1-2.01-1.05-3.8-1.4-5.73-.41-2.23-1.44-2.84-3.75-2.17-12.97,3.76-26.01,7.29-38.98,11.04-2.26,.66-3.7,2.53-5.56,3.77-.8,.54-1.44,1.63-2.67,.87,.6-4.56,2.51-8.71,3.95-13.02,6.18-4.93,12.49-9.69,18.58-14.72,.25-.25,.53-.47,.79-.7,.51-.44,.39-.96,.15-1.49-1-2.44-1.74-4.97-2.57-7.47-.28-.86-.8-1.76-.07-2.66,4.61-3.91,8.4-8.74,13.51-12.1,1.32-.87,2.64-1.73,3.96-2.6,5.27,1.54,10.3,3.72,15.47,5.54,1.04,.37,2.03,.93,3.18,.9,3.86-3.44,6.65-7.79,9.99-11.68,2.07-2.41,4.06-4.89,6.03-7.38,.68-.86,1.39-1.79,2.59-2.02,6.25-.78,12.53-.65,18.8-.55,8.27,.14,16.28,1.9,24.12,4.48,1.45-.25,1.91,.96,2.56,1.8,3.29,4.32,6.36,8.79,9.7,13.07,.78,1,1.38,2.3,2.92,2.4,4.54,.82,9.18,.25,13.72,1.03,1.11,.19,2.23,.23,3.21,.88Z"/><path class="n" d="M212.36,143.5c5.57-5.76,10.99-11.66,17.14-16.83,1.2-1.01,2.19-2.28,3.27-3.43,.15-.03,.29-.04,.44-.05,3.26,1.6,5.18,4.77,8.05,6.87,1.87,1.36,3.44,3.17,5.02,4.89,1.64,.87,1.66,1.92,.87,3.57-.99,2.06-2.61,3.79-3.18,6.05-1.16,1.06-2.31,.3-3.39-.11-2.44-.93-4.91-1.79-7.42-2.52-.72-.01-1.52-1.23-2.13,.18-2.09,6.24-4.42,12.39-6.55,18.61-.05,.25-.12,.5-.19,.75-.17,2.7,1.87,4.53,2.72,6.82-2.85,3.5-6.03,6.67-9.53,9.53-5.92-3.55-10.28-8.75-14.51-14.03-7.19-8.97-13.2-18.74-19.13-29.47,.12,7.31-2.26,13.6-2.46,20.2-.97,4.46-2.28,8.84-3.39,13.26-1.75,6.37-3.38,12.77-5.13,19.14-.56,1.47-1.65,2.48-2.94,3.3-7.94,5.05-16.37,8.75-25.88,9.54-1.2,.1-2.47,.48-3.21-.96-.54-2.88-.26-5.79-.24-8.67,.05-8.69-.24-17.39,.15-26.07,.37-1.33,1.54-1.52,2.63-1.78,9.71-2.31,18.14-6.97,25.41-13.77,1.11-1.03,1.94-2.29,2.97-3.37,1.09-1.14,1.04-2.26,.32-3.57-1.08-1.97-2.36-3.83-3.37-5.84-1.05-2.09-.57-2.7,1.75-2.54,1.29,.09,2.51,.75,4.09,.48-.54-6.96-1.72-13.73-4.11-20.29-.49-1.34-1.62-2.6-.86-4.22,5.79,.76,11.12,2.94,16.09,5.81,2,1.15,3.34,3.45,4.95,5.26,4.13,4.67,8.23,9.36,12.37,14.02,2.77,3.12,5.59,6.21,8.38,9.31,.24,1.17-.48,1.97-1.16,2.73-1.48,1.63-2.26,3.61-2.77,5.03,.26-1.01,1.05-2.47,1.95-3.87,.25-.39,.69-.71,1.19-.57,.58,.16,.51,.71,.47,1.18-.45,4.89,.7,9.53,2.18,14.12-1.58-5.1-2.83-10.23-2.03-15.65,.17-1.16,.37-2.21,1.22-3.05Z"/><path class="n" d="M48.8,122.67c6.81,7.13,13.77,14.11,20.91,20.91,1.85,3.14,1.23,6.59,.96,9.88-.25,3.01-.9,6.06-1.84,7.95,1.22-3.15,2.12-7.36,2.02-11.76-.02-.8-.25-1.9,.81-2.14,.99-.22,1.41,.79,1.75,1.54,.48,1.09,.93,2.19,1.31,3.33-.74-2.3-1.63-4.52-3.32-6.34-.62-.67-1.31-1.38-1.15-2.45,4.49-4.11,8.16-8.98,12.29-13.42,4.64-4.99,8.71-10.52,13.75-15.12,2.99-2.73,7.08-3.66,10.91-4.74,1.57-.44,3.06-1.47,4.83-1.14,.75,1.15,.06,2.18-.33,3.19-2.47,6.25-3.56,12.8-4.44,19.42-.24,1.81,.46,2.11,2.06,1.79,1.3-.26,3.01-1.25,3.87,.19,.77,1.28-.59,2.6-1.25,3.82-3.69,6.79-4.28,5.29,1.33,10.94,6.72,6.77,14.87,10.98,23.98,13.52,1.27,.36,2.93,.19,3.46,1.94,.09,11.57,.13,23.13-.02,34.69-.33,1.21-1.29,1.17-2.25,1.11-10.17-.73-19.2-4.54-27.59-10.13-.87-.58-1.51-1.39-1.86-2.4-1.97-6.95-3.81-13.93-5.63-20.92-1.07-3.96-2.18-7.91-3.09-11.91,.12-5.21-1.56-10.16-2.27-15.26-.35-2.5-.98-4.96-1.53-7.89-3.1,7.38-6.63,14.14-10.06,20.95-3.61,7.18-7.96,13.82-14.04,19.18-2.59,2.28-5.02,4.8-8.39,6-2.47-1.04-3.87-3.25-5.61-5.09-.77-1.24-.88-2.62-.88-4.03,0-4.19-.02-8.37,.09-12.55,.12-1.58-.82-2.26-2.15-2.85-5.04-2.22-10.07-4.47-15.1-6.71-1.33-.59-2.9-.95-3.32-2.7-.4-1.45-1.12-2.73-2.01-3.95-1.24-1.68-1.82-3.41,.24-4.97,4.97-3.15,8.49-7.87,12.72-11.83,.12-.04,.25-.09,.37-.13,.14,.02,.28,.05,.42,.07Z"/><path class="n" d="M210.14,185.29c2.21,3.52,.99,6.71-.71,10.04-2.36,4.63-4.93,9.13-7.71,13.52,.02,.39-.34,.41-.55,.58-5.57,6.98-11.6,13.43-19.76,17.48-1.41,2.02-3.85,2-5.8,2.94-1.58,.76-3.28,1.24-4.94,1.82-7.88,2.5-15.95,4.26-23.99,6.1-1.77,.4-3.55-.04-5.29,.44-6.57,1.05-13.14,2.13-19.71,3.14-2.83,.43-5.64,1.2-8.56,.81-1.45-1.65-1.27-3.83-1.79-5.77-.69-2.6-1.27-5.24-1.77-7.89-.03-.87-.43-1.74-.02-2.62,3.16-1.85,6.63-3.05,9.98-4.48,11.86-5.08,23.03-11.43,34.07-18.05,9.74-5.84,19.91-10.52,31.49-11.34,2.8-.2,5.39-1.4,8.23-2.44-2.43,.77-4.53,1.75-6.83,2.15-.68,.12-1.43,.31-1.67-.48-.18-.59,.5-.96,.98-1.21,.99-.52,1.96-1.12,3.05-1.43-1.58,.2-2.72,1.9-4.52,1.35-.39-2.23,1.34-3.36,2.62-4.53,2.21-2.01,4.58-3.86,7.25-5.29,3.75-1.27,7.64-.95,11.41-.52,3,.34,4.07,2.95,4.52,5.7Z"/><path class="n" d="M79.85,208.85c-2.34-4.52-5.42-8.6-7.56-13.26-1.57-3.42-2.77-6.68-.85-10.3,.71-2.29,1.5-4.53,4.08-5.42,7.18,.95,14.18,2.53,20.51,6.21,2.7,1.57,5.59,3.08,6.53,6.48-1.67,.98-3.14,.06-4.36-.8-1.99-1.41-3.96-2.77-6.02-3.26,.66,.52,1.92,.61,2.94,1.21,.57,.34,1.26,.74,1.04,1.48-.26,.88-1.03,.47-1.66,.37-2.23-.36-4.31-1.19-6.81-2.2,5.11,2.31,10.14,3.09,15.18,3.68,4.54,.53,8.69,2.19,12.86,3.87,4.62,1.87,8.92,4.35,13.21,6.87,.79,.46,1.67,.91,1.87,1.97-2.92,4.24-7.48,6.39-11.7,8.88-6.28,3.69-13.38,4.62-20.49,5.15-2.69,.2-5.36,.87-8.08,.49-3.89-3.14-6.77-7.22-10.13-10.86-.21-.17-.57-.19-.55-.58Z"/><path class="f" d="M199.43,109.06c-1.04-3.68-1.11-7.49-1.64-11.24-.94-6.64-1.77-13.3-2.62-19.95-.47-3.7-.89-7.4-1.35-11.1-.18-1.47,.33-2.25,1.91-2.42,4.26-.46,8.5-1.01,12.76-1.53,5.34-.75,10.68-1.48,16.01-2.26,2.08-.31,2.91,.76,3.13,2.59,1.16,9.6,2.27,19.21,3.46,28.81,.44,3.5,1.09,6.98,1.57,10.48,.17,1.25,.57,2.8-1.62,2.72-4.68,1.4-9.56,1.57-14.35,2.15-5.73,.69-11.42,1.95-17.24,1.78Z"/><path class="f" d="M37.06,143.47c4.45,2.95,9.57,4.46,14.32,6.77,1.92,.93,3.91,1.72,5.88,2.53,.91,.38,1.3,.99,1.14,1.95-1.06,4.25-2.67,8.26-5.16,11.9-3.45,6.23-5.85,12.94-8.89,19.35-1.08,2.28-2.1,4.59-3,6.95-.64,1.68-1.65,1.76-3.06,1.13-9.05-4.06-18.1-8.11-27.15-12.16-1.06-.47-1.97-.8-1.23-2.43,5.52-12.19,10.99-24.39,16.34-36.65,1.07-2.44,2.11-2.9,4.59-1.76,1.99,.92,3.81,2.5,6.21,2.4Z"/><path class="f" d="M127.25,33.49c-6.02,7.33-12.04,14.66-18.05,21.99-3.54-2.23-6.6-5.08-9.83-7.7-1.37-1.11-2.8-2.12-4.28-3.06-3.57-2.99-7.05-6.1-10.75-8.92-1.59-1.22-1.47-2.01-.36-3.36,8.22-10.04,16.4-20.12,24.59-30.18,2.4-2.94,2.94-2.91,5.97-.41,6.77,5.59,13.59,11.11,20.43,16.6,2.56,2.06,2.62,2.32,.55,4.81-2.8,3.38-5.52,6.82-8.27,10.23Z"/><path class="g" d="M28.56,133.25c-4.57-1.08-9.13-2.22-13.51-3.92-1.25-.49-2.71-.79-3.45-2.17-.82-1.54-.91-2.82,1.31-2.8,1.24,0,2.25-.52,3.98-.84-2.14-.75-3.26-1.98-4.47-3.13-.88-.83-1.07-1.82-.71-2.81,.38-1.05,1.45-.51,2.22-.58,.93-.08,1.87-.02,2.92-.02-.24-1.53-1.38-2.44-2-3.62-.47-.91-.72-1.9-.27-2.67,.54-.93,1.77-.6,2.59-.39,2.55,.66,4.74,2.12,6.56,3.96,1.36,1.37,1.85,.82,2.51-.52,.61-1.24,1.23-2.54,2.13-3.56,.93-1.06,2.04-2.38,3.78-1.13,.27,.2,.49,.48,.95,.21,3.43-2.01,5.93,.23,8.13,2.22,3.34,3.02,5.56,6.91,7.15,11.13l-.18,.1c-.36,.7-.99,1.16-1.65,1.47-6.08,2.86-11.8,6.44-17.99,9.08Z"/><path class="g" d="M233.4,122.66c2.12-4.51,4-9.19,8.34-12.17,2.07-1.42,4.12-3.07,6.78-1.22,4.75-1.9,5.57,2.25,7.3,4.85,.66,1,.93,1.02,1.82,.29,1.79-1.45,3.62-2.85,5.8-3.76,1.2-.5,2.64-.92,3.37-.07,.8,.93,.58,2.42-.43,3.56-.66,.74-1.13,1.64-1.93,2.83,1.12,0,2.02-.1,2.88,.03,.89,.14,2.24-.69,2.58,.83,.3,1.36-.18,2.67-1.31,3.47-1.42,1.01-2.99,1.8-5.22,3.11,2.21-.59,3.64-.44,5.1-.14,.85,.17,1.71,.13,1.99,1.16,.31,1.18-.26,2.07-1.21,2.59-1.94,1.07-3.94,2.03-6.13,2.56-3.39,.83-6.74,1.77-10.12,2.66-5.42-2.74-10.86-5.43-16.29-8.15-1.24-.62-2.58-1.14-3.34-2.44Z"/><path class="j" d="M110.29,228.18c.83,4.68,2.39,9.2,2.84,13.96-6.06,2.61-12.12,5.22-18.19,7.82-1.68,.72-3.38,.01-4.86-.49-4.38-1.49-7.77-4.36-10.24-8.32-.53-.85-.3-1.62,.21-2.15,3.9-4.04,7.7-8.2,13.3-10.02,3.15-1.02,6.4-.79,9.62-.95,2.46-1.13,4.9-1.27,7.31,.15Z"/><path class="j" d="M170.76,230.98c3.55-1.36,7.11-2.72,10.66-4.08,8.79-.17,14.95,4.69,20.5,10.72,.84,.92,.79,1.85,.13,2.86-2.7,4.17-6.55,6.84-11.21,8.3-1.66,.52-3.43,.39-5.13-.4-5.25-2.44-10.54-4.81-15.83-7.17-.4-.18-.91-.09-1.37-.12-1.32-.6-.87-1.73-.74-2.69,.21-1.58,.62-3.12,1.15-4.62,.46-1.03,.99-2.02,1.84-2.8Z"/><path class="i" d="M64.02,177.4c3.14-2.92,6.73-5.28,9.81-8.31,4.68-4.61,8.23-9.96,11.2-15.72,3.87-7.49,7.86-14.93,10.92-22.81,.12-.31,.4-.56,.9-1.22,.78,3.82,1.52,7.24,2.17,10.67,.71,3.76,1.25,7.54,2.03,11.28,.23,1.11,.19,2.01-.32,2.96-.88,2.13-2.95,3.12-4.54,4.49-8.01,6.92-16.09,13.76-24.07,20.72-.64,.55-1.35,1.01-2.03,1.52-.46,.28-.93,.56-1.49,.23-1.49-1.31-3.49-2-4.57-3.81Z"/><path class="i" d="M180.87,154.26c-.87-1.99,.25-3.8,.54-5.68,.79-5.12,1.93-10.2,2.4-15.65,1.22,2.09,2.44,4.18,3.65,6.27,7.19,12.4,14.94,24.36,25.38,34.37,1.52,1.46,3.76,2.13,4.66,4.25-1.5,1.19-2.99,2.38-4.49,3.57-.6,.2-1.05-.11-1.5-.42-9.65-8.29-19.36-16.49-28.94-24.86-.64-.56-1.28-1.09-1.7-1.84Z"/><path class="b" d="M51.68,102.89c1.93-.59,3.13-2.24,4.67-3.37,.98-.72,1.85-1.54,3.11-1.74,1.49,1.51,1.38,3.61,2,5.44,1.12,3.31,1.08,3.43,4.55,2.46,9.55-2.67,19.11-5.31,28.63-8.08,2.52-.73,5.07-1.32,7.58-2.07,.97-.29,1.99-.63,2.99-.06-2.13,2.62-5.47,3.07-8.28,4.38-9.64,4.51-19.43,8.7-29.15,13.02-3.5,1.55-7.02,3.07-10.48,4.7-1.05,.5-1.69,.29-2.45-.47-1.58-1.59-3.24-3.1-4.86-4.65-.07-3.3,.78-6.43,1.69-9.56Z"/><path class="i" d="M110.29,228.18c-2.44-.05-4.87-.1-7.31-.15-4.56-1.92-8.74-4.46-12.45-7.75,1.84-1.02,3.94-1.09,5.89-1.12,12.59-.23,23.76-4,33.08-12.7,.34-.31,.74-.55,1.12-.82,3.41,.19,5.56,2.75,8.15,4.43,.9,.58,.4,1.55-.4,2.08-1.33,.88-2.67,1.72-4.11,2.43-8.06,3.96-16.29,7.55-24.48,11.23l.51,2.38Z"/><path class="h" d="M75.38,74.7l-.62,.56c-4.6,2.53-9.52,4.15-14.68,5.03-5.03,1.03-9.59,3.45-14.52,4.76-1.16,.31-2.23,.95-3.49,.89-.88-.95-.34-1.96-.06-2.91,1.3-4.31,3.01-8.48,4.44-12.75,.59-1.76,1.68-2.37,3.45-1.88,.36,.1,.74,.15,1.09,.28,2.78,1.08,4.72,.08,6.43-2.24,1.98-2.67,2.3-2.59,5.02-.89,3.74,2.33,7.39,4.81,11.13,7.14,.79,.49,1.65,.94,1.82,2Z"/><path class="k" d="M68.58,181.22l1.06-.52c10.5-5.79,21.84-9.67,32.76-14.51,.51-.23,1.06-.37,1.62-.11l5.72,20.81c-.79,.69-1.64,.37-2.37,.01-10.11-4.89-21.03-5.81-31.98-6.65-1.93,1.2-2.43,3.53-3.96,5.04-.84-1.43-2.43-2.34-2.85-4.07Z"/><path class="h" d="M257.61,174.48c-8.12-2.91-16.24-5.84-24.37-8.72-1.03-.37-2.05-.93-3.22-.8-1.53-1.44-4.06-1.16-5.31-3.09,1.2-1.93,3.31-2.66,5.08-3.82,2.58-1.69,5.27-3.23,7.84-4.95,1.77-1.19,3.13-.86,4.35,.75,.34,.45,.69,.89,1,1.35,1.19,1.75,2.6,2.24,4.77,1.65,4.46-1.23,4.63-1.02,6.04,3.22,1.24,3.73,2.52,7.45,3.72,11.2,.33,1.03,.95,2.11,.09,3.2Z"/><path class="d" d="M244.04,209.41c-4.82,2.04-9.16,4.95-13.77,7.39-4.53,2.39-9.01,4.88-13.45,7.43-1.29,.74-1.9,.53-2.54-.75-1.1-2.21-2.33-4.36-3.52-6.52-.63-1.14-.57-1.75,.8-2.53,2.76-1.56,5.79-2.69,8.2-4.84,.2-.54,.81-.25,1.13-.56,4.83-2.03,9.17-4.97,13.78-7.4,4.53-2.39,9.04-4.86,13.47-7.43,1.37-.79,1.92-.37,2.55,.78,1.18,2.17,2.4,4.32,3.66,6.45,.79,1.33,.21,1.85-.97,2.56-2.72,1.64-5.79,2.72-8.21,4.86-.2,.54-.81,.25-1.13,.56Z"/><path class="p" d="M184.18,55.44c-4.53-5.1-8.14-10.88-12.3-16.26-.52-.67-.95-1.35-1.71-1.76-2.46-4.36-5.75-8.13-8.61-12.21-1.17-1.67-2.4-3.3-3.73-4.85-.91-1.05-.51-1.48,.45-2.15,2.05-1.43,4.03-2.97,5.98-4.54,1.16-.93,1.99-.99,2.94,.32,8.47,11.59,16.99,23.15,25.49,34.72-2.25,2.98-5.44,4.78-8.5,6.74Z"/><path class="k" d="M211.93,180.7l1.07,.69c-.24,1.82-2.22,2.38-2.86,3.9-1.73-4.31-4.84-5.88-9.44-5.19-2.28,.35-4.66-.07-6.92,.71-6.81,1.86-13.75,3.33-20.27,6.17-.35,.15-.73,.07-1.08-.1,.39-4.54,2.18-8.74,3.18-13.14,.47-2.04,1.18-4.02,1.78-6.02,1.02-.72,1.99-.2,2.92,.17,8.94,3.53,17.95,6.87,26.93,10.3,1.67,.64,3.2,1.51,4.67,2.51Z"/><path class="h" d="M34.69,64.47c3.41-2.03,7.28-2.81,10.98-4.02,7.27-2.37,14.3-5.45,21.75-7.27,.2,2.22-1.79,3.16-2.84,4.57-2.4,3.22-5.16,6.17-7.67,9.32-1.15,1.44-2.39,2.45-4.52,1.98-5.38-1.18-10.78-2.24-16.15-3.48-.65-.15-1.23-.46-1.56-1.1Z"/><path class="h" d="M232.79,141.29c2.82,.31,5.35,1.5,7.96,2.49,1.02,.39,2.04,.98,3.23,.78,5.89,2.71,12.13,4.46,18.17,6.77,.94,.36,1.86,.76,2.79,1.14-.47,1.32-1.73,1.34-2.77,1.58-5,1.16-10.08,1.87-15.08,3-1.56,.35-2.72-.01-3.69-1.26-3.09-3.99-6.48-7.74-9.56-11.74-.61-.79-1.39-1.58-1.05-2.75Z"/><path class="b" d="M199.43,109.06c2.98-1.11,6.17-1.13,9.26-1.6,6.89-1.06,13.83-1.78,20.75-2.69,.63-.08,1.08,.15,1.59,.36-.09,2.87,.85,5.61,1.13,8.43-5.23,0-10.33-1.22-15.5-1.76-5.35-.56-10.67-1.43-16-2.19-.42-.06-.81-.37-1.22-.56Z"/><path class="h" d="M40.41,85.39c-2.28-6.58-4.57-13.15-6.85-19.73,.73-.77,1.51-.33,2.35-.2,2.95,.49,5.82,1.31,8.75,1.88,1.51,.29,2.45,.99,1.89,2.71-1.58,4.9-3.43,9.71-5.11,14.58-.16,.47-.47,.8-1.04,.75Z"/><path class="h" d="M266.07,153.68c-2.33,6.81-4.5,13.68-7.34,20.31-1.92-3.24-2.56-6.97-3.85-10.44-.68-1.83-1.35-3.68-1.92-5.55-.4-1.3,.08-2.18,1.2-2.38,3.83-.7,7.58-1.84,11.46-2.24,.16-.02,.32,.17,.46,.3Z"/><path class="h" d="M72.52,62.83l3.43,10.68c-1.88,.19-3.02-1.26-4.4-2.08-3.29-1.96-6.42-4.18-9.68-6.21-1.1-.69-1.92-1.62-1.04-2.72,2.38-2.98,4.45-6.25,7.46-8.7,.21-.17,.54-.11,.81-.02,1.44,2.91,1.78,6.23,3.42,9.06Z"/><path class="l" d="M69.1,53.77c-3.11,2.31-4.75,5.91-7.52,8.54-.86,.82-.75,1.61,.51,2.38,4.67,2.85,9.24,5.86,13.85,8.82,.87,.9,.16,1.05-.57,1.19-4.8-3.07-9.63-6.09-14.37-9.23-1.16-.77-1.81-.66-2.44,.46-.09,.16-.15,.35-.26,.5-2.81,3.81-3.3,4.1-7.79,2.8-2.24-.65-3.1-.08-3.73,2.09-1.41,4.92-3.76,9.55-4.72,14.63-.88,.78-1.51,.86-1.65-.55,1.84-5.08,3.67-10.17,5.54-15.24,.47-1.27,.09-1.95-1.18-2.21-3.74-.76-7.47-1.52-11.21-2.28-.92-1.62,.58-.96,1.13-1.2,5.79,1.32,11.59,2.64,17.39,3.95,1.51,.34,2.8,.24,3.92-1.17,3.75-4.74,7.61-9.38,11.42-14.06,.91-.82,1.51-.76,1.68,.58Z"/><path class="l" d="M266.07,153.68c-3.27,.72-6.5,1.64-9.8,2.11-3.44,.49-3.34,.77-2.09,4.11,1.72,4.63,3.48,9.25,4.56,14.09-.25,.45-.67,.52-1.13,.48-1.33-5.64-3.59-10.98-5.25-16.51-.23-.75-.61-1.36-1.62-1-.42,.15-1-.06-1.38,.14-3.84,2.02-6.18,.25-8.06-3.02-.69-1.2-1.62-1.54-3.01-.62-4.42,2.93-8.93,5.73-13.41,8.58-.63,.36-.92,0-1.12-.54-.01-.19,0-.37,.02-.56,3.32-3.41,7.72-5.23,11.58-7.86,2.61-1.77,2.66-1.64,.82-4.11-1.89-2.55-4.29-4.73-5.63-7.68,.76-1.98,1.5-.11,2.25,.01,3.74,4.77,7.48,9.54,11.24,14.3,.58,.74,1.18,1.24,2.37,.97,6.16-1.43,12.47-2.2,18.54-4.08,.61,.18,1.57,.04,1.13,1.2Z"/><path class="i" d="M170.76,230.98c.19,1.22-.69,1.94-1.29,2.8-5.17,2.78-10.57,4.99-16.33,6.24-4-.06-7.81-1.32-11.74-1.83,6.29-1.47,12.6-2.89,18.88-4.42,3.51-.85,6.99-1.86,10.48-2.8Z"/><path class="b" d="M184.18,55.44c2.41-2.78,5.59-4.59,8.5-6.74,3.43,2.35,7.04,4.5,9.61,7.9-6.04-.39-12.07-.78-18.11-1.16Z"/><path class="b" d="M60.07,80.3c4.75-2.1,9.74-3.5,14.68-5.03-3.6,3.82-8.11,6.53-12.06,9.92-1.48,1.27-3.11,2.38-4.59,3.65-.75,.64-1.44,1.19-2.48,1.04,1.48-3.19,2.96-6.39,4.44-9.58Z"/><path class="b" d="M95.09,44.72c2.38-.45,3.39,1.61,4.8,2.78,3.15,2.6,6.71,4.74,9.31,7.99-5.14-1.13-9.87-3.46-14.8-5.2-1.51-.53-3.43-.46-4.41-2.15,1.7-1.14,3.4-2.27,5.1-3.41Z"/><path class="n" d="M153.14,240.02c5.34-2.34,10.72-4.59,16.33-6.24-.15,2.46-1.75,4.73-.96,7.31-.13,1.44-1.25,1.2-2.1,1.11-4.46-.48-8.92-.98-13.26-2.19Z"/><path class="c" d="M28.56,133.25c1.9-2.03,4.57-2.81,6.88-4.14,4.13-2.36,8.49-4.3,12.76-6.42,.11,.49-.03,.89-.41,1.24-3.68,3.38-6.77,7.36-10.83,10.34-.61,.45-1.07,.47-1.67,.28-2.24-.44-4.49-.87-6.73-1.31Z"/><path class="c" d="M233.4,122.66c5.81,2.91,11.64,5.8,17.43,8.75,.84,.43,2.08,.51,2.2,1.84-2.25,.56-4.5,1.13-6.74,1.69-.35-.05-.85,.03-1.03-.17-3.78-4.1-8.5-7.23-12.04-11.58,.06-.17,.12-.35,.18-.52Z"/><path class="i" d="M53.25,166.63c1.24-4.18,3.31-7.99,5.16-11.9,0,5.86,0,11.72,0,17.58-2.21-1.44-3.34-3.88-5.16-5.68Z"/><path d="M55.6,23.8c1.51,1.43,1.09,2.41,1.11,3.27,.06,3.58,.03,3.57,3.74,3.6,.82,0,1.63,.07,2.96,.13-1.7,1.55-3.31,.97-4.7,.94-1.58-.03-2.12,.41-2.02,2.02,.09,1.39,.3,2.87-.24,4.31-.39-.18-.63-.22-.67-.33-.66-1.92,.87-4.59-.79-5.74-1.29-.89-3.67-.18-5.58-.53,1.33-1.27,2.91-.76,4.35-.75,1.46,0,2-.38,1.87-1.87-.13-1.44-.03-2.9-.03-5.04Z"/><path d="M79.85,208.85c.18,.19,.37,.39,.55,.58-16.8,0-33.6,0-50.39,0v-.58h49.84Z"/><path d="M220.15,24.57c-.9-1.91,.53-4.27-.77-5.48-1.19-1.1-3.51,.14-5.74-.78,1.57-.94,2.88-.69,4.04-.58,1.78,.17,2.33-.46,2.12-2.18-.14-1.15-.03-2.32-.03-4.23,1.57,1.72,1.14,3.05,1.08,4.2-.08,1.64,.26,2.41,2.11,2.21,1.15-.12,2.4-.35,3.73,.34-1.17,1.35-2.64,.71-3.85,.68-1.62-.04-2.02,.49-2.01,2.05,0,1.19,.73,2.68-.69,3.77Z"/><path class="i" d="M223.76,161.5c.37,.18,.75,.36,1.12,.54,1.55,.58,3.07,1.29,4.67,1.71,1,.26,.43,.78,.47,1.22-1,1.11-2,2.22-3,3.33-2.04-1.81-3.45-3.92-3.26-6.79Z"/><path d="M0,145.29c3.14,.02,3.3-2.07,3.7-4.3,.13,2.75,1.09,4.37,4.29,4.11-2.84,.2-4.48,1.17-4.07,4.26-1.02-1.7-.36-4.68-3.92-4.08Z"/><path d="M252.32,89.86c2.84,0,4.14-1.19,3.93-4.13,1.01,1.65,.32,4.68,3.86,3.89-2.04,.64-3.68,1.34-3.62,3.93,.01-3.02-1.89-3.37-4.17-3.69Z"/><path d="M282.95,187.62c-.37,.24-.44,.33-.52,.34-1.82,.36-4.31-.76-5.32,.5-.93,1.17-.36,3.54-.46,5.42-.83-.37-.43-1.05-.44-1.54-.09-4.27-.08-4.27-4.44-4.29-.64,0-1.28,0-2.01,0,.42-.9,1.08-.54,1.57-.55q4.81-.09,4.85-5c0-.45,0-.91,0-1.97,.38,.67,.53,.81,.54,.98,.21,1.93-.84,4.46,.45,5.63,1.05,.96,3.52,.36,5.77,.47Z"/><path d="M220.89,209.03c-.2,.54-.73,.42-1.13,.56-6.2-.06-12.39-.11-18.59-.17,.18-.19,.37-.38,.55-.58,6.39,.06,12.78,.12,19.16,.18Z"/><path d="M244.04,209.41c.2-.54,.73-.42,1.13-.56,1.95,0,3.89,0,5.84,0v.56h-6.97Z"/><path class="j" d="M119.36,75.16c-2.18-7.15-.78-18.13,5.69-21.8,3.01-1.71,6.22-1.75,8.98-.56,7.74,3.33,12.99-.82,18.37-5.22,2.31-1.89,4.57-3.99,7.88-3.95,2.49,.03,3.79,1.57,3.26,4.03-.29,1.33-.25,2.22,1.03,3.26,1.86,1.52,1.53,5.55-.87,8.24-1.59,1.78-2.08,2.74-.43,4.88,2.05,2.66,.85,5.95,.3,8.95-.14,.74-.09,1.46-.22,2.17-5.1,2.65-5.96,2.96-6.71-2.7-.32-2.41-1.34-4.7-2.62-6.81-1.33-2.18-1.78-2.27-3.56-.46-5.43,5.53-11.83,9.52-19.07,12.21-1.24,.46-2.51,.78-3.76,1.18-2.31,.74-4.39,1.03-5.82-1.59-.49-.9-1.86-.9-2.44-1.83Z"/><path class="e" d="M169.54,109.17c3.11,6.88,4.49,14.21,5.61,21.6,.59,3.89,.29,4.15-3.61,3.31-.9-.19-1.83-.25-3.17-.42,1.72,3.05,3.22,5.89,4.9,8.62,.6,.96,.69,1.48-.07,2.4-3.4,4.16-7.38,7.69-11.85,10.63-6.08,4-12.66,6.84-19.92,7.94-.26-.18-.43-.42-.5-.72-.07-.46,0-.9,.19-1.32,7.88-11.36,12.75-23.93,14.99-37.54,.36-2.21,.82-4.41,.79-6.68,.28-2.8,.64-5.58,.55-8.4-.03-1.03,.06-2.07,.88-2.87,3.01,.55,6.01,1.23,9.04,1.6,1.31,.16,1.42,1.27,2.17,1.84Z"/><path class="e" d="M140.13,163.25c-8.34-1.24-15.57-5-22.37-9.77-3.09-2.18-5.44-5.14-8.23-7.63-1.66-1.48-1.71-2.86-.56-4.66,1.49-2.34,2.8-4.8,4.28-7.36-1.85-.14-3.3,.21-4.7,.67-1.77,.58-2.43,.06-2.18-1.75,.95-6.83,1.91-13.66,4.45-20.15,.44-1.13,.81-2.29,1.21-3.43,1.86-3.21,5.35-1.92,8.05-2.82,.95-.31,2.08-.54,3.16-.63,1.68,2.87,.6,6.17,1.38,9.19,.27,1.05,.12,2.21,.32,3.3,1.68,14.78,5.94,28.66,14.45,41.04,.42,.62,.85,1.24,1.13,1.95,.17,.43,.21,.88,.14,1.33-.08,.3-.26,.54-.52,.71Z"/><path class="g" d="M119.36,75.16c1.48,.02,3.02,.51,3.55,1.79,.72,1.73,1.36,1.64,3.04,1.25,9.74-2.22,17.86-7.11,24.7-14.27,1.28-1.34,1.96-2.01,3.29,.24,1.95,3.31,3.42,6.66,3.79,10.47,.17,1.72,.81,2.71,2.45,1.18,.99-.93,2.14-.41,3.18-.67,2.58,1.32,2.01,3.86,1.58,5.72-.98,4.29-2.57,8.28-7.61,9.71-2.1,.59-2.28,3.17-3.07,5-2.57,5.51-7.3,8.05-12.97,8.39-5.64,.33-9.94-2.73-13.25-7.16-.27-.36-.44-.83-.22-1.31-1.33-2.65-2.6-5.03-5.86-6.2-3.52-1.27-6.31-8.38-5.31-11.91,.38-1.32,1.09-2.38,2.73-2.23Z"/><path class="f" d="M124.39,118.68c-1-4.26-1.12-8.61-1.15-12.96,.98-.21,1.96-.42,2.95-.63,1.66,.32,2.32,1.79,3.19,2.93,3.18,4.18,6.4,8.32,9.64,12.44,1.85,2.34,1.91,2.41,3.8-.06,3.3-4.32,6.65-8.59,9.93-12.94,.81-1.08,1.5-2.46,3.21-2.38,.8,.21,1.59,.42,2.39,.63-.2,3.94,.26,7.92-.71,11.82-.97,3.39-1.4,6.91-2.64,10.23-1.06,2.85-1.86,3.29-4.57,2.15-2.92-1.24-5.89-2.35-8.7-3.82-.63-.58-1.26-.57-1.89,.02-2.8,1.56-5.78,2.73-8.75,3.87-2.77,1.06-3.6,.54-4.47-2.37-.88-2.94-1.44-5.96-2.21-8.93Z"/><path class="g" d="M155.95,105.09c-4.51,4.32-7.65,9.75-11.69,14.47-1.13,1.33-2.01,3.54-3.34,3.83-1.21,.27-2.09-2.19-3.09-3.46-3.9-4.93-7.77-9.89-11.64-14.84,0-.56,.01-1.11,.02-1.67,1.14-.24,1.96,.51,2.83,.99,6.07,3.33,11.82,2.54,17.45-1.12,2.89-1.87,5.12-4.48,7.75-6.64l1.71,8.44Z"/><path class="m" d="M105.21,95.47c-13.92,3.89-27.85,7.74-41.75,11.71-1.36,.39-1.82-.25-2-1.11-.57-2.79-1.85-5.4-2-8.28,8.34-2.88,16.93-4.85,25.38-7.34,5.16-1.51,10.33-2.98,15.49-4.49,1.35-.39,2.19-.18,2.58,1.39,.67,2.73,1.53,5.42,2.31,8.12Z"/><path class="c" d="M154.24,96.65c-3.31,4.09-6.93,7.73-12.04,9.64-5.96,2.23-11.1,.53-15.99-2.87,.67-2.61,.52-5.39,1.59-7.92,2.74,3.36,5.59,6.45,10.16,7.41,6,1.26,10.51-1.17,14.42-5.31,.62-.66,.96-1.6,1.86-2.02,0,.36,0,.71,0,1.07Z"/><path d="M70.26,143.58c3.09,3.04,4.71,6.8,5.3,11.08-1.98-1.89-1.79-5.03-4.04-7.33-.15,6.39-.57,12.38-4.04,18.13-.98-1.86,.25-2.76,.61-3.69,2.35-5.93,2.62-11.99,1.63-18.19,.18-.1,.36-.09,.54,0Z"/><path d="M212.36,143.5c-2.28,7.38-.1,14.32,1.96,21.31-3.34-5.4-4.23-11.31-3.77-17.91-1.25,1.15-1.68,2.58-2.25,3.87-.56,1.28-.88,2.66-1.37,4.18-1.17-2.78-.08-5.48,4.39-11.36,.35-.03,.69-.05,1.04-.08Z"/><path class="i" d="M172.44,186.88c6.81-3.1,13.77-5.66,21.35-6.07-3.25,2.92-7.4,4.89-9.54,9-.66,2.64-3,3-5.03,3.23-6.84,.78-12.89,3.67-18.9,6.71-5.93,3-11.56,6.54-17.3,9.88-1.61,.93-2.94,1.05-4.66-.02-4.21-2.6-8.44-5.19-12.74-7.64-6.88-3.92-14.01-7.08-21.75-8.81-.55-.12-1.13-.1-1.46-.68-4.95-6.37-12.14-8.62-19.48-10.61-2.49-.67-5.14-.55-7.54-1.62,11.55-.74,22.56,1.39,33.05,6.27,.4,.19,.87,.25,1.3,.37,.94,3.14,4.03,3.79,6.35,5.07,6.58,3.62,13.48,6.49,21.16,6.86,1.01,.05,2.01,.34,3.02,.52,.34-.32,.68-.32,1.02,0,10.67-.62,20.22-4.4,29.03-10.27,.82-.55,1.41-1.44,2.11-2.17Z"/><path class="b" d="M211.93,180.7c-10.36-3.94-20.72-7.88-31.09-11.81-1.13-.43-2.29-.78-3.44-1.16,1.15-4.49,2.31-8.98,3.46-13.47,2.56,.89,4.11,3.14,6.08,4.77,7.95,6.53,15.69,13.31,23.49,20.02,.56,.48,1,1.1,1.49,1.66Z"/><path class="h" d="M230.55,141.28c3.05,2.76,5.09,6.36,7.87,9.35,1.03,1.1-.26,1.47-.85,1.83-4.58,2.86-9.19,5.66-13.79,8.47,2.26-6.55,4.51-13.1,6.77-19.66Z"/><path d="M141.3,199.33c-.34,0-.68,0-1.02,0-.05-12.03-.1-24.05-.15-36.08l.14-.55c.35-.35,.69-.35,1.04,0l.14,.55-.15,36.08Z"/><path class="b" d="M104.03,166.08c-8.71,3.75-17.42,7.52-26.14,11.26-2.73,1.17-5.49,2.25-8.24,3.36,10.32-8.85,20.45-17.93,31.07-26.44,1.57,3.81,2.16,7.89,3.31,11.82Z"/><path d="M137.4,186.28c.09,1.78-.57,2.91-2.53,2.91-1.85,0-3.06-.92-3.06-2.76,0-1.68,1.15-2.85,2.82-2.82,1.5,.03,2.98,.6,2.77,2.67Z"/><path d="M137.41,171.51c.05,2.31-1.03,2.99-2.97,3.06-1.92,.06-2.57-1.23-2.59-2.56-.02-1.7,1.24-3.04,2.95-3.02,1.45,.02,3,.69,2.6,2.53Z"/><path d="M102.41,192.48c7.75,1.07,14.81,4.13,21.56,7.88,5.29,2.94,10.42,6.14,15.56,9.34,1.21,.75,1.99,.03,2.79-.41,6.17-3.44,12.21-7.11,18.46-10.4,5.75-3.02,11.65-5.8,18.29-6.31,2.15-.17,3.63-1.52,5.17-2.77,2.44-.47,4.36-2.71,7.59-2.09-2.55,1.25-4.71,2.32-7.6,3.74,3.81-.34,6.5-1.6,9.24-2.69,.4-.16,.97-.86,1.34-.28,.42,.65,.02,1.08-.76,1.39-3.66,1.44-7.39,2.81-11.28,3.19-8.27,.83-15.67,3.83-22.93,7.68-9.45,5.01-18.28,11.13-27.97,15.68-6.77,3.18-13.48,6.5-20.48,9.16-.49,.19-1.07,.15-1.61,.21-.06-.64,.2-.83,.85-1.12,9.58-4.22,19.3-8.16,28.77-13.69-3.16-1.92-5.97-3.64-8.78-5.35-6.74-4.2-13.73-7.91-21.29-10.44-5.23-1.75-10.81-1.74-16.08-3.23-2.09-.59-4.1-1.46-6.12-2.25-.59-.23-1.21-.57-.84-1.7,3.11,1.41,6.24,2.7,10.18,3.41-2.21-2.06-4.94-2.04-7.35-3.87,3.95-.16,6.59,1.53,9.07,3.38,1.32,.99,2.62,1.57,4.24,1.54Z"/><path class="i" d="M203.71,183.94c3.29,2.78,3.27,8.91,0,13.98,1.41-4.65,2.45-9.31,0-13.98Z"/><path class="i" d="M78.41,197.76c-3.17-3.21-3.4-9.94-.44-13.77-1.38,4.64-1.59,9.25,.44,13.77Z"/><path class="l" d="M201.98,98.37c8.31-2.23,16.9-2.51,25.39-3.56-8.32,2.12-16.87,2.76-25.39,3.56Z"/><path class="l" d="M225.77,82.02c-8.46,1.11-16.92,2.22-25.38,3.33l-.15-1.12,25.38-3.3,.15,1.08Z"/><path class="l" d="M201.35,90.93c8.28-1.08,16.57-2.15,24.85-3.23l.14,.9c-8.2,1.6-16.54,2.24-24.8,3.45l-.19-1.12Z"/><path class="l" d="M227.97,102.29c-8.24,1.08-16.49,2.15-24.73,3.23l-.13-.91c8.17-1.67,16.51-2.19,24.76-3.37l.11,1.05Z"/><path class="l" d="M199.22,74.74c8.18-1.91,16.47-2.83,24.82-3.37-8.14,2.08-16.51,2.58-24.82,3.37Z"/><path class="l" d="M199.68,77.53c7.85-1.23,15.72-2.22,23.63-2.95l.12,.92c-7.88,1.02-15.76,2.04-23.64,3.07l-.11-1.04Z"/><path class="l" d="M201.52,94.34c6.91-.9,13.81-1.8,20.72-2.71l.13,.93c-6.83,1.41-13.79,1.91-20.7,2.76l-.15-.98Z"/><path class="l" d="M217.79,66.01c-6.55,.82-13.1,1.63-19.65,2.45l-.11-.92c6.53-1.02,13.05-2.13,19.67-2.48l.09,.95Z"/><path class="l" d="M217.2,79.11c-5.69,1.71-11.58,1.95-17.44,2.4,5.7-1.59,11.54-2.24,17.44-2.4Z"/><path class="l" d="M202.49,101.21c5.92-.97,11.84-1.94,17.84-2.23l.12,.89c-5.92,.75-11.84,1.5-17.76,2.24l-.2-.9Z"/><path class="l" d="M198.66,71.41c3.99-1.64,8.22-1.57,12.39-1.92-3.95,1.78-8.21,1.67-12.39,1.92Z"/><path class="l" d="M208.71,86.92c-2.48,1.58-5.2,1.12-7.83,1.41,2.42-1.76,5.22-1.05,7.83-1.41Z"/><path class="l" d="M17.68,172.29c7.8,3.53,15.61,7.06,23.41,10.59l-.47,.99c-7.88-3.37-15.76-6.75-23.41-10.58l.47-1Z"/><path class="l" d="M46.58,171.3c-2.83-.07-4.93-1.81-7.25-2.75-5.18-2.1-10.2-4.61-15.29-6.92-.5-.23-1.29-.28-1.03-1,.35-1,1.22-.26,1.62-.08,7.25,3.21,14.46,6.48,21.66,9.78,.16,.07,.16,.49,.29,.98Z"/><path class="l" d="M43.58,177.82c-7.68-3.42-15.16-6.75-22.64-10.06-.46-.2-.95-.4-.77-.95,.29-.87,1.02-.29,1.37-.14,3.78,1.6,7.52,3.28,11.27,4.94,3.16,1.39,6.32,2.77,9.47,4.18,.63,.29,1.52,.43,1.3,2.02Z"/><path class="l" d="M27.34,150.66c7.74,3.46,15.49,6.93,23.23,10.39l-.44,.99c-7.84-3.26-15.62-6.64-23.24-10.37l.45-1.02Z"/><path class="l" d="M37.7,190.09c-7.73-3.47-15.47-6.93-23.2-10.4l.48-1.03c7.76,3.47,15.68,6.62,23.25,10.5l-.53,.93Z"/><path class="l" d="M26.06,153.87c7.42,3.31,14.98,6.33,22.21,10.03l-.44,.96c-7.44-3.33-14.88-6.65-22.32-9.98l.55-1.02Z"/><path class="l" d="M19.45,169.45c6.34,2.81,12.69,5.62,19.34,8.57-2.26,.69-18.07-6.1-19.34-8.57Z"/><path class="l" d="M30.14,144.48l18.63,8.29-.42,.95c-6.34-2.46-12.55-5.22-18.64-8.26l.43-.98Z"/><path class="l" d="M16.35,176.11c5.71,2.02,11.39,4.12,16.45,7.51-5.69-2.06-11.38-4.13-16.45-7.51Z"/><path class="l" d="M40.61,164.56c-5.76-1.52-11.09-4.16-16.3-7.06,5.78,1.48,11.02,4.28,16.3,7.06Z"/><path class="l" d="M40.1,153.23c-4.18-.93-8-2.67-11.5-5.13,4.08,1.17,8,2.67,11.5,5.13Z"/><path class="l" d="M21.64,163.77c3.01,.2,5.56,1.48,7.83,3.41-2.86-.53-5.51-1.56-7.83-3.41Z"/><path class="l" d="M108.62,49.37c-.25,.46-.32,.8-.5,.88-.59,.24-1.05-.08-1.51-.46-1.93-1.6-3.9-3.16-5.83-4.76-3.79-3.16-7.55-6.35-11.33-9.52-.53-.45-1.61-.78-.84-1.65,.64-.72,1.1,.27,1.55,.63,5.72,4.61,11.42,9.23,17.13,13.85,.43,.35,.88,.69,1.32,1.03Z"/><path class="l" d="M93.18,28.34c.41,.26,.82,.46,1.17,.74,5.78,4.69,11.55,9.39,17.33,14.08,.61,.5,1.32,1.11,.59,1.81-.65,.61-1.1-.32-1.56-.7-5.76-4.72-11.51-9.45-17.27-14.16-.43-.35-1.05-.54-.91-1.23,.04-.19,.38-.32,.67-.54Z"/><path class="l" d="M101.61,17.94c1.83,.44,2.84,1.94,4.14,2.94,5.08,3.92,9.98,8.07,14.94,12.14,.41,.34,1.11,.71,.53,1.3-.59,.59-1.18,.04-1.7-.39-5.25-4.31-10.5-8.62-15.75-12.92-.79-.65-1.63-1.24-2.41-1.89-.18-.15-.32-.5-.27-.7,.05-.21,.36-.35,.51-.47Z"/><path class="l" d="M96.7,22.8c3.18,1.57,5.28,3.84,7.68,5.67,4,3.04,7.79,6.37,11.68,9.56,.44,.36,1.1,.68,.76,1.28-.33,.57-.99,.38-1.47-.02-6.12-5.02-12.24-10.04-18.34-15.08-.16-.14-.12-.52-.3-1.41Z"/><path class="l" d="M127.9,25.9c-2.48,0-18.57-13.04-19.78-16.16,6.59,5.39,13.19,10.77,19.78,16.16Z"/><path class="l" d="M105.52,13.01c6.94,4.3,13.08,9.62,19.01,15.23-7.04-4.17-12.85-9.91-19.01-15.23Z"/><path class="l" d="M95.26,25.5c5.43,4.46,10.87,8.91,16.3,13.37l-.67,.8c-5.76-4.09-11.03-8.78-16.45-13.28l.82-.89Z"/><path class="l" d="M111.08,5c2.44-.5,3.26,1.02,4.23,1.77,3.91,3.02,7.61,6.3,11.4,9.47,.55,.46,1.59,.82,.77,1.66-.62,.63-1.1-.33-1.56-.71-4.8-3.93-9.59-7.88-14.84-12.19Z"/><path class="l" d="M104.04,43.12c-4.66-3.83-9.32-7.65-13.98-11.48l.66-.8c4.96,3.46,9.5,7.45,14.07,11.41l-.75,.87Z"/><path class="l" d="M103.81,14.95c4.6,3.78,9.19,7.56,13.79,11.34l-.7,.85c-4.81-3.53-9.34-7.39-13.85-11.28l.76-.91Z"/><path class="l" d="M109.86,7.54c3.61,2.27,7.24,4.55,9.78,8.1-3.75-2.1-7.07-4.73-9.78-8.1Z"/><path class="l" d="M99.27,20.89c2.8,.98,4.76,2.95,6.39,5.28-2.58-1.23-4.77-2.93-6.39-5.28Z"/><path class="q" d="M33.18,111.36c1.41,1.16,2.2,2.28,3.08,3.36,1.27,1.57,.72,2.91-.31,3.98-.93,.97-2.26,1.72-3.72,.57-1.45-1.14-1.88-2.41-.88-4.11,.69-1.17,1.19-2.45,1.83-3.8Z"/><path class="q" d="M247.9,111.02c1.75,1.8,2.22,3.52,2.74,5.16,.36,1.13,.48,2.33-.99,3.09-1.48,.77-2.58,.65-3.68-.62-.98-1.12-1.7-2.19-.69-3.64,.84-1.21,2.29-1.92,2.62-3.99Z"/><path d="M106.41,239.03c-.65-2.38-1.71-4.68-1.3-7.2,1.16,2.28,1.87,4.64,1.3,7.2Z"/><path d="M104.05,239.68c-1.66-1.96-1.63-4.38-1.76-6.77,1.81,1.9,1.46,4.42,1.76,6.77Z"/><path d="M173.96,238.53c-.53-2.56,.43-4.88,1.22-7.23,.89,2.62-.54,4.87-1.22,7.23Z"/><path d="M177.92,231.99c.83,2.48-.52,4.71-.96,7.05-1.01-2.46,.43-4.72,.96-7.05Z"/><path class="q" d="M218.38,220.31c-1.52-.96-2.08-2.61-2.87-4.1-.75-1.42,.82-1.29,1.29-1.55,6.6-3.76,13.28-7.37,19.89-11.12,1.58-.9,2.39-.79,2.89,1.04,.18,.68,.66,1.33,1.15,1.86,.76,.82,.42,1.38-.32,1.79-7.04,3.91-14.1,7.79-21.15,11.67-.24,.13-.49,.23-.87,.41Z"/><path d="M247.42,202.5c.3,2.28-1.2,2.96-3.17,3.03-2.05,.08-2.9-1.57-2.9-3.05,0-1.63,.94-3.14,3.11-3.16,2.14-.01,3.07,.97,2.96,3.17Z"/><path class="q" d="M182.01,38.76c-.54,1.93-2.22,2.61-3.58,3.45-1.09,.67-1.55-.62-2.06-1.32-4.43-6.03-8.83-12.09-13.3-18.1-.79-1.06-1.43-2.02,.25-2.51,1.37-.4,2.2-3.61,4.17-1.05,4.73,6.16,9.36,12.4,14.03,18.61,.21,.28,.34,.63,.49,.9Z"/><path d="M183.33,48.14c-2.09,.16-3.08-.76-3.07-2.91,0-2.31,1.6-3.17,3.36-3.2,1.86-.03,2.86,1.33,2.89,3.31,.03,2.25-1.18,2.93-3.18,2.8Z"/><path class="h" d="M141.39,125.41c3,1.23,6.08,2.31,8.98,3.75,2.19,1.09,3.2,.89,4-1.6,1.07-3.34,1.67-6.84,3.26-10.02-.75,8.93-2.84,17.57-6.13,25.87-2.57,6.48-5.58,12.76-10.13,18.17-1-.98-.79-2.26-.79-3.45-.03-9.76-.03-19.52,0-29.28,0-1.19-.22-2.48,.82-3.44Z"/><path class="l" d="M141.39,125.41c0,12.06-.02,24.11-.03,36.17-.02,.37-.03,.74-.05,1.12-.35,0-.69,0-1.04,0-.02-.37-.03-.74-.05-1.12-1.52-3.5-.84-7.2-.88-10.82-.08-7.02-.02-14.03-.02-21.05,0-1.48-.16-3.02,.88-4.3,.15-.3,.26-.81,.47-.86,.62-.14,.62,.45,.72,.86Z"/><path class="h" d="M140.19,125.41c0,12.06,.02,24.11,.03,36.17-8.53-11.26-13-24.14-15.3-37.93-.28-1.66-.45-3.3-.53-4.97,1.46,2.7,2.07,5.69,2.83,8.61,.58,2.25,1.27,3.25,3.77,1.99,2.97-1.49,6.13-2.6,9.2-3.88Z"/><path class="o" d="M130.68,84.82c2.62,.01,3.87,1.16,3.9,3.6,.04,2.77-1.36,4.3-3.95,4.29-2.49,0-3.98-1.52-3.94-4.02,.04-2.57,1.39-3.88,4-3.87Z"/><path class="o" d="M151.5,84.82c2.2,.08,4.09,2.09,3.93,4.17-.15,1.94-2.24,3.75-4.27,3.72-2.16-.04-4.11-2.02-4.1-4.18,0-1.92,2.25-3.79,4.44-3.71Z"/><path class="c" d="M159.53,82.01c.79,.9,1.71-.55,2.53,.53-1.38,1.32-3.36,2.13-4.26,4.02-.22,.46-.82,.46-1.08-.12-1.08-2.4,3.5-8.41,6.22-8.16,.05,0,.09,.14,.28,.42-1.45,.84-3.02,1.64-3.67,3.3Z"/><path class="c" d="M122.73,82.02c-.98-1.48-2.08-2.66-3.92-3.22,3.19-1.28,6.27,2.75,6.46,8.71-1.73-2.14-3.15-3.88-5.21-4.81,.76-1.33,1.65,.08,2.68-.68Z"/><path d="M134.71,92.89c4.09,3.05,8.04,3.21,12.06-.43-.58,2.43-1.52,3.37-3.95,3.59-3.13,.28-6.28,.28-8.11-3.16Z"/><path class="c" d="M143.74,90.36c-1.92,2.15-3.89,2.3-5.92,1.11-1.57-.92-1.08-2.36-.47-3.7,.33-.71,.88-1.52,1.65-1.09,1.14,.63,0,1.19-.36,1.68-.4,.54-.92,1.11-.43,1.72,.6,.76,1.51,1.03,2.51,.88,.88-.13,1.53-1.08,3.01-.6Z"/><path d="M153.69,81.51c-4.34,3.78-7.72,3.71-10.02-.04,3.36,2.56,6.69,2.07,10.02,.04Z"/><path d="M128.1,81.41c3.26,1.8,6.43,3.08,10-.85-1.69,4.74-6.73,4.78-10,.85Z"/><path class="q" d="M100.07,94.1c.24,.93-.48,.76-.98,.9-7.71,2.23-15.41,4.49-23.13,6.68-.72,.2-1.38,.25-1.84-.99-1.52-4.14-1.6-4.02,2.73-5.2,6.34-1.72,12.71-3.37,18.9-5.52,2.8-.97,3.41,.1,3.82,2.27,.12,.63-.06,1.33,.49,1.85Z"/><path d="M68.54,97.78c2.36-.07,3.33,1.55,3.28,3.16-.05,1.78-1.18,3.22-3.5,3.09-2.39-.14-2.59-1.61-2.58-3.47,.01-2.05,1.03-2.87,2.8-2.78Z"/><path class="n" d="M136.3,186.34c-.07,1.14-.52,1.8-1.54,1.68-.98-.11-1.81-.83-1.75-1.75,.04-.71,.82-1.63,1.68-1.47,.73,.13,1.89,.39,1.61,1.54Z"/><path class="n" d="M136.3,171.69c-.07,1.12-.51,1.67-1.37,1.68-1.06,0-1.8-.76-1.92-1.62-.11-.81,.77-1.62,1.54-1.63,.97-.01,1.38,.99,1.75,1.57Z"/><path class="d" d="M246.67,202.42c-.33,1.23-1.2,1.93-2.39,1.94-1.32,.01-1.75-1.29-1.76-2.15,0-1.05,.92-1.72,2.15-1.74,1.4-.03,1.55,1.11,2,1.95Z"/><path class="p" d="M183.41,47.01c-1.31,.07-1.97-.39-2.02-1.72-.06-1.54,1.26-2,2.1-2.07,1.1-.09,1.89,.89,1.87,2.21-.03,1.39-.89,1.66-1.95,1.59Z"/><path class="l" d="M136.8,135c-1.04-.08-1.6-.6-1.61-1.61-.02-1.09,.78-1.55,1.64-1.53,.91,.03,1.54,.76,1.6,1.68,.07,1.08-.7,1.43-1.62,1.46Z"/><path class="l" d="M136.68,143.61c1.05,.28,1.73,.87,1.75,1.89,.02,.86-.62,1.29-1.45,1.33-1.08,.05-1.74-.44-1.81-1.58-.06-1.1,.81-1.28,1.5-1.65Z"/><path class="m" d="M68.72,98.92c1.09,.17,2.14,.8,1.96,1.88-.15,.92-.61,2.2-2.17,2.09-1.44-.1-1.95-1.11-1.86-2.17,.08-.96,.67-2,2.07-1.79Z"/></svg>