<?xml version="1.0" encoding="UTF-8"?><svg id="a" xmlns="http://www.w3.org/2000/svg" viewBox="0 0 425.82 284"><defs><style>.b{fill:#7d271c;}.c{fill:#211;}.d{fill:#2513e9;}.e{fill:#2b17cf;}.f{fill:#9c2d17;}.g{fill:#8f6e5c;}.h{fill:#f32b1e;}.i{fill:#fff;}.j{fill:#feb491;}.k{fill:#d5b1a6;}.l{fill:#2b18ca;}.m{fill:#ece9e7;}.n{fill:#a75c5f;}.o{fill:#f87114;}.p{fill:#38120d;}.q{fill:#2f2164;}.r{fill:#fafafa;}.s{fill:#4e814d;}.t{fill:#b5afa5;}.u{fill:#24100f;}.v{fill:#f6f4f2;}.w{fill:#c7c0be;}.x{fill:#e2e2e2;}.y{fill:#29195a;}.a`{fill:#b6937c;}.aa{fill:#fbb9b6;}.ab{fill:#241214;}.ac{fill:#f5f6f5;}.ad{fill:#080256;}.ae{fill:#ffe6e3;}.af{fill:#fff0eb;}.ag{fill:#3e1915;}.ah{fill:#1c0907;}.ai{fill:#ab857f;}.aj{fill:#0d2b37;}.ak{fill:#f8f2ef;}.al{fill:#942007;}.am{fill:#dbb4ac;}.an{fill:#132938;}.ao{fill:#a8846c;}.ap{fill:#ffb6ad;}.aq{fill:#f87a64;}.ar{fill:#d1563b;}.as{fill:#f7751e;}.at{fill:#fde1cb;}.au{fill:#fa7861;}.av{fill:#eae8e6;}.aw{fill:#2e1cdf;}.ax{fill:#fb7861;}.ay{fill:#b5aeaf;}.b`{fill:#fb735a;}.ba{fill:#f5f8f8;}.bb{fill:#220e10;}.bc{fill:#745343;}.bd{fill:#4423d4;}.be{fill:#71385c;}.bf{fill:#3b1bde;}.bg{fill:#efecea;}.bh{fill:#b7a9a3;}.bi{fill:#fe977e;}.bj{fill:#ffb592;}.bk{fill:#f6f4f1;}.bl{fill:#544de9;}.bm{fill:#2f1c5c;}.bn{fill:#c64c31;}.bo{fill:#eeeeef;}.bp{fill:#381712;}.bq{fill:#932008;}.br{fill:#3246e4;}.bs{fill:#eae7e4;}.bt{fill:#f5f6f7;}.bu{fill:#fa7760;}.bv{fill:#321254;}.bw{fill:#562cc6;}.bx{fill:#4e42e3;}.by{fill:#321654;}.c`{fill:#feb6b8;}.ca{fill:#cb5035;}.cb{fill:#f2f1f1;}.cc{fill:#ff9a88;}.cd{fill:#c34b30;}.ce{fill:#fb9a7b;}.cf{fill:#c74b31;}.cg{fill:#825041;}.ch{fill:#f5f7f9;}.ci{fill:#0f313d;}.cj{fill:#fbfdfa;}.ck{fill:#082e35;}.cl{fill:#211057;}.cm{fill:#6a1d0f;}.cn{fill:#f7f3ef;}.co{fill:#651909;}.cp{fill:#210e11;}.cq{fill:#fba37f;}.cr{fill:#fb7862;}.cs{fill:#3b27e6;}.ct{fill:#a77a64;}.cu{fill:#b4b4ad;}.cv{fill:#130c71;}.cw{fill:#4826d1;}.cx{fill:#351955;}.cy{fill:#f27824;}.d`{fill:#efab8a;}.da{fill:#fa7b66;}.db{fill:#fa9d7d;}.dc{fill:#e9e3e0;}.dd{fill:#33110d;}.de{fill:#f1ece8;}.df{fill:#503de4;}.dg{fill:#c44d33;}.dh{fill:#6d1d0b;}.di{fill:#942108;}.dj{fill:#2716e3;}.dk{fill:#c44a2f;}.dl{fill:#fb7760;}.dm{fill:#a1501b;}.dn{fill:#280b55;}.do{fill:#0c0857;}.dp{fill:#ede7e5;}.dq{fill:#fbb588;}.dr{fill:#fcb28a;}.ds{fill:#210e10;}.dt{fill:#39120d;}.du{fill:#fbb994;}.dv{fill:#e4e8ea;}.dw{fill:#681c0e;}.dx{fill:#0e0957;}.dy{fill:#661a09;}.e`{fill:#feb5ac;}.ea{fill:#3d1d57;}.eb{fill:#f2f2f2;}.ec{fill:#f0edeb;}.ed{fill:#f9761e;}.ee{fill:#f97a64;}.ef{fill:#924d3f;}.eg{fill:#ebf0f0;}.eh{fill:#fb705c;}.ei{fill:#a48087;}.ej{fill:#2f100d;}.ek{fill:#f0f0ef;}.el{fill:#f42e25;}.em{fill:#806e69;}</style></defs><path class="cp" d="M99.36,0h40.93c.17,.18,.4,.1,.61,.12,.54,.07,1.07,.18,1.62,.25,.4,.05,.77,.19,1.14,.3,4.47,1.44,8.78,3.24,12.96,5.4,6.23,3.22,11.92,7.21,17.17,11.84,7.92,6.99,14.49,15.09,19.92,24.13,.1,.14,.19,.28,.28,.43,.11,.2,.22,.4,.34,.59,2.21,3.78,4.19,7.68,5.95,11.7,1.35,2.82,2.43,5.76,3.52,8.69,2.49,6.97,4.38,14.09,5.59,21.39,.27,1.66,.46,3.33,.86,4.97,.5,3.66,.78,7.33,.96,11.02,.18,3.61,.22,7.21,.29,10.82,.12,6.26-.5,12.47-1.47,18.64-.09,.46-.32,.89-.29,1.37,0,.13-.02,.26-.06,.39-.7,3.91-1.49,7.8-2.6,11.62-.89,3.07-1.78,6.13-2.98,9.09-.48,1.15-.83,2.35-1.42,3.45-.65,2-1.6,3.86-2.44,5.77-.06,.16-.16,.3-.22,.47-3.31,6.84-7.18,13.33-11.74,19.41-.26,.35-.51,.7-.8,1.02-.14,.17-.26,.36-.38,.55-1.62,2.03-3.25,4.06-4.95,6.02-3.28,4.06-7.07,7.62-10.85,11.19-3.56,3.35-7.36,6.43-11.3,9.32-.92,.67-.65,1.24-.16,1.97,2.85,4.29,5.06,8.9,6.55,13.83,1.73,5.7,2.28,11.49,1.26,17.39-.12,.7-.24,1.4-.46,2.07-.63,3.31-1.76,6.45-3.16,9.49-3.32,7.22-7.96,13.54-13.32,19.38-2.91,3.17-5.99,6.13-9.22,8.96-.41,.36-.81,.75-1.4,.82-.14,0-.27,0-.41,0-12.02,0-24.03,0-36.04,0h-.4c-1.09-.18-1.74-1.04-2.49-1.7-5.52-4.89-10.56-10.23-14.89-16.21-4.27-5.91-7.7-12.24-9.52-19.36-.12-.46-.25-.91-.26-1.39-1.12-4.37-1.23-8.8-.59-13.25,.93-6.46,3.33-12.38,6.61-17.96,.89-1.51,.88-1.5-.51-2.48-5.07-3.57-9.86-7.47-14.47-11.6-.62-.55-1.1-1.23-1.75-1.75-5.79-5.32-10.94-11.22-15.58-17.55-10.26-14-16.95-29.53-19.85-46.66-.16-.97-.36-1.94-.47-2.92-.52-2.93-.81-5.87-.92-8.84-.46-6.21-.28-12.42,.12-18.63,.51-8,1.61-15.91,3.4-23.71,3.94-17.17,10.62-33.14,21.15-47.36,7.1-9.59,15.59-17.74,25.81-23.99,5.47-3.35,11.24-6.04,17.38-7.93,.98-.3,2.01-.32,2.99-.58Z"/><path class="aa" d="M140.04,283.8c.07-.04,.13-.06,.21-.08,.72-.37,1.49-.45,2.29-.45,51.29,0,102.57,0,153.86,.01,.66,0,1.35-.11,1.95,.3,.13,.11,.19,.25,.18,.42H140.04c-.09-.05-.12-.09-.09-.13,.03-.04,.06-.07,.09-.07Z"/><path class="aa" d="M102.93,283.71c.08,.01,.15,.04,.22,.08,.09,.05,.12,.09,.09,.13-.03,.04-.06,.07-.09,.07H0v-39.02c.16-.02,.3,.03,.4,.16,.08,.13,.14,.27,.18,.43,.21,.61,.14,1.25,.14,1.88,0,11.19,0,22.37,0,33.56,0,.43,0,.87,.02,1.3,.02,.62,.35,.93,.96,.96,.51,.03,1.02,.02,1.54,.02,32.35,0,64.7,0,97.05,0,.91,0,1.81-.02,2.64,.44Z"/><path class="ae" d="M308.76,283.79c.51-.01,1.02-.03,1.54-.03,38.5,0,77.01,0,115.51,0-.05,.07,.12,.25-.12,.24-.32-.01-.63,0-.95,0h-116.03c-.06-.06-.07-.11-.04-.15,.03-.04,.06-.05,.08-.05Z"/><path class="r" d="M154.95,0c-.64,.33-1.33,.36-2.03,.3-.16-.01-.41-.03-.4,.11,.1,.88-.57,.52-.9,.52-2.68,.03-5.35,.03-8.03,.03-.47,.02-.87-.25-1.32-.32-.2-.19-.35-.39-.09-.64h12.77Z"/><path class="ay" d="M103.14,284c0-.07,0-.13,0-.2,.27-.01,.55-.03,.82-.03,11.75,0,23.5,0,35.26,0,.27,0,.55,.02,.82,.03,0,.07,0,.13,0,.2h-36.9Z"/><path class="am" d="M308.76,283.79c-.03,.06-.05,.13-.05,.21h-10.17c0-.07,0-.13,0-.2,.05-.06,.09-.12,.14-.19,.44-.34,.95-.33,1.47-.33,2.32,0,4.64,0,6.96,0,.55,0,1.11-.02,1.55,.42,.04,.03,.07,.06,.11,.09Z"/><path class="at" d="M0,122.02c.07-.01,.13-.02,.2-.04,.01,3.09,.02,6.18,.04,9.26H0v-9.22Z"/><path class="af" d="M.24,244.99h-.24v-7.34c.08,0,.16,0,.23,0,.14-.07,.26-.04,.34,.1,.06,.13,.08,.27,.08,.41-.15,1.73-.02,3.46-.07,5.19-.01,.5,.09,1.03-.19,1.5-.05,.05-.11,.09-.16,.14Z"/><path class="du" d="M425.81,77.56c-.35-1.1-.45-2.21,0-3.31v3.31Z"/><path class="cy" d="M142.17,0c.03,.21,.06,.43,.1,.64-.5-.14-1-.28-1.51-.42-.15-.07-.16-.14,0-.22h1.42Z"/><path class="dm" d="M140.75,0c0,.07,0,.15,0,.22-.21,.03-.38-.03-.48-.22h.47Z"/><path class="ci" d="M334.02,42.59c1.51-.09,2.98,.19,4.44,.55,2.94,.74,4.33,2.8,4.79,5.65,.41,2.5,.46,5.02,.46,7.54,0,47.44,0,94.89,0,142.33,0,.51,.01,1.02,.02,1.54-.45,.68-1.16,.56-1.81,.56-4.41,.02-8.82,0-13.23,0-1.68,0-1.74,.06-1.74,1.72,0,7.24,0,14.49,0,21.73,0,.66,.08,1.35-.39,1.92-.95,.49-2,.3-3.01,.38-1.29,.1-2.6,.03-3.9,.03-26.63,0-53.27,0-79.9,0-2.22,0-2.2,0-2.22,2.22-.03,2.95,.1,5.91-.07,8.86,.15,2.16,.05,4.32,.06,6.48,0,.44-.08,.86-.39,1.21-.46,.39-1.01,.39-1.57,.39-13.26,0-26.52,0-39.78,0-.63,0-1.27,0-1.73-.56-.36-.57-.29-1.21-.3-1.83-.02-4.91,.22-9.82,.13-14.73-.01-.63,0-1.26-.43-1.78-.53-.38-1.14-.21-1.72-.25-1.68-.12-3.39,.25-5.05-.25-.64-.4-.74-1.09-.86-1.74-1.21-6.45-2.22-12.93-2.96-19.45-.52-4.53-.92-9.06-1.32-13.59-.07-.77-.05-1.49,.48-2.12,.11-.11,.23-.19,.37-.25,.35-.1,.7-.08,1.06-.08,11.19,0,22.38,0,33.57,0,.32,0,.63,0,.94,.04,.23,.04,.44,.16,.66,.24,.57,.2,1.16,.18,1.76,.18,29.8,0,59.61,0,89.41,0,.59,0,1.18,.01,1.75-.18,5.45-.12,10.9-.02,16.34-.05,.63,0,1.26,.01,1.8-.39,.32-.31,.31-.71,.32-1.1,0-.35,0-.71,0-1.06,0-43.15,0-86.3,0-129.45,0-.7,.15-1.42-.23-2.08-.48-.42-1.06-.47-1.66-.47-8.61,0-17.22,0-25.83,0-.64,0-1.24,.16-1.86,.29-.7,.12-1.41,.08-2.12,.08-22.74,0-45.47,.14-68.21-.06-9.65-.09-19.3-.06-28.95-.16-.43,0-.86-.09-1.3-.06-1.28-3.12-2.89-6.08-4.44-9.07-.47-.9-1.11-1.71-1.43-2.69,.04-.56,.48-.55,.86-.59,.47-.04,.94-.02,1.42-.02,44.44,0,88.88,0,133.33,0,1.49,0,2.97,.16,4.45,.15Z"/><path class="el" d="M194.13,245.06c.41,.2,.85,.12,1.28,.12,13.44,0,26.88,0,40.32,0,.43,0,.87,.04,1.29-.09,.52-.35,1.12-.34,1.71-.34,8.43,0,16.86-.08,25.29,.03,4.02,.05,7.85,1.2,11.5,2.86,3.02,1.37,5.88,3.03,8.38,5.24,8.88,7.63,13.68,17.37,14.99,28.92,.07,.65,.21,1.34-.31,1.91l-.04,.09c-.55-.01-1.1-.04-1.65-.04-51.5,0-103,0-154.5,0-.71,0-1.42-.03-2.13-.04,1.36-1.25,2.72-2.49,4.07-3.76,6.08-5.7,11.56-11.89,15.93-19.02,3-4.89,5.29-10.08,6.57-15.7,.37-.43,.87-.5,1.39-.5,7.7,0,15.41-.05,23.11,.03,.95-.01,1.9-.14,2.81,.29Z"/><path class="eb" d="M218.33,189.62l-.26-.17c-.25-.3-.59-.15-.88-.15-11.37,0-22.73,0-34.1,0-.31,0-.63-.06-.93,.1v.09c-.19,.03-.28-.05-.32-.21,1.67-2.02,3.34-4.03,5-6.05,.68-.44,1.45-.31,2.19-.31,32.09,0,64.17,0,96.26,0,.74,0,1.52,.11,2.11-.49,.39-.55,.37-1.19,.37-1.82,0-5.32,0-10.63,0-15.95,0-1.99-.33-2.31-2.34-2.31-27.85,0-55.7,0-83.55-.01-.67,0-1.44,.27-1.99-.4,.51-1.59,1.37-3.04,1.95-4.61,.15-.4,.32-.79,.47-1.19,.62-.59,1.37-.57,2.13-.45,1.1-.09,2.2-.05,3.3-.07,1.21-.02,1.35-.17,1.35-1.51,.01-5.43,.04-10.86-.01-16.28-.02-1.97,.25-3.92,.24-5.88-.04-.07-.03-.14,.03-.2,.25-.38-.02-.85,.2-1.25,.26-2.15,.52-4.29,.77-6.44,.68-5.8,.81-11.61,.72-17.44-.08-5.28-.48-10.53-1.18-15.76-.05-.39-.05-.78-.07-1.18-.35-3.95-.55-7.88-.29-11.87,.28-4.27,.07-8.57,.07-12.86,0-.74-.36-1.06-1.09-1.06-1.18,0-2.36,0-3.54,0-.56,0-1.1-.05-1.56-.43-1-2.48-2-4.97-3.01-7.45-.16-.39-.36-.77-.55-1.16,.08-.55,.52-.37,.83-.37,1.89-.01,3.78-.01,5.67,0,4.1,.01,8.2,.04,12.29,.05,9.73,.03,19.47,.05,29.2,.07,17.3,.03,34.6,.06,51.9,.08,.24,0,.47-.02,.71-.04,.34-.16,.7-.09,1.05-.09,9.28,0,18.56,0,27.84,0,.37,0,.79-.17,1.12,.17,.02,.47,.05,.94,.05,1.42,0,44.05,0,88.11-.01,132.16,0,.46,.28,1.01-.24,1.39-.4-.25-.85-.12-1.27-.13-5.4,0-10.8-.1-16.2,.02-6.9,.16-13.79,.03-20.69,.09-.39,0-.79-.02-1.17,.1-17.11,.03-34.22,0-51.33,.01-6.66,0-13.33,0-19.99,0-.42,0-.87,.14-1.26-.14Z"/><path class="el" d="M102.93,283.71c-.43,.02-.86,.04-1.3,.04-33.3,0-66.6,0-99.9,0-1.56,0-1.43,.16-1.44-1.48,0-11.78,0-23.56,0-35.33,0-.55-.02-1.1-.03-1.65,.11-.12,.25-.18,.41-.18,15.72-.02,31.45,0,47.17,0,.75,0,1.5-.03,2.21-.28,.23-.06,.46-.09,.7-.07,7.87-.04,15.75-.01,23.62-.02,.7,0,1.44-.11,1.99,.5,1.69,7.53,5.21,14.2,9.7,20.41,4.47,6.18,9.72,11.64,15.41,16.7,.5,.44,1.04,.83,1.45,1.37Z"/><path class="dl" d="M187.13,182.83c1.31-1.86,2.65-3.71,3.93-5.6,3.05-4.5,5.77-9.19,8.15-14.09,.15-.32,.34-.62,.51-.93,.41-.22,.85-.11,1.28-.11,28.52,0,57.04,0,85.56,0,1.63,0,1.45-.16,1.45,1.45,0,6.06,0,12.13,0,18.19,0,.43,.07,.87-.08,1.29-.41,.2-.85,.1-1.28,.1-32.73,0-65.46,0-98.19-.01-.43,0-1.02,.37-1.34-.3Z"/><path class="al" d="M181.85,189.27c.1,.07,.2,.14,.31,.21-.45,.61-.21,1.3-.16,1.94,.18,2.39,.4,4.78,.62,7.16,.31,3.32,.69,6.64,1.11,9.95,.49,3.9,1.08,7.78,1.75,11.65,.35,1.97,.64,3.96,1.16,5.89,.46,.38,.58,.92,.7,1.45,.72,3.38,1.54,6.73,2.46,10.05,.48,2.03,1.2,3.98,1.76,5.98,.13,.48,.39,.96,.07,1.47-.44,.27-.92,.15-1.39,.15-7.25,0-14.51,0-21.76,0-.55,0-1.1,.03-1.65,.04,.53-2.67,.9-5.35,.89-8.08-.02-4.94-1.04-9.68-2.76-14.29-1.51-4.04-3.54-7.82-5.92-11.4-.56-.85-.56-.86,.24-1.46,7.14-5.29,13.73-11.2,19.82-17.68,.94-1,1.84-2.04,2.77-3.06Z"/><path class="al" d="M76.37,245.24c-.51-.01-1.02-.04-1.53-.04-7.62,0-15.24,0-22.86,0-.46,0-.95,.13-1.37-.19-.2-.52,.19-.81,.47-1.11,1.45-1.61,2.76-3.33,3.86-5.2,.24-.41,.51-.8,.97-1,1.58-2.55,2.7-5.32,3.71-8.13,2.19-6.05,3.52-12.32,4.5-18.66,.66-4.28,1.03-8.59,1.45-12.9,1.06,.94,2.13,1.86,3.17,2.81,4.23,3.83,8.73,7.33,13.39,10.62,.16,.11,.32,.22,.48,.34q.91,.63,.35,1.53c-2.1,3.43-3.9,7.02-5.19,10.83-1.08,3.17-1.85,6.41-2.12,9.76-.1,1.26-.18,2.51-.18,3.76,0,2.56,.41,5.08,.89,7.59Z"/><path class="bj" d="M203.39,63.42c1.93,0,3.86-.02,5.78,0,.83,0,.88,.06,.88,.88,0,4.52,.1,9.05-.08,13.57-.13,3.54-.06,7.07-.14,10.61,0,.39-.03,.78-.04,1.17-.29-1.62-.58-3.24-.86-4.85-1.22-7.05-3.03-13.94-5.38-20.69-.08-.22-.12-.45-.17-.68Z"/><path class="x" d="M209.34,131.91c.26,.43,.26,.9,.26,1.37,0,7.17,0,14.33,0,21.5,0,.08,0,.16,0,.24-.03,.97-.06,1.03-.99,1.04-1.42,.01-2.84-.01-4.25-.02-.21-1.1-.89-2.09-.71-3.27,2.45-6.6,4.3-13.37,5.5-20.31,.03-.19,.12-.37,.19-.55Z"/><path class="aj" d="M334.02,42.59c-.37,.32-.83,.2-1.25,.21-2.01,.01-4.02,0-6.03,0-43.73,0-87.46,0-131.2,0-.53,0-1.11-.18-1.59,.25-.15-.11-.22-.27-.23-.45,.39-.38,.89-.27,1.35-.27,45.08,0,90.16,0,135.24,0,1.09,0,2.19-.03,3.28,.19l.43,.06Z"/><path class="ei" d="M333.59,42.53c-.94,.15-1.89,.03-2.83,.03-45.28,0-90.57,0-135.85,0-.39,0-.79,.02-1.18,.04l-.25-.26,.28-.06c.42-.14,.86-.07,1.29-.07,45.02,0,90.05,0,135.07,0,.43,0,.87-.07,1.29,.08h.26c.31-.12,.62-.13,.93,.02,.32,.11,.69-.01,.99,.21Z"/><path class="b`" d="M287.89,183.03c0-6.42,0-12.84,0-19.26q0-1.55-1.54-1.55c-28.88,0-57.75,0-86.63,0,0-.14,.05-.24,.18-.3,.75,0,1.5-.02,2.25-.02,28.09,0,56.19,0,84.28,0,2.01,0,1.77-.23,1.78,1.75,.01,5.99,0,11.97,0,17.96,0,.47-.03,.94-.05,1.41-.09,.09-.17,.09-.26,0Z"/><path class="eh" d="M287.89,183.03h.26c-.06,.16-.19,.24-.36,.25-.35,0-.71,.01-1.06,.01-32.74,0-65.48,0-98.23,0-.55,0-1.1-.04-1.65-.06,.02-.18,.11-.31,.28-.39,.46,.34,.99,.19,1.49,.19,19.11,0,38.21,0,57.32,0,13.99,0,27.97,0,41.96,0Z"/><path class="s" d="M203.65,152.77c-.04,.48,.34,.78,.48,1.18,.24,.67,.77,1.33,.23,2.09-.68-.05-1.36-.12-2.03,.08,.44-1.12,.88-2.23,1.33-3.35Z"/><path class="x" d="M209.57,130.47c.04,.43,.14,.87-.2,1.25-.04-.43-.02-.85,.2-1.25Z"/><path class="al" d="M298.58,283.71c-.5-9.09-3.49-17.26-9.08-24.45-1.25-1.61-2.6-3.15-4.16-4.48-.53-.46-1.09-.91-1.48-1.51-.17-.43-.09-.85,.06-1.27,1.72-4.62,3.53-9.19,6.17-13.38,.27-.43,.63-.81,.88-1.26,1.25-1.74,2.87-2.97,4.88-3.74,4.49-1.72,9.15-2.85,13.81-3.97,4.32-1.04,8.67-1.93,13.02-2.83,1.19-.25,2.39-.44,3.61-.53,1.74-.51,3.53-.8,5.31-1.08,1.44-.22,2.71-.71,3.87-1.61,1.65-1.28,3.35-2.51,5.11-3.61,2.93-1.83,5.28-4.24,7.71-6.65,2.39-2.37,5.14-4.43,8.28-5.8,2.71-1.19,5.66,.06,6.3,2.63,.44,1.75-.37,3.19-1.45,4.42-2.15,2.46-4.62,4.62-7.06,6.79-2.56,2.27-5.15,4.5-7.66,6.82-1.74,1.6-3.5,3.17-5.15,4.86-2.56,2.61-4.97,5.34-7.09,8.32,3.13-4.32,6.79-8.13,10.71-11.74,4.94-4.56,10.12-8.86,14.93-13.56,1.12-1.1,2.19-2.25,2.67-3.82,.54-1.76,.17-3.5-1.47-4.28-1.59-.75-1.78-2.02-1.81-3.35-.08-2.98-.35-5.95-.56-8.92-.17-2.36-.09-4.71-.21-7.06-.04-.83-.09-1.65-.1-2.48-.03-2.52,1.24-3.98,3.74-4.3,.31-.04,.63-.02,.94-.05,.5-.05,.69,.17,.75,.66,.23,1.91,.48,3.83,.73,5.74,.49,3.82,.98,7.65,1.47,11.47,.02,.19,.12,.37,.18,.56,.62,.9,.51,1.95,.65,2.95,.26,1.95,.53,3.9,.78,5.85,.11,.82-.11,1.43-.71,2-4.78,4.62-9.58,9.23-14.46,13.75-1.39,1.29-2.63,2.75-3.44,3.39,1.27-1.16,3.12-2.99,4.99-4.79,4.16-4.02,8.45-7.91,12.54-12.01,2.25-2.26,4.06-4.89,6.21-7.25,.47-.52,.58-1.19,.68-1.86,.12-.73,.19-1.49,.74-2.08,.5-2.58,1.06-5.16,1.47-7.76,.33-2.13,1.53-3.37,3.49-4,.67-.22,1.36-.39,2.07-.46,.92-.09,.94-.08,.89,.82-.12,2.12-.26,4.24-.39,6.36-.1,1.65-.21,3.29-.32,4.94,.05,.1,.11,.21,.16,.31,.06,.1,.1,.21,.13,.33,.15,1.38-.13,2.75-.23,4.12-.13,1.88-.11,3.78-.39,5.65-.12,.77-.36,1.41-.88,2.01-7.32,8.35-14.62,16.72-21.96,25.06-2.99,3.4-6.01,6.77-8.94,10.23-.68,.81-1.48,1.4-2.5,1.7-2.76,.81-5.52,1.61-8.28,2.44-.43,.13-.85,.13-1.27-.02-4.3,1.25-8.6,2.5-12.9,3.76-2.94,.86-5.88,1.75-8.82,2.58-.68,.19-1,.52-1.18,1.24-1.91,7.91-3.87,15.8-5.82,23.7-.04,.15-.06,.31-.08,.46-3.36,.1-6.72,.08-10.08,.01Z"/><path class="ed" d="M337.46,251.96c3.24-.97,6.48-1.94,9.73-2.88,.68-.2,1.2-.54,1.65-1.06,2.99-3.45,6-6.89,9-10.33,2.44-2.79,4.89-5.56,7.33-8.34,3.17-3.61,6.32-7.23,9.49-10.85,1.84-2.1,3.68-4.21,5.54-6.29,.45-.5,.66-1,.7-1.67,.21-3.34,.47-6.67,.71-10,.4-.23,.84-.11,1.27-.11,4.66,0,9.32,0,13.98-.01,.42,0,.86,.11,1.27-.12,.43,.22,.24,.62,.25,.94,.02,1.73,0,3.47,0,5.2v1.18c.61,.13,1.05-.2,1.52-.34,5.03-1.5,9.83,.2,12.58,4.5,.92,1.44,1.58,3,1.95,4.66,1.08,4.81,.47,9.47-1.32,14.01-1,2.55-2.39,4.87-4.11,7-1.66,1.92-3.51,3.6-5.75,4.82-2.14,1.17-4.42,1.83-6.88,1.78-.52-.01-1.01-.11-1.52-.2-.97-.17-.98-.17-1.48,.66-1.61,2.72-3.57,5.18-5.82,7.39-1.8,1.77-3.79,3.3-5.91,4.68-.85,.55-.86,.56-.43,1.45,1.12,2.33,1.71,4.81,1.94,7.37,.05,.53,.22,1.1-.18,1.59-.37,.2-.77,.1-1.16,.11-12.95,0-25.89,0-38.84,0-.39,0-.79,.1-1.16-.12-.38-1.09-.05-2.19,.1-3.25,.28-2.03,.89-3.98,1.81-5.83,.39-.78,.38-.8-.36-1.26-2.14-1.34-4.11-2.9-5.91-4.66Z"/><path class="ed" d="M358.72,188.65c.24,1.11,.21,2.26,.31,3.38,.27,3.01,.38,6.04,.58,9.07,.11,1.69,.29,3.37,.4,5.05,.03,.54,.21,.83,.73,1.06,1.33,.59,2.28,1.56,2.56,3.04,.24,1.27-.17,2.42-.79,3.5-.62,1.06-1.44,1.97-2.35,2.8-3.29,3-6.57,6-9.89,8.96-3.11,2.78-6.24,5.55-9.15,8.54-2.39,2.46-4.66,5.02-6.56,7.89-.17,.25-.29,.81-.74,.53-.46-.29-.02-.62,.15-.89,1.98-3.01,4.35-5.68,6.87-8.24,3.65-3.71,7.57-7.12,11.45-10.57,2.8-2.48,5.61-4.95,8.22-7.63,.86-.89,1.59-1.85,1.95-3.05,.51-1.68-.15-3.3-1.72-4.08-1.75-.87-3.4-.54-5.05,.38-2.17,1.21-4.05,2.8-6.04,4.25-.77,.56-1.34,1.28-1.98,1.96-1.29,1.38-2.7,2.65-4.07,3.95-.57,.54-1.37,.7-2.01,1.18-2.34,1.74-4.74,3.38-7.12,5.07-.33,.23-.67,.43-1.06,.5-2.32,.42-4.64,.82-6.96,1.23-.14-.15-.13-.31,0-.47,0-4.84,.02-9.68,.03-14.51,0-3.38,0-6.77,0-10.15,0-1.1,.01-1.11,1.09-1.11,4.92,0,9.84,0,14.76,0,.47,0,.94-.05,1.41-.07,3.77,.01,7.54,.03,11.31,.04,.78,.92,.53,2.08,.69,3.14,.13,.85,.04,1.73,.04,2.59,0,.61,.21,.9,.85,.7,.08-.02,.15-.04,.23-.06q1.9-.41,1.81-2.32c-.16-3.37-.38-6.74-.69-10.1-.07-.82-.06-1.65,0-2.47,.58-.56,.87-1.21,.71-2.04-.06-.33,.01-.69,.02-1.03Z"/><path class="ed" d="M374.41,200.23c-.16,.97-.3,1.94-.48,2.91-.09,.51-.29,.96-.66,1.36-1.11,1.22-2.2,2.47-3.27,3.73-.48,.56-1.04,1.06-1.31,1.8-.11,.31-.44,.55-.69,.79-2.74,2.61-5.49,5.2-8.23,7.81-3.65,3.48-7.3,6.96-10.95,10.44-.14,.14-.28,.27-.44,.4-.2,.16-.43,.24-.62,0-.23-.26,0-.43,.17-.59,1.74-1.66,3.47-3.33,5.22-4.98,1.92-1.81,3.86-3.6,5.77-5.42,2.65-2.53,5.28-5.08,7.95-7.6,.58-.55,.73-1.06,.6-1.86-.41-2.56-.7-5.14-1.02-7.72-.04-.35-.02-.71-.02-1.06,2.66,0,5.32-.01,7.98-.02Z"/><path class="al" d="M357.98,191.72c.45,.16,.38,.55,.4,.89,.25,3.96,.51,7.93,.75,11.89,.04,.66,.46,1.42,.07,1.95-.39,.53-1.24,.28-1.87,.47-.59,.18-1.18,.39-1.91,.63-.13-2.49-.13-4.91-.37-7.32,0-1.34-.05-2.68,.04-4.01,.13-2.01,.95-3.64,2.9-4.5Z"/><path class="bt" d="M331.41,42.29c-.47,.01-.94,.03-1.42,.03-44.98,0-89.96,0-134.93,0-.43,0-.87-.02-1.3-.04,.42-.32,.91-.19,1.37-.19,10.25,0,20.49,0,30.74,0,34.64,0,69.29,0,103.93,0,.54,0,1.11-.17,1.61,.19Z"/><path class="o" d="M398.13,200.29c-.4,.38-.89,.23-1.35,.23-5.06,0-10.11,0-15.17,0-.02-.07-.03-.15-.02-.22,.07-.1,.14-.11,.23-.03,5.43-.06,10.86-.08,16.29,.01Z"/><path class="bt" d="M332.6,42.31h-.93c.31-.29,.62-.29,.93,0Z"/><path class="r" d="M154.1,.68l-.1-.12c.06-.01,.12-.03,.18-.03,.02,0,.04,.04,.07,.07l-.15,.09Z"/><path class="ed" d="M381.84,200.27c-.08,.01-.16,.02-.23,.03-.03-.06-.03-.12,0-.17,.08,.05,.15,.1,.23,.14Z"/><path class="c`" d="M341.83,266.97c5.24,0,10.49-.02,15.73-.02,8.04,0,16.09,0,24.13,0,.43,0,.87,.02,1.3,.03-.32,.32-.74,.23-1.12,.23-12.97,0-25.95,0-38.92,0-.38,0-.8,.09-1.11-.24Z"/><path class="ap" d="M55.9,237.7c-1.19,2.36-2.74,4.47-4.51,6.43-.26,.29-.52,.59-.78,.88l-.23,.13c-.26,.37-.65,.19-.98,.19-15.99,.01-31.98,0-47.97,0-.31,0-.63,.05-.93-.08-.08,0-.15,.01-.22,.04l-.03-.3h0c.26-1.86,.03-3.74,.12-5.6,.02-.5-.13-1.01,.11-1.5,0-.08,.01-.15,.03-.22,17.88,0,35.75,0,53.62,0,.59,0,1.18,.02,1.77,.02Z"/><path class="aa" d="M.47,237.89c.02,2.23,.03,4.46,.06,6.68,0,.25-.07,.36-.29,.41,0-1.95,0-3.91,.02-5.86,0-.42-.13-.87,.21-1.23Z"/><path class="i" d="M216.48,215.42c-2.74,0-4.97-2.18-4.99-4.9-.03-2.79,2.21-5.03,5-5.02,2.73,.01,4.94,2.23,4.94,4.96,0,2.73-2.21,4.95-4.94,4.96Z"/><path class="eb" d="M189.43,237.69c-.98-2.98-1.6-6.04-2.3-9.09-.19-.84-.33-1.69-.5-2.53,2.27,0,4.54-.02,6.8-.03,.23,0,.47-.03,.66,.17,0,3.49,0,6.98,0,10.48,0,1.14-.21,1.42-1.35,1.41-1.11,0-2.29,.34-3.31-.41Z"/><path class="e`" d="M189.43,237.69c1.14,0,2.28,0,3.42-.02,1.12-.01,1.13-.02,1.14-1.11,0-3.02,0-6.05,0-9.07,0-.43-.09-.86,.1-1.28,.03,.11,.08,.23,.08,.34-.01,6.17-.03,12.33-.04,18.5-.84,.12-1.67,.13-2.5-.02-.77-2.44-1.66-4.84-2.19-7.35Z"/><path class="an" d="M218.33,189.62c3.31-.14,6.61-.05,9.92-.05,3.78,0,7.56,.04,11.34,.04,16.86,.02,33.71,.04,50.57,.06,.27,0,.55-.03,.82-.04,.26-.14,.54-.09,.81-.09,6.27,0,12.55,0,18.82,0,.32,0,.72-.2,.95,.21-.41,.19-.85,.13-1.28,.13-30.2,0-60.4,0-90.61,0-.46,0-.96,.14-1.34-.26Z"/><path class="ch" d="M311.56,189.75c-.39-.02-.78-.06-1.17-.06-6.04,0-12.08-.01-18.12-.02-.43,0-.86-.03-1.29-.05,.33-.3,.74-.21,1.13-.21,12.34,0,24.68,0,37.02,0,.38,0,.8-.1,1.11,.25-2.74,.16-5.48,.05-8.22,.06-3.49,.01-6.97,.02-10.46,.03Z"/><path class="ba" d="M182.17,189.39c.29-.29,.66-.21,1.01-.21,11.73,0,23.46,0,35.19,0,.04,0,.08,.01,.13,.02-.02,.29-.28,.16-.41,.24-3.15,.14-6.3,.05-9.45,.05-5.59,0-11.18-.03-16.78-.05-3.23-.01-6.46-.04-9.68-.06Z"/><path class="ck" d="M330.44,54.69c-9.57-.01-19.14-.03-28.71-.04-.43,0-.86-.03-1.3-.05,.33-.3,.74-.21,1.13-.21,9.23,0,18.46,0,27.69,0,.41,0,.88-.16,1.19,.29Z"/><path class="dl" d="M217.95,155.87c-1.76,.28-3.54,.06-5.3,.12-.45,.01-.63-.24-.62-.67,0-.28,0-.55,0-.83,0-13.87,0-27.74,0-41.62,0-.2,0-.39,0-.59,.01-1.15,.01-1.16,1.18-1.16,12.3,0,24.6,0,36.9,0,4.69,0,9.38,0,14.07,0,.28,0,.55,.01,.83,0,.46-.02,.63,.22,.62,.65,0,.24,0,.47,0,.71,0,13.99,0,27.98,0,41.97,0,.04,0,.08,0,.12,0,1.42,0,1.42-1.41,1.42-15.02,0-30.04,.02-45.06,.03-.27,0-.55-.04-.82-.06,.3-.7,.94-.47,1.44-.47,3.98-.02,7.96-.01,11.93-.01,9.41,0,18.83,0,28.24,0,.55,0,1.11,.05,1.62-.21,.33-.2,.33-.49,.25-.83-.36-1.52-1.78-2.76-3.37-2.89-.94-.07-1.89-.03-2.84-.03-.83,0-1.55-.23-2.09-.9-.62-.78-1.45-.98-2.41-1-.96-.02-1.98,.28-2.86-.39-.49-1.08-.32-2.24-.46-3.36,0,0,0-.1,0-.1,0,0-.03,0-.03,.02-1.18,2.24-3.11,3.2-5.54,3.3-1.63,0-3.25,0-4.87,0-2.47-.09-4.28-1.27-5.57-3.35-.21,1.12-.27,2.27-.66,3.34-.06,.11-.14,.2-.23,.28-.2,.14-.43,.23-.66,.22-1.45-.07-2.69,.34-3.67,1.47-.35,.4-.91,.44-1.42,.46-.67,.03-1.34,.01-2,.02-2.71,.01-3.83,.84-4.63,3.43-.08,.36-.32,.64-.55,.92Z"/><path class="bj" d="M293.87,111.13c8.31,0,16.63,0,24.94,0,.28,0,.55,0,.83,0,.87,.04,.89,.06,.92,.97,0,.24,0,.47,0,.71,0,13.87,0,27.73,0,41.6,0,.24,0,.47,0,.71-.03,.85-.06,.87-.86,.91-.28,.01-.55,0-.83,0-10.72,0-21.44,.03-32.15,.03-6.11,0-12.22-.02-18.32-.03-.24,0-.47,0-.71,0-.45,0-.63-.24-.62-.67,0-.31,0-.63,0-.95,0-13.9,0-27.81,0-41.71,0-1.72-.09-1.57,1.63-1.57,8.39,0,16.79,0,25.18,0Z"/><path class="cc" d="M266.9,63.61c.33-.33,.75-.19,1.12-.19,17.02,0,34.03,0,51.05,0,.2,0,.39,0,.59,0,.43,0,.67,.18,.66,.63,0,.24,0,.47,0,.71,0,13.86,0,27.72,0,41.58,0,1.59,.13,1.49-1.44,1.49-.55,0-1.1-.02-1.65-.03-.31-.26-.45-.62-.55-1.01-.4-1.59-1.4-2.65-2.91-3.25-.48-.19-.93-.4-1.12-.94-.28-1.16-.11-2.34-.15-3.51-.04-1.32-.11-1.42-1.4-1.43-1.88-.02-3.76,0-5.64,0-.59,0-1.18,.03-1.71-.32-.44-.39-.33-.93-.37-1.43-.04-.21-.02-.43,.03-.64,.31-.51,.05-1.3,.8-1.59,.55-.12,1.1-.03,1.65-.03,1.63,0,1.68-.02,1.68-1.62,.01-3.7,0-7.4,0-11.1,0-2.64,.05-5.28-.02-7.91-.09-3.35-2.35-6.2-5.43-6.91-.15-.04-.31-.11-.46-.1-4.28,.17-8.56-.63-12.85-.06-1.86,.24-3.21,1.14-4.12,2.79-1.01,1.82-1.49,3.8-1.92,5.81-1.09,5-2.24,9.99-3.29,15-.1,.49-.35,.98-.09,1.49,.37,.38,.84,.38,1.31,.38,1.29,0,2.59,.01,3.88,0,.74,0,1.28,.26,1.65,.9,.58,1.01,1.38,1.92,1.49,3.15,.07,.28,.07,.55,0,.83-.18,.38-.18,.86-.58,1.12-.5,.28-1.05,.26-1.6,.27-1.6,0-3.21,0-4.81,0-2.77,0-2.47-.2-2.51,2.56-.01,.85,.15,1.73-.25,2.54-.34,.51-.96,.41-1.43,.63-1.8,.41-2.84,1.56-3.28,3.33-.1,.4-.07,.89-.57,1.09-1.65,0-3.31,.03-4.96,.02-.84,0-.85-.04-.88-.87,0-.16,0-.31,0-.47,0-13.78,0-27.56,0-41.34,0-.35,.02-.71,.04-1.06,.36-.56,.92-.34,1.4-.34,16.7-.01,33.4,0,50.1,0,.37,0,.73-.01,.94,0-.15,.08-.48,0-.79,0-16.86,0-33.71,0-50.57,0-.35,0-.71,.09-1.04-.11Z"/><path class="ap" d="M305.4,161.92c4.81,0,9.61,.01,14.42-.01,.54,0,.71,.19,.71,.67,0,.24,0,.47,0,.71,0,6.18,0,12.37,0,18.55,0,.24-.01,.47,0,.71,.02,.48-.19,.74-.69,.73-.24,0-.47,0-.71,0-9.14,0-18.28,0-27.42,0-.08,0-.16,0-.24,0-1.17-.02-1.18-.02-1.18-1.19,0-6.34,0-12.68,0-19.02,0-.12,0-.24,0-.35,.04-.78,.05-.78,.81-.78,2.29,0,4.57,.01,6.86,.01,2.48,0,4.96,0,7.45,0v-.03Z"/><path class="ed" d="M244.59,107.79h-.69c-.67-.82-.25-1.89-.65-2.77-.04-.55,.1-1.09,.05-1.64-.12-1.33,.14-2.54,.9-3.69,.66-.99,.87-2.17,.89-3.38,.01-.86-.12-1.73,.22-2.56,.34-.55,.92-.71,1.47-.9,8.99-3.2,14.75-11.62,14.41-21.15-.08-2.21-.54-4.37-1.28-6.47-.19-.54-.65-1.15,0-1.72,1.46-.03,2.92,0,4.38-.02,.54,0,.82,.16,.77,.74-.02,.2,0,.39,0,.59,0,13.95,0,27.9,0,41.84,0,.38,.11,.79-.12,1.15-3.72-.01-7.44-.02-11.16-.03-.55-1.13,.18-1.9,.87-2.54,1.04-.95,2.01-1.96,3.11-2.84,.83-.67,1.55-1.42,2.12-2.32,.66-1.32,1.46-2.56,2.11-3.92-.76-.33-1.11,.54-1.71,.37-.47-.34-.34-.83-.31-1.29,.11-1.8,.25-3.6,.47-5.38,.08-.65,.13-1.19-.79-1.15-.25,.01-.36-.27-.46-.48-.04-.07-.09-.14-.15-.19,0,0-.12,0-.12,0,0,0-.12,.02-.12,.03-.08,.05-.15,.1-.2,.17-.26,.43-.69,.6-1.14,.75-.56,.33-.61,1-.99,1.45-.07,.09-.15,.18-.23,.25-.36,.33-.54,.73-.65,1.21-.38,1.61-.86,3.19-1.29,4.78-.26,.97-.81,1.67-1.67,2.18-1.42,.85-2.77,1.79-4.15,2.7-1.56,1.04-2.51,2.44-2.96,4.24-.18,.71-.28,1.49-.92,1.99Z"/><path class="ed" d="M225.4,107.79l-13.66,.02c-.24-.36-.13-.77-.13-1.15,0-13.95,0-27.9,0-41.85q0-1.31,1.36-1.32c1.89,0,3.78,0,5.68,0,.41,0,.9-.13,1.09,.44,.12,.54-.15,1-.3,1.48-2.14,6.78-1.46,13.2,2.48,19.19,.3,.46,.67,.88,.81,1.43-.12,1.03-1.07,.74-1.65,1.06-3.52,.78-5.98,2.8-6.94,6.33-1.68,6.16,3.33,11.69,9.75,10.86,.31-.04,.62-.12,.93-.16,.25-.04,.5-.07,.75-.04,.13,.02,.25,.08,.36,.16,.42,1.27,.19,2.45-.53,3.56Z"/><path class="co" d="M312.98,102.89c2.82,.75,3.92,2.03,4.24,4.91-2.4,.02-4.8,.05-7.21,.05-12.22,0-24.44,0-36.66,0-.23,0-.47-.03-.7-.05,.26-2.68,1.37-4.13,3.61-4.74,1.59-.23,3.18-.27,4.78-.34,7.13-.34,14.27-.39,21.41-.34,.59,0,1.18,0,1.76,.07,2.49-.16,4.99-.05,7.49-.06,.49,0,.92,.14,1.27,.5Z"/><path class="al" d="M260.16,100.26c-.31,.9-1.04,1.45-1.7,2.05-1.13,1.03-2.26,2.05-3.41,3.05-.74,.65-1.19,1.44-1.27,2.43-3.06,.08-6.12,.05-9.18,0,.29-1.47,.78-2.87,1.34-4.25,.33-.8,.99-1.31,1.65-1.8,1.57-1.18,3.2-2.27,4.9-3.25,.82-.47,1.24-1.1,1.46-1.99,.39-1.6,.87-3.17,1.29-4.77,.16-.59,.37-1.12,.96-1.4,.28,1.41-.22,2.76-.31,4.15-.05,.8-.09,1.62-.22,2.16,.03-1.95,.73-4.08,.54-6.31,.15-.35,.31-.69,.43-1.05,.12-.36,.3-.61,.71-.63,.26-.09,.37,.1,.49,.26,.33,1.54-.17,3.03-.31,4.55,0,1.14-.21,2.26-.5,3.29,0-.09,.04-.23,.19-.32,.76,.18,.81,.88,.99,1.44,.09,.29,.18,.4,.46,.34,.5-.01,.99,0,1.4,.33,.48,.55,.07,1.15,.1,1.72Z"/><path class="dr" d="M219.48,64.3c.05-.39,.04-.71-.5-.71-2.21,0-4.41,0-6.62,0-.43,0-.67,.17-.66,.62,0,.24,0,.47,0,.71,0,13.94,0,27.88,0,41.82,0,.35,.03,.71,.04,1.06-.48-.31-.26-.79-.26-1.18-.02-3.07-.01-6.14-.01-9.22,0-10.87,0-21.74,0-32.61,0-1.43,0-1.43,1.4-1.43,13.95,.01,27.9,.03,41.84,.03,2.99,0,5.99-.02,8.98-.03,.28,0,.55,0,.83,0,.51-.01,.7,.25,.68,.73-.01,.24,0,.47,0,.71,0,13.9,0,27.81-.01,41.71,0,.43,.22,.95-.26,1.3,.02-.39,.05-.79,.05-1.18,0-13.83,0-27.66,0-41.5,0-1.66,.1-1.55-1.53-1.55-.95,0-1.89,0-2.84,0-.31,0-.64-.06-.86,.25-.55,.63-1.3,.48-1.98,.48-11.99,0-23.99,.02-35.98-.01-.77,0-1.55,.3-2.32,0Z"/><path class="al" d="M225.4,107.79c.01-1.01,.25-1.99,.38-2.98,.02-.19,.07-.38-.05-.55-.28-.39-.17-.81-.08-1.22,.23-.45,.11-.97,.26-1.44,.05-.12,.13-.22,.22-.31,1.02-.35,1.03,.63,1.32,1.1,1.16,1.87,2.78,2.95,4.98,3.09,1.29,.08,2.59,0,3.88,.03,.82,.02,1.65-.12,2.44,.25,.68,.53,3.39,.72,4,.29,.4-.28,.21-1.06,.92-1.06,.21,.92,.24,1.86,.25,2.8-2.63,.01-5.27,.04-7.9,.04-3.54,0-7.07-.02-10.61-.03Z"/><path class="bi" d="M266.9,63.61h52.8l.02,.23h-1.15c-16.66,0-33.32,0-49.99,0-.59,0-1.19-.09-1.73,.23l.04-.46Z"/><path class="ah" d="M217.95,155.87c.03-.25,0-.52,.16-.75,.9-.18,1.8,0,2.7,0,13.2-.02,26.39-.02,39.59,0,.68,0,1.55-.3,1.93,.66-.46,.17-.94,.09-1.4,.09-13.97,0-27.94,0-41.91,0-.23,0-.47-.07-.68,.07-.12-.03-.25-.06-.38-.09Z"/><path class="h" d="M.49,245.25c.49-.2,1.01-.11,1.52-.11,16.12,0,32.24,0,48.37,0-.13,.23-.34,.31-.59,.31-.31,0-.63,0-.94,0-15.62,0-31.24,0-46.86,0-.5,0-1.03,.15-1.49-.2Z"/><path class="eb" d="M396.65,237.39c1.32-4.17,1.83-8.43,1.75-12.8-.07-4.33,0-8.66-.04-12.98,0-.8,.23-1.21,.98-1.49,1.04-.39,2.07-.76,3.18-.85,3.65-.32,6.33,1.22,8.14,4.32,1.48,2.52,1.95,5.31,1.81,8.18-.25,5.31-2.1,10.04-5.49,14.15-.52,.64-1.07,1.26-1.73,1.76-.72,.34-1.48,.46-2.27,.45-1.64-.02-3.28,.02-4.92-.02-.57-.01-1.21,.03-1.41-.73Z"/><path class="ap" d="M396.65,237.39c.33,.39,.79,.28,1.21,.28,2.47,.01,4.93,.01,7.4,.02-2.8,2.64-5.99,4.25-10.13,3.68,.52-1.37,1.02-2.68,1.52-3.98Z"/><path class="al" d="M342.92,218.22c-.47-.39-.55-.83-.73-1.22-.58-1.25-1.08-2.54-1.73-3.75-.71-1.32-.63-2.56,.04-3.83,.47-.88,1.17-1.57,1.91-2.24,.35-.32,.62-.24,.87,.12,1.34,1.9,2.67,3.8,4.02,5.7,.29,.4,.21,.71-.12,1.03-1.41,1.37-2.81,2.76-4.26,4.18Z"/><path class="bj" d="M250.07,137.66c.06,1.64-.13,3.22-.96,4.67-1.07,1.87-2.65,3.08-4.76,3.56-.85,.19-1.71,.25-2.58,.24-1.61-.02-3.23,.01-4.84-.01-4.11-.05-6.94-3.03-7.26-6.4-.04-.39-.15-.77-.22-1.16-.72-1.18-.5-2.36,.09-3.48,.76-1.44,1.47-2.88,1.6-4.53,.08-.22,.13-.46,.27-.66,.13-.16,.34-.27,.5-.17,.59,.34,.85-.09,1.16-.43,.11-.02,.21,.01,.29,.09,.3,.67,.59,1.35,1.54,1.17,.57,.12,1.13,.02,1.67-.14,.13-.37-.35-.47-.34-.77-.02-.13,0-.27,0-.4-1.16-.65-2.37-.88-3.66-.5-.46,.14-.9,.29-1.32-.07-.07-.09-.12-.2-.15-.31,.25-1.15,.83-1.67,1.97-1.77,1-.08,1.93,.24,2.89,.46,.29,.07,.72,.21,.81-.18,.1-.43-.38-.43-.66-.48-1.7-.3-3.36-.36-4.69,1.04-.15,.16-.34,.18-.54,.13-.97-.8-.93-1.83-.62-2.88,.6-2.02,2.19-3.06,4-3.84,.75-.32,1.54-.56,2.23-1.02,.81-.05,.48,.89,.98,1.11,1.26,.3,2.15-.1,2.62-1.34,.11-.04,.22-.03,.33,0,.55,.49,.55,1.19,.62,1.83,.09,.91,.65,1.1,1.44,1.17,.85,.07,.93-.49,1.08-1.07,.22-.81,.09-1.74,.77-2.4,.12-.05,.23-.05,.35,0,.57,.73,.34,1.58,.35,2.39,0,.79,.24,1.17,1.1,1.3,3.4,.53,4.89,3.46,3.41,6.58-.76,1.6-1.67,3.11-2.49,4.68-1.13,2.16-1.45,4.3-.08,6.47,.08,.16,.2,.31,.15,.51,.08-.2-.06-.35-.14-.51-.59-.84-.63-1.75-.33-2.69,.57-1.78,1.6-3.3,2.67-4.8,.29-.4,.87-.77,1,0,.25,1.52,.52,3.09-.22,4.58Z"/><path class="cp" d="M231.31,128.42l.06,.24c.65,.57-.14,1.27,.17,1.86-.04,1.45-.46,2.78-1.26,3.98-.61,.92-.86,1.91-.76,3.01,.03,.35,.05,.71-.09,1.05-3.76-1.05-4.84-3.39-4.11-7.24,.34-1.79,1-3.47,1.75-5.13,.53-1.18,1.09-2.36,1.64-3.53,.42-.89,.76-1.8,1.09-2.73,1.45-4.06,4.3-6.6,8.6-7.11,4.53-.54,8.31,1.06,10.58,5.13,1.93,3.46,3.53,7.11,5.21,10.7,.6,1.28,.99,2.66,1.04,4.1,.07,2.17-.86,3.59-2.89,4.38-.73,.29-1.48,.53-2.29,.53,0-.78-.02-1.57-.03-2.35,0-.78,0-1.55-.1-2.36-1.06,1.58-2.27,3.06-2.89,4.88-.36,1.05-.23,2.09,.15,3.1-.08,.1-.16,.09-.22-.02-1.47-1.51-1.74-3.26-1.08-5.22,.41-1.23,1.03-2.37,1.66-3.5,.65-1.17,1.41-2.28,1.83-3.55,.74-2.27-.16-5.2-3.25-5.42-.46-.03-.93,0-1.48,0-.05-1.37,.09-2.7-.08-4.02-.07-.09-.08-.2-.1-.31,.01,.11,0,.22-.07,.31-.2,1.04-.42,2.08-.6,3.13-.09,.54-.28,.88-.92,.75-.65-.13-1.48,.17-1.94-.24-.46-.41-.31-1.25-.4-1.9-.06-.43-.15-.85-.23-1.28-.17-.28-.05-.59-.1-.86-.02,.27,.08,.58-.08,.86-.15,.52,.14,1.22-.33,1.54-.37,.25-.97,.16-1.48,.21-.43,.04-.85,.07-1.28,.11-.25-1.12-.29-2.24-.14-3.37,0-.08,.02-.16,0-.23-.05-.13,.12-.25-.02-.37,.01,.14,.03,.28,.02,.43-.06,.65,0,1.32-.33,1.93,.05,.56-.3,.74-.76,.85-1.2,.29-2.29,.81-3.29,1.52-.61,.44-1.15,.96-1.53,1.61-.69,1.18-.71,2.38-.05,3.59,.42,.2,.21,.64,.36,.94Z"/><path class="cp" d="M262.32,155.79c-.46-.34-.99-.19-1.49-.19-13.71,0-27.41,0-41.12,0-.58,0-1.2,.09-1.61-.47,.24-2.34,1.96-4,4.26-4.09,1.06-.04,2.13-.02,3.19-.01,.41,0,.76-.02,1.01-.43,.66-1.09,1.66-1.49,2.91-1.4,.47,.03,.94-.02,1.41-.03,.47-.39,1.04-.29,1.58-.3,3.4-.02,6.8,.2,10.21,.11,1.39-.12,2.77-.33,4.18-.25,.55,.03,1.09,.03,1.53,.43,.98,.01,1.97,.07,2.95,.03,1.12-.04,2.03,.32,2.62,1.27,.3,.48,.67,.58,1.17,.57,.98-.02,1.97,0,2.95,0,2.57-.03,4.37,2.35,4.41,4.62,0,.05-.1,.09-.16,.14Z"/><path class="j" d="M248.38,149.16c-1.89,.06-3.78,.06-5.67,0-.19-.07-.31-.17-.22-.4,2.37-.26,4.16-1.36,5.19-3.56,.27-.15,.34,.1,.46,.24,.08,1.24,.38,2.47,.24,3.72Z"/><path class="j" d="M230.92,148.96c.1-1.44,.39-2.84,.67-4.54,1.11,2.63,2.88,4,5.42,4.33,.03,.18-.06,.33-.24,.32-1.95-.05-3.91,.18-5.86-.11Z"/><path class="cq" d="M230.92,148.96c1.7,0,3.41,.01,5.11,.01,.34,0,.7,.07,.99-.22,1.82,0,3.65,0,5.47,0l.22,.4c-3.94,.08-7.88,.08-11.82,0,0-.07,.01-.13,.03-.2Z"/><path class="ce" d="M248.14,145.43l-.46-.24c.04-.21,.04-.56,.32-.47,.28,.09,.11,.46,.14,.71Z"/><path class="eb" d="M285.77,142.59c-.64-.31-.9-.98-1.3-1.5-.38-.49-.74-.79-1.4-.93-2.53-.56-4.27-2.12-4.8-4.65-.52-2.46,.09-4.7,2.18-6.34,.6-.47,.63-.51,.08-1.15-1.59-1.85-1.32-4.73,.54-6.23,.7-.57,1.47-.9,2.36-.97,.24-.02,.48-.04,.71,0,1.46,.2,2.65-.14,3.62-1.38,.65-.83,1.73-1.07,2.73-1.31,.8-.2,1.62-.37,2.45-.34,2.36,.07,4.73-.19,7.08,.21,1.9,.32,3.67,.91,4.95,2.47,.29,.35,.64,.39,1.05,.41,.9,.04,1.81-.08,2.71,.11,3.61,.75,4.94,4.57,2.54,7.36-.1,.12-.2,.23-.3,.35,.03,.44,.4,.59,.66,.79,1.9,1.5,2.95,4.44,1.74,7.27-.28,.67-.65,1.25-1.35,1.56-.17,.57-.5,.99-1.1,1.13-.84-.22-.71-.94-.73-1.53-.05-1.6,.04-3.21-.23-4.81-.07-.44-.07-.86-.71-.83-.67,.02-.67-.68-1.01-1.02-.3-.42-.03-.83,0-1.24-.09-.37-.46-.3-.7-.42-.45-.17-.92-.08-1.39-.1-1.12-.02-2.24,.05-3.36-.04-3.97-2.1-6.64-5.15-7.1-9.77,.67,3-2.8,8.01-6.79,9.77-.95,.08-1.9,.03-2.85,.04-.5,0-1.01-.03-1.52,.01-.45,.04-.88,.14-.79,.76,.02,.15,.07,.29,.12,.43,.05,.14,.09,.29,.12,.44,.05,.15,.1,.3,.13,.45,.02,.11,.02,.22,.01,.32-.01,.11-.05,.21-.09,.32-1.33,1.29-.96,2.61-.06,3.93,.3,.29,.6,.25,.91,.01,.27-.21,.56-.41,.93-.18,.28,.26,.39,.6,.4,.95,.07,1.59,.07,3.19,0,4.78-.01,.35-.12,.69-.43,.92Z"/><path class="dl" d="M285.77,142.59c-.02-1.92-.04-3.84-.07-5.76,0-.32,.17-.74-.37-.85-.72-.55-1.27-.28-1.74,.37-.32-.28-.19-.71-.42-1.06-.87-1.38-.62-2.3,.75-3.26,.02-.14,.1-.18,.23-.14,.9,.95,1.26,2.24,2.04,3.28,.98,1.32,2.2,2.2,3.8,2.56,.54,0,1.08,.03,1.61-.02,1.64-.62,2.74-2.12,2.8-3.81,0-.31,0-.62,.01-.94,.07-1.03,.66-1.65,1.59-1.67,.91-.02,1.32,.41,1.47,1.56,0,.42,0,.84,0,1.25,.34,1.72,1.1,3.1,2.94,3.6,.51,.05,1.03,.03,1.54,.02,1.16,0,1.9-1.09,3.02-1.18,.08,.03,.19,.07,.19,.13,.02,2.01,.29,4.1-1.32,5.69-1.33,1.32-2.78,2.51-4.1,3.86-.7,.72-1.25,1.5-1.42,2.51-.19,.4-.54,.6-.95,.61-2.16,.06-4.35,.36-6.44-.38-1.53-.54-3.04-1.17-3.74-2.83-.02-.12,0-.26-.07-.34-.68-.97-1.06-2.07-1.36-3.2Z"/><path class="dl" d="M308.35,131.01c.85-.13,.44,.63,.67,.95,.12,.1,.2,0,.28-.07,.26-.22,.52-.57,.9-.36,.32,.17,.18,.56,.19,.86,.1,1.95,.17,3.91,.28,5.86,.02,.35-.19,.82,.35,1,.51,.85,.21,1.74,.17,2.62-.02,.47-.31,.9-.17,1.38-.16,.67-.57,1.19-1.02,1.7-1.04,1.18-2.02,2.41-3.07,3.58-.98,1.1-.94,2.46-1.05,3.77-.09,1.12-.02,2.26-.02,3.5h-7.81c-.68-.93-.23-1.99-.36-2.98-.02-1.4-.22-2.82,.47-4.14,.29-1.98,1.9-3.01,3.17-4.24,.87-.84,1.78-1.65,2.71-2.44,.27-.22,.58-.45,.6-.84,.11-1.59,.64-3.15,.47-4.77-.05-.48,.14-.93,.25-1.38,.07-.27,.28-.51,.59-.47,.35,.05,.35,.38,.35,.65,.02,1.22,0,2.43,.01,3.65,0,.51,0,1.02,0,1.51-.01-.58,0-1.13,0-1.69-.04-1.53,.1-3.06-.1-4.59-.04-.31-.03-.63,.05-.94,.09-.4,.26-.8,.73-.8,.57,0,.48,.51,.51,.88,.04,.51-.05,1.02,.09,1.52,.02,1.89,.1,3.78,.16,5.12-.1-1.83-.12-4.21-.24-6.59,.04-.47-.08-.93-.08-1.4,0-.14,.04-.27,.09-.39,.17-.32,.43-.5,.81-.48Z"/><path class="dl" d="M285.97,155.59c.38-2.41,.77-4.82,1.14-7.24,.08-.5,.09-1.01,.13-1.51,.55,.06,.62,.55,.79,.91,1.07,2.27,2.96,3.23,5.36,3.37,.98,.06,1.96-.01,2.93,.03,.54,.02,1.12-.03,1.46,.55,0,1.37,.28,2.74-.17,4.09-3.86,0-7.73,.02-11.59,.03-.09-.03-.13-.08-.11-.14,.02-.06,.04-.09,.07-.09Z"/><path class="cd" d="M297.58,151.58c-1.22,0-2.43,0-3.65,0-3.58,0-5.58-1.42-6.69-4.73-.01-.24-.03-.47-.04-.71,.92,.73,1.76,1.57,2.86,2.04,1.09,.48,2.21,.8,3.42,.79,1.22-.01,2.44,0,3.66,0,.39,0,.82,.07,.95-.46,.08-.08,.17-.08,.25,0-.02,1.42-.37,2.81-.28,4.23-.72-.16-.05-.88-.47-1.16Z"/><path class="dg" d="M311.03,143.26c-.31-1.33-.31-2.67,0-4,.23-.43,.49-.82,1-.96,.26,.07,.55-.08,.89,.16-.49,1.63-1.24,3.2-1.88,4.8Z"/><path class="dq" d="M285.97,155.59c.02,.08,.03,.15,.05,.23-6.13,0-12.25,0-18.38,0v-.23h18.33Z"/><path class="ar" d="M297.58,151.58c.44,.27,.09,.86,.47,1.16,0,1.02,.02,2.05,.03,3.07-.16,0-.31-.01-.47-.02,0-1.4-.02-2.81-.03-4.21Z"/><path class="co" d="M278.7,91.57c-.18-.39-.01-.77,.07-1.15,1.31-5.96,2.61-11.91,3.94-17.86,.36-1.62,.97-3.16,1.86-4.57,.95-1.5,2.32-2.29,4.07-2.51,1.69-.21,3.39-.18,5.07-.12,2.13,.08,4.26,.12,6.38,.06,4.4-.13,7.93,3.44,7.89,7.92-.05,6.54-.01,13.07-.01,19.61,0,1.09,0,1.12-1.1,1.1-.9-.02-1.81,.16-2.69-.18-.67-.08-1.14-.47-1.54-.99-1.38-1.82-1.96-3.82-1.49-6.1,.33-1.6,1-3.06,1.82-4.46,.52-.89,.77-1.8,.34-2.8-.19-.28-.46-.42-.83-.46-.22,.36,.03,.77-.11,1.13-.03,.11-.07,.22-.12,.32-.08,.16-.19,.29-.32,.42-.54,.51-1.14,.54-1.79,.27-.79-.26-.85-1.2-1.52-1.58-.13-.11-.21-.25-.23-.42,.24-1.14,1.37-1.29,2.23-1.98-1.01,0-1.88,.09-2.75,0-1.06-.11-1.57-.75-1.44-1.74q.17-1.23-1.02-2.08c-.13,1.17-.34,2.27-1.06,3.2-.19,.25-.35,.56-.63,.69-1.07,.5-1.52,1.22-.99,2.36-.06,.09-.15,.16-.25,.19-.96-.27-.84,.86-1.42,1.1-.26,.16-.55,.26-.86,.27-.71-.01-1.21-.38-1.56-.97-.17-.38-.19-.78-.12-1.17,0-.11-.01-.21-.18-.19-.35,.09-.69,.18-1.05,.1-.75-.29-1.54-.25-2.33-.3-1.01-.05-1.31,.5-1.34,1.36-.02,.75,.24,1.48,.21,2.23,0,.12-.03,.23-.06,.34-.04,.11-.09,.21-.14,.31-.76,1.33-.57,1.78,.89,2.08,.27,.06,.54,.1,.76,.28,.36,.36,.44,.82,.45,1.3,.03,1.33,0,2.66,.01,3.98,0,.75-.23,1.13-1.09,1.09-1.99-.09-3.98,.06-5.97-.08Z"/><path class="cd" d="M278.7,91.57c1.92-.02,3.84-.03,5.75-.05,.88-.01,.85-.02,.83-.89-.03-1.45-.02-2.9-.04-4.35,0-.38,.09-.81-.43-.97-.06-.2,.04-.37,.11-.55,.43-1.09,.32-1.37-.75-1.86-.21-.1-.44-.16-.55-.38-.37-1.2-.55-2.42-.24-3.67,.09-.34,.21-.59,.59-.59,.9,0,1.79,0,2.69,0,.37,0,.52,.3,.74,.52,.75,.22,.96,1,1.51,1.43,.39,.34,.74,.75,1.34,.72,.49,.13,.9-.07,1.32-.28,.26-.11,.54-.16,.8-.29,.06-.05,.12-.1,.17-.17,.02-.08,.05-.15,.07-.23,.02-.08,.05-.16,.09-.23-.13-.66-.77-.97-1.13-1.58,1.06-.51,2.09-1.04,2.72-2.1,.63-1.07,.71-2.22,.69-3.53,.94,.48,1.47,1.28,2.22,1.79,.19,.13,.05,.35-.07,.52-.13,.19-.27,.39-.35,.61-.25,.71,.15,1.39,.92,1.43,.82,.04,1.66,.03,2.47-.08,.58-.08,.98,.06,1.39,.59-1.12,.47-2.32,.8-3.01,1.88-.13,.33-.02,.66,.06,.98,.42,.56,1.02,.67,1.66,.71,.56,.2,1.08,.18,1.52-.27,.11-.08,.21-.16,.29-.27v.02c.47-.4,.48-1.35,1.42-1.23,.8,.71,.54,1.58,.32,2.4-.11,.41-.38,.77-.6,1.14-.73,1.22-1.32,2.5-1.61,3.91-.59,2.84,.2,5.19,2.45,7.04,.06,.05,.09,.13,.13,.19-.42,.41-.05,1.04-.41,1.47-.2,0-.4,0-.56,.12-1.81,1.35-3.89,1.56-6.06,1.47-1.18-.05-2.36-.05-3.54,0-1.96,.08-3.85-.14-5.56-1.19-.21-.13-.43-.18-.68-.16-.13-1.4-1.32-2.27-1.77-3.51-.15-.41-.58-.33-.93-.33-1.61,0-3.22,0-4.84,0-.38,0-.79,.11-1.14-.15Z"/><path class="cd" d="M304.23,102.86c-2.04,.02-4.09,.04-6.13,.04-2.4,0-4.8-.01-7.2,0-4.4,.03-8.8,.26-13.21,.18-.47,0-.94-.01-1.41-.02,.44-.34,.97-.14,1.45-.23,.47-.45,1.07-.43,1.66-.43,1.69-.01,3.37-.04,5.06,0,1.01,.03,1.46-.33,1.65-1.36,.24-1.32,.1-2.77,1.05-3.91,.08-.3,.01-.65,.27-.9,.66-.03,.8,.55,1.06,.95,1.15,1.75,2.8,2.59,4.85,2.65,1.49,.04,2.98,.02,4.48,0,2.35-.02,4-1.18,5.13-3.18,.2-.35,.22-.88,.8-.89l.04,1.38c.76,1.85,1.26,3.73,.47,5.71Z"/><path class="al" d="M303.72,95.77c-.35,1-.75,1.94-1.57,2.69-1.27,1.17-2.69,1.85-4.44,1.81-1.37-.03-2.75,0-4.12,0-2.74,.01-4.72-1.19-5.93-3.65-.07-.14-.17-.26-.25-.39l-.03-.67c.07-.32,.02-.83,.59-.45,.56,.38,1.13,.72,1.76,.95,.7,.26,1.42,.42,2.18,.41,2.24-.02,4.48-.03,6.72,0,1.59,.02,3.02-.4,4.27-1.4,.09-.07,.19-.15,.29-.21,.59-.37,.51,.15,.59,.45l-.06,.44Z"/><path class="ed" d="M287.14,97.14c-.24,1.62-.46,3.25-.74,4.87-.13,.78-.26,.85-1.13,.85-2.51,0-5.03-.01-7.54-.02,0-1.45,.01-2.9,.02-4.35,0-1.31,0-1.31,1.27-1.32,2.71-.01,5.41-.02,8.12-.03Z"/><path class="ed" d="M304.23,102.86c.04-1.49-.22-2.95-.41-4.42-.05-.42-.04-.86-.06-1.29,2.59,0,5.17,0,7.76,0q1.44,0,1.45,1.5c0,1.41,0,2.82,.02,4.23-2.92,.06-5.84,.12-8.76-.03Z"/><path class="bj" d="M219.48,64.3c.51-.52,1.17-.46,1.81-.46,12.82,0,25.65,0,38.47,0,.88,1.69,1.3,3.53,1.61,5.39,.59,3.6,.27,7.14-.98,10.55-2.6,7.08-7.54,11.71-14.78,13.85-.58-.46-.47-1.05-.34-1.65,.04-.12,.1-.23,.18-.33,1.33-.72,2.54-1.52,2.84-3.2,.26-1.45-.17-2.68-1.5-3.35-.77-.38-.87-1.05-1.07-1.71-.06-.27-.08-.55-.09-.82-.08-1.98,.12-2.21,2.12-2.38,3.8-.32,6.72-3.72,6.62-7.71-.1-3.77-3.29-6.94-7.07-7.03-3.19-.08-5.5,1.33-7.03,4.1-.79,1.43-.8,1.45-2.4,1.16-4.16-.75-7.77,.2-10.78,3.3-1.85,1.9-2.31,4.21-2.4,6.7-.05,1.37,.21,2.75-.21,4.1-.59,.49-1.08,1.13-1.9,1.26-1.24-1.21-1.99-2.73-2.73-4.25-1.78-3.68-2.29-7.6-1.92-11.63,.19-2.03,.59-4.05,1.56-5.9Z"/><path class="al" d="M245.55,91.76c.02,.62,.03,1.24,.05,1.87-.02,.9-.04,1.81-.04,2.71,0,1.54-.39,2.97-1.32,4.2-.49,.64-.65,1.32-.62,2.09,.03,.79,.03,1.57,.05,2.36-.23,.21-.25,.48-.23,.76,.05,.65-.23,.92-.89,.9-.94-.03-1.88-.01-2.83,0-.52,0-.95-.09-1.02-.72,.04-.08,.1-.15,.17-.2,.15-.1,.32-.16,.48-.22,.08-.04,.16-.06,.24-.09,.16-.05,.31-.09,.47-.13,.07-.02,.14-.02,.2-.02,.06,0,.12,0,.17,.02,0,0,.07-.04,.07-.04,0,0,.02-.08,.02-.09,.04-.06,.08-.11,.14-.15,.05-.05,.11-.1,.17-.14,.06-.05,.12-.09,.18-.14,.06-.05,.12-.09,.19-.13,.06-.04,.13-.08,.19-.12,.06-.04,.12-.08,.18-.12l.09-.07c.05-.05,.11-.1,.17-.14l.08-.08c.05-.06,.1-.11,.16-.16l.08-.08c.05-.06,.11-.12,.16-.17,.03-.03,.05-.06,.08-.09,.05-.07,.1-.13,.16-.2,.03-.04,.06-.07,.08-.1,.09-.11,.19-.2,.33-.25,.1,0,.19,.03,.26,.09-.16-.02,.1-.05,.05,.1s.04,.18,.01,.02c-.05-.24-.15-.44-.37-.57-3.79,2.14-7.91,1.23-11.9,1.19-1.62-.01-3.11-.86-4.07-2.31-.21-.32-.54-.43-.8-.66-.09-.09-.16-.19-.23-.3-.12-.22-.25-.44-.37-.66-1.16-2.58-1.33-5.24-.62-7.95,.24-.9,.26-1.81,.09-2.69-.22-1.13-.23-2.27-.19-3.4,.05-1.55,1.19-2.24,2.62-1.63,1.36,.58,2.72,.77,4.15,.36,.3-.08,.69-.15,.71-.52,.01-.4-.41-.43-.7-.5-1.05-.26-2.1-.19-3.17-.01-1.16,.19-1.46-.14-1.18-1.28,.56-2.22,1.58-3.97,4.22-4.04,.67-.02,1.05-.48,1.33-1.03,.25-.49,.39-1.03,.6-1.54,.35-.9,.86-1.59,1.95-1.62,1.12-.03,2,.34,2.58,1.34,.3,.52,.46,1.09,.64,1.65,.28,.88,.82,1.4,1.77,1.49,2.3,.21,2.83,1.99,2.94,3.77,.05,.79-.41,1.12-1.18,1.11-.9,0-1.82-.12-2.7,.17-.28,.1-.68,.15-.62,.57,.04,.31,.38,.38,.64,.44,.93,.22,1.85,.27,2.81,.1,2.25-.4,3.51,.72,3.2,2.94-.2,1.4,.16,2.73,.12,4.09Z"/><path class="di" d="M257.63,88.95l-.29-.3c.6-.02,.88-.49,1.22-.87,.18,.16,.15-.05,.2-.11l.28-.14c.08,.06,.15,.05,.22-.02,.41,.22,.09,.67,.34,1.01,.38-.05,.69-.48,1.24-.3,.2,.33,.08,.77,.05,1.17-.19,2.14-.41,4.28-.62,6.43-.02,.23-.06,.47,.15,.65,.27,.45,.11,.81-.24,1.14-.49,.26-.96,.25-1.42-.07-.47-1.27,.03-2.52,.05-3.78,.03-1.44,.36-2.86,.45-4.29-.01-.14-.04-.28-.14-.38,0,0-.06-.06-.06-.06,0,0-.09,0-.09,0,.17,.06,.24,.19,.27,.35,.02,.34,.04,.68-.03,1.02-.36,.68-.78,.8-1.29,.15-.06-.16-.07-.33-.07-.49,0-.23,.14-.45,.05-.68-.07-.15-.14-.3-.28-.41Z"/><path class="u" d="M260.12,97.44c.1-.33,.2-.65,.3-.98,.41-.47,.8-.97,1.53-.95,.66,.02,.8,.18,.48,.75-.74,1.34-1.51,2.66-2.27,3.99-.38-.51-.11-1.08-.15-1.63-.31-.43-.15-.82,.11-1.19Z"/><path class="al" d="M258.76,87.67s.03,.07,.04,.11c.06,.17,.2,.43-.07,.45-.25,.02-.14-.28-.18-.45,.06-.06,.12-.09,.2-.11Z"/><path class="al" d="M259.27,87.51c-.07,.1-.14,.12-.22,.02,.07-.03,.15-.04,.22-.02Z"/><path class="cp" d="M245.55,91.76c-.62-1.06-.72-2.22-.62-3.42,.04-.43,.11-.86,.12-1.29,0-1.57-.86-2.27-2.43-1.94-1.06,.22-2.11,.23-3.16,0-.19-.04-.39-.07-.57-.15-.39-.17-.89-.27-.9-.81-.02-.6,.51-.74,.94-.9,1.07-.4,2.18-.27,3.28-.24,.71,.02,.78-.01,.7-.66-.06-.55-.15-1.1-.3-1.62-.34-1.17-.97-1.65-2.22-1.77-1.5-.15-1.86-.43-2.29-1.92-.16-.57-.3-1.15-.62-1.65-.54-.84-1.96-1.26-2.84-.84-.35,.17-.52,.48-.65,.81-.23,.58-.42,1.19-.63,1.78-.44,1.22-.9,1.6-2.15,1.61-1.53,.02-2.53,.75-3.05,2.16-.28,.77-.5,1.55-.82,2.55,1.23-.46,2.31-.53,3.4-.47,.67,.04,1.34,.13,1.92,.49,.64,.4,.62,.87-.03,1.26-.85,.5-1.82,.58-2.75,.55-.96-.03-1.95-.15-2.8-.77-.64-.47-1.79,.12-1.84,.93-.05,1.02-.07,2.06,.05,3.07,.18,1.46,.06,2.86-.14,4.32-.31,2.25-.37,4.56,.66,6.73,.07,.14,.1,.3,.15,.45-.16,1.03,.07,2.07,0,3.1,.02,.4-.03,.79-.22,1.15l-.33,.07c-.11,.06-.26,.05-.36,.14-3.15,.77-6.06,.28-8.51-1.9-2.81-2.5-3.8-5.68-2.78-9.3,1.02-3.61,3.49-5.79,7.2-6.52,1.51-.19,1.5-.19,1.65,1.33,.12,1.21,.58,2.24,1.79,3.12-.12-1.59-.31-2.96-.44-4.34-.07-.7-.21-1.41,.29-2.03,.01-2.24,0-4.49,.26-6.72,.05-.4,.1-.78,.26-1.14,1.62-3.82,4.46-6.1,8.57-6.76,1.77-.29,3.54-.26,5.27,.23,.61,.17,.84,.03,1.1-.58,1.71-3.97,5.89-5.84,9.84-4.48,3.61,1.25,5.81,4.92,5.21,8.68-.6,3.76-3.82,6.54-7.65,6.62-.34,0-.7-.12-.99,.05v2.84c.46,2.15,.54,4.31,.18,6.49-.11,.64-.26,1.21-.71,1.69l-.02,.02Z"/><path class="bq" d="M224.22,84.84c.13,2.3,.39,4.58,.69,6.93-.49,.09-.84-.13-1.17-.4-1.05-.89-1.56-2.04-1.6-3.39-.04-1.19-.01-1.19-1.21-1.22,.28-.23,.63-.21,.96-.22,.33-.01,.58-.11,.67-.46,.43-.58,.88-1.13,1.66-1.23Z"/><path class="al" d="M225.03,104.48c.09-.14,.2-.19,.36-.14-.09,.14-.21,.18-.36,.14Z"/><path class="dd" d="M256.2,90.33c.17,.03,.33,.1,.31,.28-.26,2.45-.41,4.92-.92,7.33,0,.01-.07,.01-.25,.03,.19-2.58,.52-5.11,.85-7.64h0Z"/><path class="dt" d="M257.63,88.95c.19-.01,.37,.03,.49,.2,.16,.24,.13,.48-.03,.71l-.02,.45c.28,1.07,.15,2.13,0,3.19-.06,.42-.08,.86-.5,1.12-.61-.12-.11-.7-.39-.96,.13-1.57,.42-3.12,.46-4.7Z"/><path class="d`" d="M260.12,97.44c.06,.41,.04,.8-.11,1.19-.54-.01-1.08-.03-1.62-.04-.35-.44-.32-.86,.05-1.27,.13-.05,.27-.05,.4,0l1.27,.12Z"/><path class="p" d="M257.17,93.66c.28,.28,.18,.64,.23,.97,.41,.37,.39,.84,.31,1.33-.06,.2-.15,.38-.35,.49-.41,.49,0,1.23-.43,1.71l-.27-.04,.5-4.47Z"/><path class="di" d="M257.37,96.45l.02-.44c.54-.07,.74,.39,1.05,.68,.11,.2,.14,.41,.03,.63-.2,.41-.18,.84-.08,1.27-.19-.03-.38-.07-.57-.1-.12-.02-.29-.12-.25-.17,.74-.72-.34-1.23-.21-1.87Z"/><path class="ds" d="M225.94,103.11c-.37-.73-.19-1.56-.43-2.33-.09-.27,.17-.58,.43-.78,.16,.11,.23,.26,.24,.45h0c.77,.78,1.5,1.61,2.46,2.17,1,.58,2.06,.95,3.23,.95,1.84,0,3.69-.05,5.53,.02,2.03,.08,3.9-.3,5.52-1.59,.49-.39,.48-.05,.48,.3-.11,.28-.08,.64-.43,.79h0c-.16,.12-.1,.35-.26,.46h.01c-.07,.08-.15,.16-.24,.24h0c-.07,.08-.15,.16-.24,.24h0c-.08,.08-.16,.16-.24,.24h0c-.08,.08-.16,.16-.25,.23h0c-.08,.1-.17,.18-.3,.22-.07,0-.13,.02-.18,.06-.08,.06-.16,.13-.23,.2h0c-.12,.14-.35,.09-.46,.24h0c-.06,.13-.18,.18-.3,.21-.06,0-.12,0-.18,.04-.14,.14-.35,.09-.49,.21-.08,0-.15,0-.22,.03-.15,.12-.36,.09-.51,.2h-.19c-1.96,.02-3.93,.07-5.89,.03-2.86-.06-4.92-1.38-6.07-4.04-.09-.22-.01-.76-.55-.43-.24,.05-.04,.14-.02,.21-.02,.48,.08,.99-.22,1.43Z"/><path class="cp" d="M226.16,101.68c-.09-.06-.18-.12-.15-.26l.17,.05c0,.07,0,.14-.02,.21Z"/><path class="au" d="M236.14,137.96c.74-.32,1.21-.71,1.59-1.23,.28-.38,.65-.55,1.13-.35,.41,.17,.82,.2,1.24-.03,.54-.29,.98-.09,1.34,.35,.37,.45,.65,.96,1.19,1.27,.37,.21,.08,.46-.09,.66-1.3,1.56-3.23,1.82-4.94,.7-.53-.35-.95-.8-1.45-1.38Z"/><path class="cr" d="M231.31,128.42c-.24-.27-.25-.62-.36-.94,.1-.05,.25-.08,.3-.17,1.04-1.53,2.59-1.59,4.2-1.48,.43,.03,.85,.13,1.27,.23,.45,.1,.84,.28,.76,.85-.07,.45-.54,.8-1.05,.73-.35-.05-.68-.18-1.02-.28-.83-.24-1.66-.47-2.54-.38-.91,.09-1.32,.47-1.57,1.44Z"/><path class="ax" d="M248.71,128.01c-1.24-1.4-2.69-1.18-4.2-.65-.29,.1-.61,.14-.91,.23-.33,.1-.62,.02-.9-.14-.3-.16-.47-.41-.43-.76,.03-.32,.27-.49,.54-.56,1.46-.37,2.93-.54,4.38,.03,.68,.26,1.06,.73,1.52,1.84Z"/><path class="aq" d="M231.55,130.53c-.15-.61-.17-1.24-.17-1.86,.23-.02,.5,.03,.69-.07,1.7-.92,3.25-.11,4.83,.37,.15,.05,.28,.19,.18,.36-.14,.23-.34,.08-.51,.02-.53-.09-1.05-.26-1.56-.4-.22-.16-.45-.26-.75-.12-.13,.02,.07,.17,.03,.02-.02-.07,.08-.1,.17-.09,.15,.01,.31,0,.44,.11,.45,.29,1.12,.16,1.44,.72,.3,.23,.62,.44,.89,.7,.26,.26-.02,.37-.21,.48-.61-.3-1.21-.59-1.92-.43-.46-.57-1.2-.65-1.78-1.01l-.1,.02c-.55,.04-1.07,.17-1.55,.46l-.11,.71Z"/><path class="ee" d="M242.95,130.53c-.35-.04-.41-.22-.16-.44,.44-.38,.92-.72,1.4-1.1-.51-.27-.86,.4-1.34,.18,.76-1.22,3.96-1.43,5.89-.38-.16,.3-.43,0-.61,.11-.39,.47-.96,.3-1.46,.42-.68,.08-1.36,.16-1.97,.5-.45,.16-.82,.49-1.27,.65-.1,.03-.21,.04-.32,.05h-.16Z"/><path class="dw" d="M244.58,129.57c.57-.43,1.2-.62,1.91-.49,.55,.35,.66,.75,.15,1.23-.5,.61-1.08,.67-1.73,.26-.52-.2-.59-.54-.33-1Z"/><path class="cm" d="M233.3,129.33c1.15-.22,1.6-.02,1.92,.84,.09,.34-.07,.53-.38,.64-1.33,.43-1.8-.03-1.54-1.48Z"/><path class="da" d="M237.59,133.6c.4-.51,.9-.59,1.42-.3,.5,.28,.93,.33,1.41-.04,.14-.11,.37-.12,.56-.11,.31,.01,.72,.04,.65,.47-.05,.3-.37,.18-.59,.11-.2-.06-.39-.06-.57,.05-.56,.36-1.1,.37-1.63-.06-.38-.31-.82,.34-1.26-.13Z"/><path class="ak" d="M246.64,130.3c.14-.43,.15-.85-.15-1.23,.51-.4,1.09-.13,1.64-.16,.17,.2,.24,.39,0,.6-.44,.38-.87,.77-1.5,.8Z"/><path class="de" d="M234.84,130.81c.13-.21,.25-.42,.38-.63,.16-.2,.19-.65,.64-.33,.4,.29,.89,.47,1.15,.92-.72,.03-1.44,.55-2.17,.04Z"/><path class="cn" d="M231.65,129.81c-.03-.22-.16-.52,.12-.59,.47-.11,1-.39,1.43,.13-.31,.28-.13,.71-.29,1.04-.52-.06-.85-.4-1.26-.58Z"/><path class="bk" d="M244.58,129.57c0,.37,.08,.71,.33,1-.66,.38-1.31,.32-1.96-.03h0c.08-.08,.15-.16,.22-.24,.45-.28,.82-.71,1.41-.72Z"/><path class="ct" d="M236.59,119.91c-.12-.73,.2-1.42,.23-2.14,.06-.13,.13-.14,.19,0,.02,1.25,.03,2.5,.05,3.75-.36-.1-.26-.4-.29-.65-.03-.33,.09-.68-.19-.96Z"/><path class="db" d="M236.33,129.58c-.46-.26-1.06-.25-1.42-.71h0c.6-.02,1.17,.1,1.66,.47l-.24,.24Z"/><path class="a`" d="M240.14,119.67c-.06-.23-.06-.45,.08-.73,.14,.26,.15,.49,.09,.73h-.17Z"/><path class="ao" d="M246.98,140.91c.08,0,.15,0,.22,.02,.12,.02,.2,.09,.17,.21,0,.04-.11,.09-.15,.07-.15-.04-.23-.15-.24-.31Z"/><path class="g" d="M244.41,119.21c-.02-.13-.1-.32,.13-.31,.09,0,.09,.19,.04,.3h-.17Z"/><path class="bc" d="M237.01,117.77h-.19c-.02-.18-.05-.36,.1-.52,.16,.15,.12,.34,.09,.52Z"/><path class="dl" d="M289.08,129c1.34-.84,2.59-1.79,3.65-2.96,1.65-1.83,2.67-3.96,3.04-6.42,.21,.17,.2,.38,.23,.57,.71,3.61,2.79,6.26,5.78,8.28,.26,.18,.51,.36,.77,.54-.47,.76-1.23,.33-1.85,.46-.38,0-.77,.03-1.15,0-.66-.06-.91,.26-.93,.86-.23,.5-.5,1.3-.93,1.28-1.13-.05-2.24-.04-3.36,.08-.29,.03-.47-.49-.71-.74-.12-.21-.19-.44-.1-.68,.31-.4,.34-.66-.29-.73-.77-.08-1.54-.04-2.32-.05-.62-.13-1.37,.3-1.82-.46Z"/><path class="l" d="M300.42,129.22c.71-.07,1.42-.14,2.12-.21,1.27,.05,2.54,.11,3.8,.16-.1,.62-.65,.43-1.01,.57-.24,.09-.42,.28-.66,.39-.11,.01-.22,0-.32-.04-1.71-.66-3.33-.37-4.91,.43-.21,.12-.44,.19-.68,.15-.19-.06-.31-.17-.33-.37,.24-1.14,1.2-.96,1.99-1.09Z"/><path class="f" d="M283.59,136.36c0-.12,.01-.23,.01-.35-.02-.44,.14-.76,.58-.89,.45-.13,.75,.09,.98,.44,.08,.13,.11,.29,.17,.43-.57,1.09-.86,1.16-1.74,.37Z"/><path class="df" d="M283.44,130.53c-.12-.36-.35-.69-.26-1.16,.84-.19,1.71-.29,2.6-.22,.38,.19,.81-.02,1.19,.16-.14,.84-.85,.56-1.35,.68-.47,.11-1.14-.29-1.33,.51,.02,.15,.04,.31,.06,.46,.03,.16,.03,.33,0,.49-.03,.11-.09,.21-.16,.29-.05,.02-.1,.05-.15,.07l-.14-.1s-.06-.1-.05-.16c-.02-.12-.11-.19-.15-.3l-.09-.36c0-.15-.1-.24-.17-.36Z"/><path class="cs" d="M287,129.39c-.39-.13-.85,.06-1.21-.25,1.1-.05,2.2-.1,3.3-.15,.73,.07,1.46,.14,2.19,.21,0,.13-.06,.23-.16,.31-.21,.14-.45,.16-.69,.21-.64,.04-1.29,.02-1.93,.09-.12,.01-.24,.01-.36,0-.38-.14-.84-.07-1.13-.42Z"/><path class="br" d="M304.87,129.38c.48-.16,1.01,.07,1.47-.21,.48-.04,.96-.07,1.42,.13-.09,.3-.32,.47-.6,.58-.83,.12-1.71,.48-2.3-.5Z"/><path class="bx" d="M308.35,131.01l-.64,.62c-.4-.75-.05-1.37,.35-1.99,.27-.22,.47-.12,.61,.15l-.32,1.21Z"/><path class="dj" d="M308.67,129.8l-.48-.19c-.31,.25-.61,.24-.88-.07,.15-.08,.3-.17,.45-.25,.31,.15,1.01-.38,.9,.51Z"/><path class="bl" d="M283.7,131.25l.15,.3-.15-.3Z"/><path class="bl" d="M283.89,131.71c.07,0,.15,0,.22,.01,.07,.13,.05,.25-.05,.36-.05-.02-.09-.03-.14-.04-.01-.11-.02-.22-.03-.33Z"/><path class="bl" d="M283.44,130.53c.06,.12,.11,.24,.17,.36-.06-.12-.11-.24-.17-.36Z"/><path class="el" d="M291.82,141.57c1.46-.47,2.69-1,4.03-.34,.34,.17,.6,.03,.89-.09,.91-.36,1.86-.26,2.79-.13,.65,.09,.75,.37,.32,.84-.53,.58-1.08,1.15-1.67,1.65-1.05,.89-2.29,.75-3.43,.34-1.11-.4-1.99-1.21-2.92-2.29Z"/><path class="ca" d="M298.33,148.5h-.25c.02-.89,.48-1.55,1.06-2.16,1.42-1.47,2.9-2.87,4.45-4.19,.57-.48,.95-1.04,.99-1.79,.06-1.24,.48-2.45,.33-3.71-.21-.32-.06-.69-.12-1.03,.28-1.26,.96-2.36,1.47-3.53,.17-.24,.41-.38,.69-.46,.15-.05,.31-.08,.47-.09,.11,0,.21,.03,.3,.09l.04,1.49c-.29,.53,.09,1.15-.24,1.67-.28-.34-.18-.75-.21-1.13-.03-.37,.09-.77-.2-1.18-.56,.36-.54,.87-.54,1.36,0,1.73,0,3.46,0,5.18-.29,.53,.09,1.15-.23,1.67-.28-.34-.2-.75-.2-1.13-.01-1.3,0-2.6-.03-3.9,0-.3,.1-.62-.19-.99-.4,.65-.41,1.35-.49,2.01-.19,1.48-.35,2.96-.51,4.44-.05,.48-.38,.76-.7,1.04-1.23,1.09-2.46,2.2-3.7,3.28-.96,.84-1.73,1.81-2.18,3.02Z"/><path class="bd" d="M298.55,130.25l.2,.28c-.15,1.01-.76,1.8-1.23,2.66-.22,.03-.29-.13-.37-.29-.13-1.04-.51-1.39-1.38-1.26-.71,.1-1,.44-.98,1.18,.03,.87,.05,1.73-.29,2.54-.55,1.31-1.34,2.38-2.85,2.69-.16-.07-.31-.14-.28-.35,.14-.36,.5-.47,.79-.67,1.36-.95,1.9-2.3,1.92-3.91-.04-.1-.07-.2-.09-.3,.04-.66-.54-1.13-.52-1.78,.06-.17,.17-.27,.34-.3,.36,.19,.45,.62,.78,.91,.81-.47,1.65-.69,2.51-.13,.22,.15,.34,.02,.47-.15,.27-.38,.56-.75,.84-1.12h.14Z"/><path class="cw" d="M284.07,132.08l.05-.36h0c.09-.08,.19-.1,.3-.06,.1,.06,.18,.13,.25,.22,.91,1.51,1.76,3.06,3.1,4.28,.71,.65,1.73,.76,2.33,1.55,.02,.21-.13,.28-.28,.35-1.31-.18-2.29-.93-3.16-1.84-1.14-1.2-1.99-2.59-2.57-4.14Z"/><path class="cx" d="M294.46,137.17c.28-.07,.39,.03,.51,.13,1.05,.9,1.55,.91,2.64,.07,.15-.11,.29-.33,.48-.12,.16,.18-.01,.36-.13,.51-.98,1.19-2.85,.9-3.51-.58Z"/><path class="cw" d="M300.21,138.06c-1.89-.54-2.76-1.92-3.05-3.76,.13-.16,0-.47,.31-.52,.11,.03,.25,.09,.28,.19,.42,1.61,1.41,2.79,2.75,3.73,.03,.22-.12,.29-.28,.36Z"/><path class="bw" d="M305.14,135.81c.08,.33-.05,.6-.23,.86-.88,.6-1.7,1.32-2.84,1.41-.14-.09-.31-.15-.29-.37,1.13-.62,1.99-1.7,3.36-1.91Z"/><path class="d" d="M289.81,138.06l.27-.24c.44-.38,.88-.38,1.32,0l.26,.23c-.62,.16-1.24,.13-1.85,0Z"/><path class="bf" d="M301.79,137.8c.09,.09,.19,.18,.28,.27-.62,.13-1.24,.15-1.86-.02,.1-.08,.2-.17,.29-.25,.43-.36,.85-.36,1.28,0Z"/><path class="aw" d="M297.4,133.78l-.24,.52c-.09-.46-.11-.93-.01-1.39l.25,.29c.16,.19,.16,.39,0,.58Z"/><path class="ek" d="M307.24,131.88c-.23,.05-.48,.07-.67,.24-.19,.29-.49,.19-.55,0-.25-.85-1.03-1.34-1.37-2.13-.06-.25-.02-.47,.22-.62,.8,.21,1.62,.21,2.44,.17l.88,.07c.1,.73-.46,1.31-.48,2.02h0l-.25,.11c-.06,.08-.13,.12-.23,.13Z"/><path class="bn" d="M307.52,134.81c.1-.55-.18-1.16,.24-1.67-.12,2.75,.28,5.5,.22,8.34-.22-.13-.33-.16-.33-.21-.22-2.15-.08-4.31-.12-6.46Z"/><path class="cf" d="M309.17,139.05c-.28-.34-.18-.75-.2-1.13-.08-1.6,.11-3.22-.22-4.82-.04-.18-.02-.39,.27-.57,.38,1.08,.05,2.18,.28,3.23,.24,1.08,.11,2.19,.11,3.29-.08,.15-.16,.15-.24,0Z"/><path class="dk" d="M309.17,139.05h.24c.04,.81,.08,1.62,.12,2.43l-.27,.02c-.14-.8-.06-1.63-.08-2.44Z"/><path class="bn" d="M306.33,140.72c.1-.55-.17-1.16,.23-1.67,0,.76,0,1.53,0,2.34-.35-.21-.2-.46-.23-.67Z"/><path class="as" d="M283.63,82.52c.54,.02,1.09-.05,1.53,.37,.78,.73,.66,1.6-.34,2.43-.54,.16-1.07,.19-1.55-.18-.78-.62-.73-1.48,.14-2.37,.08-.08,.15-.16,.22-.24h0Z"/><path class="av" d="M300.28,80.92c-.69,.5-1.35,.11-1.99-.11-.33-.11-.08-.39-.03-.6-.09-.44,.25-.57,.55-.72,.25-.06,.63-.6,.62,.2,0,.59,.25,1.04,.85,1.23Z"/><path class="ec" d="M292.85,80.62c-.38,.1-.74,.3-1.15,.3-.28,.03-.64,.27-.74-.25,.52-.39,.57-.96,.53-1.58,.46,.06,.63,.42,.91,.61,.17,.14,.39,.25,.4,.52v-.03c.22,.12,.2,.26,.05,.43Z"/><path class="dc" d="M303.51,79.17c-.54,.34-.7,1.12-1.43,1.23,.08-.63,.21-1.27-.54-1.96,.92,.16,1.6,.01,1.97,.73Z"/><path class="dp" d="M288.92,80.2c-.46,.23-.57-.23-.79-.42-.31-.27-.55-.62-.72-1.01,.37-.12,.72-.31,1.12-.32,.3-.09,.38,.08,.38,.33-.16,.47-.24,.94,.01,1.41Z"/><path class="k" d="M290.97,80.67c.18,.27,.49,.18,.74,.25-.48,.27-.96,.3-1.45,0,.24-.08,.47-.17,.71-.26Z"/><path class="b" d="M298.8,79.48c-.18,.24-.36,.48-.55,.72-.28-.44,.01-.7,.3-.97l.25,.25Z"/><path class="cu" d="M288.91,78.79c-.13-.11-.25-.22-.38-.33,.06-.04,.11-.1,.18-.13,.17-.06,.41-.13,.49,.04,.07,.16-.12,.32-.29,.41Z"/><path class="ef" d="M292.8,80.21c-.21-.11-.33-.3-.4-.52,.1,0,.19,.02,.29,.03,.14,.14,.16,.31,.11,.49Z"/><path class="t" d="M302.08,80.38c-.01,.18-.14,.23-.29,.27,.05-.13,.12-.26,.29-.27Z"/><path class="cd" d="M283.63,82.52c-.02,.12-.1,.2-.22,.24l.22-.24Z"/><path class="al" d="M299.27,88.71c-.46,1.44-1.33,2.48-2.83,2.91-1.45,.41-2.97-.07-3.89-1.29-.33-.44-.58-.93-.86-1.41,.9-.63,1.87-.48,2.8-.15,.59,.21,1.1,.24,1.69,0,1.01-.4,2.05-.41,3.09-.07Z"/><path class="dy" d="M299.27,88.71c-.44,.19-.9,.24-1.37,.21-.71-.04-1.39-.03-1.99,.46-.33,.27-.75,.29-1.09,.02-.67-.54-1.41-.55-2.21-.41-.3,.05-.62-.04-.93-.07-.25-.17-.56-.29-.76-.67,.69-.09,1.26-.4,1.85-.68,.69-.32,1.38-.36,2,.12,.49,.38,.92,.34,1.37-.05,.49-.42,1.03-.37,1.53-.07,.63,.38,1.26,.74,2.07,.63-.12,.34-.31,.4-.47,.5Z"/><path class="dh" d="M293.85,84.71c.3,.11,.64,.16,.87,.34,.53,.41,.96,.34,1.49-.02,.46-.31,1.02-.4,1.56-.11,.19,.1,.31,.24,.22,.47-.06,.17-.23,.26-.37,.21-.67-.25-1.29-.2-1.88,.21-.08,.06-.24,.07-.34,.04-.79-.25-1.56-.64-2.43-.26-.08,.04-.23-.08-.22-.21,0-.1,.04-.24,.11-.3,.28-.25,.65-.22,1-.35Z"/><path class="ef" d="M292.85,80.62l-.05-.43c.25,.11,.29,.25,.05,.43Z"/><path class="di" d="M245.57,91.75c.42-2.48,.58-4.97,.47-7.48-.01-.23,.04-.46,.06-.7,.12,.51,.14,.97,.89,1.14,1.13,.26,1.85,1.59,1.8,3-.08,2.1-1.32,3.85-3.22,4.04Z"/><path class="bb" d="M232.13,95.56c.92-.07,1.67,.08,2.4-.15,.26-.08,.45,.09,.61,.26,.56,.57,1.15,.63,1.77,.12,.3-.25,.63-.31,.99-.21,.52,.15,1.05,.22,1.81,.07-1.14,1.44-2.43,2.11-4,1.97-1.42-.12-2.65-.73-3.58-2.06Z"/><path class="bb" d="M232.56,94.84c.8-.41,1.59-.84,2.41-1.21,.88-.41,1.76-.37,2.59,.17,.59,.39,1.16,.8,1.81,1.24-.44,.37-.87,.26-1.26,.15-.61-.17-1.13-.21-1.62,.31-.34,.36-.77,.2-1.02-.15-.31-.44-.66-.44-1.13-.34-.57,.12-1.17,.12-1.78-.17Z"/><path class="ab" d="M229.88,86.71c.42,.02,.85,.04,1.21,.3,.16,.11,.35,.18,.46,.36,.3,.97-.03,1.54-1.06,1.66-.19,0-.39,.02-.57-.08-.07-.02-.14-.03-.2-.04-.22-.15-.44-.3-.62-.5-.13-.12-.26-.22-.31-.4-.04-.77,.19-1.33,1.1-1.3Z"/><path class="c" d="M241.67,88.7c-.26,.2-.58,.21-.88,.26-1.08,.03-1.3-.6-1.15-1.51,.31-.61,.66-1.14,1.47-.71l.25-.04c1.14,.28,1.29,.59,.76,1.67-.11,.16-.29,.22-.44,.32Z"/><path class="ej" d="M233.37,90.67c.37,.36,.69,.74,1.23,.47,.11-.05,.34,0,.44,.1,.63,.58,1.21,.65,1.81-.05,.07-.08,.31-.07,.44-.02,.54,.17,.76,.01,.63-.56-.03-.15,.07-.23,.19-.22,.1,.01,.23,.09,.27,.18,.29,.58-.03,1.2-.66,1.16-.46-.03-.81,0-1.17,.32-.35,.33-.83,.31-1.19,0-.39-.33-.75-.44-1.28-.36-.63,.1-.74-.1-.71-1.02Z"/><path class="v" d="M229.88,86.71c-.74,.2-.88,.76-.84,1.42,.07,.14,.05,.27-.06,.39-.72-.34-1.22-.9-1.73-1.64,.94-.31,1.75-.6,2.63-.17Z"/><path class="bg" d="M241.98,88.44c.21-.73,.27-1.4-.63-1.72,.85-.53,1.64-.13,2.52,.1-.36,.79-.93,1.29-1.63,1.67-.1,.06-.19,.05-.26-.05Z"/><path class="bs" d="M239.89,87.49c-.2,.79,.18,1.24,.9,1.48-.88,.28-1.69,0-2.5-.31-.05-.87,.67-1.21,1.21-1.61,.31-.23,.58,0,.4,.44Z"/><path class="m" d="M230.45,88.97c.86-.28,1.02-.92,.86-1.71,.09-.09,.2-.13,.32-.12,.79,.22,1.12,.79,1.19,1.55-.73,.39-1.52,.43-2.33,.42-.11,0-.15-.01-.13-.05,.03-.05,.05-.08,.08-.08Z"/><path class="ag" d="M239.89,87.49c-.08-.11,.05-.49-.29-.27-.56,.36-1.01,.84-1.32,1.44-.21-.09-.32-.24-.2-.46,.55-.95,1.28-1.67,2.37-1.99,.55-.16,.59,.16,.64,.54-.58-.04-.9,.33-1.21,.74Z"/><path class="bp" d="M232.83,88.69c-.29-.58-.67-1.07-1.21-1.44-.1-.02-.13-.06-.11-.1,.03-.04,.06-.06,.09-.06-.19-.62-.96-.61-1.31-1.12,.46-.23,.76,.03,1.03,.22,.61,.44,1.14,.97,1.5,1.64,.15,.28,.31,.57,.01,.86Z"/><path class="al" d="M242.96,103.11c.14-.26,.29-.53,.43-.79,0,.57,0,1.15,0,1.85-.49-.33,0-.87-.43-1.06Z"/><path class="al" d="M240.58,105.46c.18,.05,.4,.05,.31,.33-.02,.05-.13,.1-.19,.09-.32-.05-.16-.26-.13-.42h0Z"/><path class="em" d="M229.26,88.42c.15,.16,.3,.33,.46,.49-.18-.01-.37-.02-.48-.21-.12-.1-.12-.19,.02-.27Z"/><path class="al" d="M239.61,105.69c.13-.15,.3-.21,.49-.21-.12,.17-.3,.21-.49,.21Z"/><path class="w" d="M229.26,88.42c0,.09-.01,.18-.02,.27-.11-.01-.23-.03-.25-.17,.02-.13,.04-.26,.06-.39l.21,.29Z"/><path class="al" d="M240.59,105.23c.11-.16,.27-.23,.46-.25-.11,.17-.27,.23-.46,.25Z"/><path class="cg" d="M230.45,88.97s.05,.08,.05,.14c-.23,.06-.42,0-.58-.16,.18,0,.36,.02,.53,.02Z"/><path class="bh" d="M241.98,88.44c.09,.02,.17,.03,.26,.05-.13,.24-.36,.2-.57,.22,.1-.09,.21-.18,.31-.26Z"/><path class="al" d="M238.88,105.92c.14-.14,.31-.2,.51-.2-.13,.17-.31,.2-.51,.2Z"/><path class="ai" d="M231.6,87.09c.02,.05,.03,.1,.02,.16h-.31c-.15,0-.2-.11-.22-.24,.17,.03,.34,.05,.51,.08Z"/><path class="al" d="M242.69,103.57c.02-.19,.1-.35,.26-.45-.02,.19-.08,.36-.26,.45Z"/><path class="al" d="M241.05,104.99l.23-.2-.23,.2Z"/><path class="al" d="M241.46,104.74l.3-.23-.3,.23Z"/><path class="al" d="M241.75,104.51l.25-.23-.25,.23Z"/><path class="al" d="M240.28,105.44c.1-.07,.2-.13,.3-.2,0,.08,0,.15,0,.23h0l-.3-.03Z"/><path class="al" d="M242,104.28l.24-.24-.24,.24Z"/><path class="al" d="M242.23,104.04l.24-.24-.24,.24Z"/><path class="al" d="M242.47,103.81l.24-.25-.24,.25Z"/><path class="al" d="M258.35,96.99c-.37-.27-.76-.52-.95-.97,0-.46,0-.92,0-1.38,.33-1.04,.28-2.14,.45-3.2,.06-.38-.04-.78,.22-1.12,.29,.6,.61,.44,.93,.03,.6,.81-.06,1.63,0,2.46,.09,1.15-.29,2.3-.26,3.47,0,.25,.05,.66-.4,.72Z"/><path class="p" d="M258.35,96.99c.41-.85,.18-1.78,.31-2.67,.2-1.31,.24-2.66,.34-3.98,.02-.39,.04-.78,.06-1.17,.02-.12,.1-.2,.22-.24,.49,.63,.21,1.35,.17,2.02-.1,1.55-.28,3.09-.42,4.64-.06,.58-.12,1.16-.18,1.73h-.37c-.04-.11-.09-.22-.13-.33Z"/><path class="al" d="M258.09,89.86c.01-.24,.02-.47,.03-.71,.64,.27,.3,.49-.03,.71Z"/><path class="al" d="M259.28,88.92c-.07,.08-.14,.16-.22,.24-.07-.03-.15-.06-.21-.1-.11-.08-.34-.12-.25-.29,.04-.08,.28-.06,.43-.09h0l.25,.24Z"/><path class="al" d="M259.03,88.67l.04-.08-.04,.08h0Z"/><path class="cp" d="M226.18,100.47l-.1,.29c-.2-.17,.05-.2,.1-.29h0Z"/><path class="cj" d="M241.11,138.18c-.98,.22-1.98,.22-3.07,.07,.77-.39,1.86-.43,3.07-.07Z"/><path class="db" d="M234.91,128.87c-.23-.02-.47,.05-.71-.09,.29-.23,.5-.11,.7,.1h0Z"/><path class="bj" d="M243.17,130.29l-.22,.24c.03-.12,.1-.2,.22-.24Z"/><path class="dn" d="M291.3,129.31l-.03-.1c.81-.02,1.62-.04,2.43-.04,.4,0,.78,.01,.8,.58,.03,.65-.39,.65-.84,.63-1.01,.14-1.64-.57-2.37-1.06Z"/><path class="e" d="M291.3,129.31c.95-.01,1.6,.66,2.37,1.06,.05,.13,.1,.25,.14,.38l-.19,.25c-.49,.03-.85-.25-1.23-.48-.54-.56-1.59-.26-1.93-1.15l.84-.07Z"/><path class="cl" d="M298.55,130.25s-.09,0-.14,0c-.02-1.07-.02-1.07,.96-1.09,.35,0,.7,.03,1.05,.05-.66,.28-1.38,.45-1.87,1.03Z"/><path class="bu" d="M304.65,130c.09,.07,.18,.17,.28,.2,.79,.25,1.41,.61,1.24,1.61-.04,.25,.2,.29,.39,.32-.42,.88-.53,1.9-1.18,2.69-.22,.26-.23,.64-.24,.99-.98,.9-2.04,1.67-3.35,2-.43,0-.86,0-1.28,0-1.96-.63-2.75-2.17-3.11-4.03v-.58c.24-1,.57-1.94,1.35-2.67l.45-.23c1.74-.56,3.53-.54,5.32-.38,.04,.02,.09,.05,.13,.08Z"/><path class="cv" d="M304.52,129.92c.04,.4-.24,.44-.52,.44-1.6-.02-3.2,.08-4.8-.06,1.5-1.12,3.24-.97,4.96-.91,.31,.01,.3,.32,.36,.53Z"/><path class="bo" d="M284.46,131.95l-.15-.23c-.07-.1-.14-.2-.16-.32l-.15-.42c-.02-.09-.05-.18-.11-.25,.02-.35-.34-.64-.11-1.04,1.05-.17,2.16,0,3.22-.28,.36,.11,.77-.11,1.11,.13-.12,.52-.55,.72-.97,.93-.46,.23-.82,.52-1.03,1.03-.34,.81-.91,1.01-1.66,.46Z"/><path class="bl" d="M284.14,131.4l.16,.32h-.19l.03-.32Z"/><path class="bl" d="M283.89,130.72l.11,.25-.11-.25Z"/><path class="bu" d="M284.46,131.95c.2,0,.4-.04,.59-.01,.44,.06,.71-.08,.66-.55-.08-.64,.29-.89,.82-1.1,.55-.21,1.07-.5,1.6-.75,.07,0,.14-.01,.21-.01,.83,.49,1.77,.25,2.64,.42,.57,.12,1.17,.11,1.72,.36l.94,.7c.33,.6,.78,1.17,.66,1.92-.74,.04-1.29-.47-1.94-.69-1.01-.34-2.08-.38-3.12-.49-1.05-.47-1.1-.46-1.25,.26,.49,.67,1.22,.96,1.97,1.21,.53,.34,1.09,.52,1.72,.3,.69-.1,1.33-.36,1.99-.55,.2-.07,.42,.06,.62-.06,.42,1.7-.48,3.71-2.04,4.53-.27,.14-.56,.26-.84,.39-.44,0-.88,0-1.32,0-2.98-.9-4.46-3.23-5.62-5.87Z"/><path class="ad" d="M292.68,130.3c-1.21,.02-2.41,.01-3.61,.07-.66,.03-.82-.28-.75-.85,.69-.36,1.43-.08,2.14-.14,.72,.36,1.6,.32,2.22,.92Z"/><path class="dl" d="M307.24,131.88c.04-.1,.12-.15,.23-.13-.04,.1-.12,.15-.23,.13Z"/><path class="do" d="M301.6,131.52c.55-.09,1.11-.08,1.66,0,.11,.33-.35,.43-.3,.74,.14,.52,.19,1.01-.33,1.37-.62,.58-1.25,.64-1.9,.06-.45-.28-.57-.67-.43-1.16,.13-.28,.15-.6,.32-.86,.13-.1,.27-.1,.42-.08,.19,0,.38,.04,.56-.07Z"/><path class="ac" d="M302.63,133.63c.15-.53,.32-1.06-.24-1.47,.81-.65,1.62-.55,2.45,.28-.63,.59-1.33,1.05-2.21,1.18Z"/><path class="eg" d="M300.69,132.43c-.37,.43-.11,.84,.04,1.26-.73,.03-1.4-.19-2.04-.52,.44-1.12,1.31-1.43,2.01-.73Z"/><path class="q" d="M304.84,132.44c-.78-.36-1.56-.79-2.45-.28-.27-.17-.28-.33,.03-.43,.27-.09,.59,.02,.84-.2,.6-.04,1.16,.14,1.68,.4,.41,.21,.24,.41-.1,.52Z"/><path class="y" d="M300.69,132.43c-.07-.25-.26-.26-.45-.18-.55,.24-1.15,.42-1.56,.91-.33-.11-.48-.26-.16-.55,.18-.13,.21-.36,.35-.53,.08-.08,.16-.15,.26-.2,.5-.19,.99-.59,1.55-.13,.11,.22,.35,.45,.01,.68Z"/><path class="bv" d="M298.52,132.21c-.19-.27-.02-.42,.2-.55,.61-.36,1.25-.62,1.96-.65,.21,.34,.04,.47-.27,.59-.47,.17-.99,.24-1.4,.59h.01c-.16,.13-.33,.13-.5,.01Z"/><path class="by" d="M303.07,134.22l1.78-1.14c-.28,.97-.76,1.3-1.78,1.14Z"/><path class="n" d="M299.01,132.19c.26-.55,.84-.51,1.29-.69,.25-.1,.42-.19,.38-.49,.27,.05,.27,.38,.48,.49,.07,.06,.09,.11,.05,.13-.02,.02-.06,.02-.1,.02l-.43,.08c-.6-.03-1.06,.47-1.67,.44Z"/><path class="n" d="M298.52,132.21l.5-.02c-.05,.28-.28,.35-.5,.43,0-.13,0-.27,0-.4Z"/><path class="q" d="M301.1,131.66c.02-.05,.04-.11,.05-.16l.44,.02c-.13,.15-.3,.19-.5,.14Z"/><path class="dx" d="M291.74,133.82c-.73,.42-1.38,.4-1.88-.37-.48-.3-.33-.72-.22-1.12,0-.08,0-.15-.05-.22-.08-.04-.16-.07-.25-.09-.24-.1-.52-.16-.48-.5,.01-.11,.15-.12,.27-.08,1.2-.05,2.39-.02,3.49,.55,.07,.16,0,.3-.08,.43-.28,.45-.17,1.13-.79,1.39Z"/><path class="cb" d="M290.14,132.17c-.45,.35-.4,.81-.28,1.29-.98,.08-1.53-.68-2.22-1.16,.18-.55,.59-.68,1.1-.54,.35,.09,.68,.11,1.03,.01h.27c.16,.11,.41,.18,.1,.4Z"/><path class="dv" d="M291.74,133.82c.17-.41,.38-.81,.21-1.29-.14-.39,.18-.29,.38-.29,.66,.13,1.34,.23,1.57,1.02-.68,.35-1.41,.49-2.17,.56Z"/><path class="ea" d="M289.77,131.76c-.69,.25-1.48,.11-2.13,.53-.3-.13-.23-.46-.35-.68-.04-.08-.04-.26,.02-.3,.34-.27,.77-.31,1.19-.34,.35-.02,.6,.06,.63,.47,.02,.5,.48,.12,.65,.32Z"/><path class="be" d="M292.89,134.54c-.17,0-.3-.06-.33-.25-.02-.13,.05-.22,.16-.27,.03-.02,.07-.04,.1-.05,.36-.1,.68-.4,1.08-.27,.12,.04,.14,.19,.1,.29-.09,.21-.78,.54-1.11,.55Z"/><path class="bm" d="M293.91,133.26c-.46-.44-1.05-.67-1.57-1.02,.09-.08,.18-.16,.27-.25,.65,.15,1.14,.57,1.68,.93l-.02-.02c0,.25-.21,.28-.36,.36Z"/><path class="ea" d="M290.14,132.17c-.03-.13-.07-.26-.1-.39,.12-.04,.25-.04,.3,.08,.08,.18-.04,.27-.2,.32Z"/></svg>