<?xml version="1.0" encoding="UTF-8"?><svg id="a" xmlns="http://www.w3.org/2000/svg" viewBox="0 0 378.84 329.96"><defs><style>.b{fill:#42414d;}.c{fill:#d0c6e3;}.d{fill:#f5a39c;}.e{fill:#ecbe48;}.f{fill:#f289b1;}.g{fill:#272c32;}.h{fill:#fdfefe;}.i{fill:#434751;}.j{fill:#b4e4c9;}.k{fill:#9cdfba;}.l{fill:#e9ebea;}.m{fill:#cdc2e0;}.n{fill:#fdfcfd;}.o{fill:#3a3e49;}.p{fill:#745fa9;}.q{fill:#efeaf6;}.r{fill:#989ead;}.s{fill:#cdc3e1;}.t{fill:#fad063;}.u{fill:#d7cfe7;}.v{fill:#959bab;}.w{fill:#3b3e49;}.x{fill:#94ddb4;}.y{fill:#979dad;}.a`{fill:#f18ab2;}.aa{fill:#cabfdf;}.ab{fill:#a6acbe;}.ac{fill:#f6f4fa;}.ad{fill:#24292f;}.ae{fill:#fdfdfd;}.af{fill:#ecbe47;}.ag{fill:#e4dfef;}.ah{fill:#d5ebdf;}.ai{fill:#252a30;}.aj{fill:#c1e6ef;}.ak{fill:#97deb6;}.al{fill:#cec3e1;}.am{fill:#f4f5f5;}.an{fill:#cdc2e1;}.ao{fill:#3d3f4b;}.ap{fill:#efefef;}.aq{fill:#262a30;}.ar{fill:#444753;}.as{fill:#574780;}.at{fill:#95deb5;}.au{fill:#7dcfe1;}.av{fill:#fefdfe;}.aw{fill:#eee;}.ax{fill:#cbc1e0;}.ay{fill:#e4e6e5;}.b`{fill:#92ddb3;}.ba{fill:#9adfb8;}.bb{fill:#81ccde;}.bc{fill:#4b535d;}.bd{fill:#fefefe;}.be{fill:#cbc0e0;}</style></defs><path class="t" d="M92.34,150.63c5.96-11.99,12.79-23.33,22.82-32.49,6.47-5.91,14.02-5.47,21.79-4.52,8.53-2.42,16.63-1.35,24.31,3.04,1.92,.44,3.83,1.03,5.77,1.31,16.84,2.44,24.89,14.77,31.94,28.27,1.41,2.7,2.32,5.74,5.19,7.95,.72-13.22-.49-26.14,.63-39.01,2.2,1.5,1.67,3.84,1.69,5.92,.08,9.98,.01,19.97,.05,29.95,0,2.14-.32,4.35,.94,6.31,2.53,5.4,7.21,7.28,12.75,7.8,2.12,.2,4.27,.13,6.36,.64,4.99,.97,10.07,1.26,15.05,2.31,2.21,.47,4.14,1.12,4.64,3.69,.32,2.5,.58,4.99-1.08,7.19-3.88,2.03-8.06,.98-12.12,1.13-10.78,.01-21.56,.46-32.33-.24-7.13-3.23-13.07-7.79-16.56-15.05-1.32-5.14-3.37-10.07-4.33-15.31-.21-1.16-.63-2.38-1.67-2.96-4.01-2.26-8.22-4.12-11.59-7.49-1.4-1.4-3.1-.09-4.21,1.31-1.58,1.99-2.35,4.36-3.18,6.71-.65,1.85-1.05,3.92-3.32,4.65-15.71,.6-31.4,.5-47.09,.07-2.98-.98-2.44-3.18-1.95-5.36-1.95,1.47-2.81,4.29-5.47,5.19-3.08,.32-6.23,1.22-9.02-1.01Z"/><path class="ab" d="M84.2,178.59c-.97-7.77-1.97-15.54-2.89-23.32-.25-2.13,.68-3.5,2.96-3.7,8.7-.46,17.39-.56,26.11-.44,14.91,.21,29.83,.3,44.73-.08,4.61-.12,6.4,1.74,7.01,5.66,1.3,8.33,3.32,16.54,4.08,24.95-.41,2.6-2.4,3.2-4.55,3.6-2.01,.02-4.03-.03-6.05,.13-17.29-.5-34.58,.1-51.86-.29-3.24,.06-6.48,.07-9.71-.03-1.71-.1-3.39,.15-5.08,.38-5.33-1.34-5.95-2.23-4.75-6.86Z"/><path class="q" d="M25.32,307.55c-9.66-15.07-7.99-31.27-4.58-47.57,2.21-10.55,2.39-10.57,11.89-5.69,12.9,6.62,23.2,16.37,32.52,27.27,2.42,2.76,1.48,5.94,1.17,9.05-.86,2.26-2.08,4.25-4.24,5.5-3.2,.07-.93,2.28-1.33,3.45-.04,.33-.09,.67-.21,.97-3.79,9.98-3.78,9.94-13.91,7.09-6.12-1.72-12.28-2.73-18.45-.1-.9,.39-1.91,.56-2.87,.02Z"/><path class="ah" d="M310.11,284.53c7.64-.16,15.2-.17,22.18,3.87,6.59,3.82,9.8,10.02,11.18,16.87,.85,4.23,2.56,3.8,5.48,3.31,13.71-2.31,26.04,5.61,29.89,19.11-1.46,1.09-3.17,.86-4.81,.86-19.95,.02-39.9,.02-59.85,0-1.48,0-3.01,.19-4.36-.71-1.17-1.34-1.36-2.99-1.38-4.65-.14-11.22-.13-22.45,0-33.67,.02-1.81,.11-3.67,1.67-4.99Z"/><path class="ab" d="M65.18,291.58c0-3.34-.02-6.68-.03-10.02,.02-21.29,.03-42.59,.05-63.88-2.36-6.69-2.24-13.39,0-20.08,.08-3.32,.16-6.64,.24-9.96,1.89-1.77,4.27-1.44,6.54-1.5,5.58-.15,11.16,.22,16.73-.29,1.45-.37,2.91-.49,4.38-.21,3.27,.98,6.82,.07,10.04,1.41,.92,.73,1.7,1.52,1.04,2.83-.26,.2-.52,.45-.83,.53-7.05,1.91-7.01,1.9-5.86,9.11,1.02,6.39,2.69,12.66,3.47,19.09,.49,4,2.36,5.94,6.54,5.64,2.8-.2,5.63,.07,8.46-.08,12.29-.28,24.57,.11,36.86,.03,1.96-.01,4.01,.43,5.77-.84,1.36-1.38,.96-3.02,.73-4.65-.91-6.33-1.77-12.66-2.44-19.02-.1-1.36-.11-2.72-.13-4.09-.26-3.05-1.76-6.12,.17-9.13,1.29-.97,2.65-1.01,4.07-.35,2.1,1.84,2.2,4.45,2.66,6.92,.4,1.34,.73,2.69,.91,4.07,1.49,6.78,2.46,13.66,3.89,20.46,1.33,6.33,1.42,6.54,8.1,6.6,2.97,.02,5.96-.18,8.92,.13,4.81,.5,5.68,2.49,3.17,6.92-1.05,.6-2.22,.7-3.39,.79-2.3,.1-4.6,.06-6.89,0-3.39-.06-6.77,.13-10.15,.34-2.63-.21-5.27-.36-7.92-.26-19.53,.18-39.05,.24-58.57,0-2.52,.05-5.03,.21-7.54-.13-3.91-.62-5.04-2.92-3.62-6.44,1.24-3.06,1.23-6.13,.75-9.3-1.03-6.9-1.66-13.85-2.48-20.78-.33-2.78-1.5-4.16-4.39-4.22-13.51-.27-11.55-.14-11.57,10.46-.06,27.74-.05,55.48,0,83.22,.07,11.97,.04,23.93,.02,35.89,0,2.31,.19,4.68-1.18,6.77-5.9,1.94-11.89,1.01-17.87,.55q.43-2.41,2.85-2.88c6.1-1.19,5.76-1.21,6.22-7.54,.64-8.7-.02-17.54,2.29-26.1Z"/><path class="ac" d="M226.32,29.39H113.98c2.72-2.65,5.38-5.24,7.53-8.31,1.96-2.81,5.02-3.69,8.39-3.33,5.6,.59,9.19-2.01,11.31-7.01,.13-.31,.28-.61,.44-.89,5.19-9,9.79-15.03,20.7-3.49,2.38,2.51,5.07,4.81,7.91,6.78,5.71,3.96,11.61,5.28,18.02,1,5.14-3.44,8.31-2.93,12.92,1.22,1.11,1,2.23,2.02,3.17,3.18,4.9,6.05,11.26,8.98,18.97,9.23,1.09,.04,2.39-.23,2.98,1.64Z"/><path class="q" d="M337.73,99.7c8.64,0,17.28,.11,25.92-.06,3.2-.06,4.39,.9,4.34,4.23-.17,10.31-.16,20.62,0,30.92,.05,3.15-1.2,3.94-4.12,3.93-17.61-.09-35.23-.1-52.84,0-2.97,.02-4.12-.86-4.08-3.97,.15-10.31,.17-20.62,0-30.92-.06-3.38,1.22-4.25,4.38-4.19,8.8,.16,17.61,.06,26.42,.06Z"/><path class="ac" d="M102.24,127.68H13.48c-2.66,0-5.33,.12-7.98-.04-1.88-.12-4.78,1.09-5.41-.91-.65-2.07,2.02-3.59,3.76-4.68,4.64-2.93,9.75-4.45,15.19-2.9,4.21,1.2,7.48,.19,10.3-2.96,2.21-2.46,4.6-4.72,6.64-7.39,5.1-6.69,13.21-6.3,20.69,.82,3.74,3.56,7.55,6.9,12.14,9.39,3.34,1.81,6.68,2.43,9.96,.62,6.58-3.63,12.13-1.29,17.54,2.51,2.12,1.49,4.19,3.06,6.29,4.59l-.35,.95Z"/><path class="o" d="M176,98.88c2.35,4.87-1.36,7.79-4.1,10.28-2.79,2.53-6.58,2.54-9.63-.56-2.06-2.04-.99-4.31-.44-6.51,.88-3.53,1.91-7.05,1.85-10.73-.02-1.3-.17-2.94-1.94-2.92-1.71,.01-1.88,1.59-2.02,2.93-.08,.82,.1,1.65,.17,2.47,.66,7.97-7.07,13.16-14.57,9.8,1.19-5.55,.02-10.88-.98-16.36-1.3-7.09,5.2-14.41,12.39-14.48,2.34-.02,3.51-.86,4.49-2.72,1.41-2.66,3.38-4.9,6.03-6.38,3.88-2.16,7.57-1.43,9.57,2.29,.81,1.51,1.59,1.74,2.97,1.74,3.35,0,7.49-1.28,9.02,3.04,1.55,4.39-1.21,7.47-4.54,9.97-3.63,2.22-8.48,.59-11.79,3.79-4.8,6.18-4.32,9.14,2.13,12.97,.58,.35,1.06,.78,1.39,1.38Z"/><path class="ah" d="M65.18,291.58c.95,10.71-1.37,21.33-.85,32.02,.11,2.2-.87,2.35-2.85,2.72-2.73,.51-5.66-.64-8.19,1.05-.92,1.24-2.29,1.16-3.6,1.16-10.21,.04-20.41,.03-30.62,0-1.33,0-2.64-.06-3.73-1,.5-8.08,3.06-15.13,9.97-20,9.02-5.34,17.95-2.66,26.75,.53,2.57,.93,3.73,1.14,4.6-1.9,.76-2.67,2.38-5.1,3.62-7.63-1.01-1.42-.08-2.19,.97-2.92,2.02-.66,2-3.3,3.93-4.05Z"/><path class="q" d="M282.65,86.7c-7.81,0-15.62-.13-23.42,.06-3.33,.08-4.29-1.13-4.23-4.34,.17-8.81,.17-17.62,0-26.43-.06-3.2,.9-4.37,4.22-4.34,15.61,.14,31.23,.13,46.85,0,3.1-.02,4.01,1.1,3.97,4.08-.14,8.97-.19,17.96,.02,26.93,.08,3.51-1.45,4.14-4.48,4.08-7.64-.15-15.28-.05-22.92-.05Z"/><path class="aj" d="M310.11,249.56c11.12-2.82,18.37,.21,22.63,9.6,2.47,5.46,1.68,10.86-1.63,15.58-3.64,5.18-8.91,7.82-15.38,7.17-1.92-.19-4.02-.07-5.75-1.3-3.4,.69-4.92-2.02-6.94-3.85-5.37-8.5-5.4-15.2-.12-22.34,2.24-1.85,3.8-4.72,7.19-4.87Z"/><path class="o" d="M15.35,327.55c12.65-.06,25.3-.12,37.94-.17l18.05,.04c3.22-2.14,6.82-1.05,10.27-1.25,.87,.01,1.74,.02,2.61,.03,1.47-.08,2.93,0,4.41-.02,.61-.03,1.22-.06,1.83-.12,19.61-.08,39.23-.17,58.83,.02,.61,.02,1.23,.05,1.85,.06,3.64-.09,7.28-.06,10.92-.02,1.83-.17,3.66,.01,5.49,0,9.02-.18,18.04-.2,27.05,0,.93,.02,1.86,.02,2.79,0,5.27-.25,10.53,.02,15.8-.08,5.36-.14,10.72,.01,16.09-.02,14.87-.06,29.73-.21,44.59,.07,9.91-.19,19.82-.22,29.72,0,2.24-.02,4.52-.23,6.45,1.3,22.93,.09,45.86,.18,68.79,.27,0,.81,.13,1.74-1.05,1.82-1.16,.07-2.33,.06-3.49,.06-118.24,0-236.48,.01-354.72-.11-1.31,0-4.35,1.97-4.24-1.91Z"/><path class="aj" d="M233.06,178.81c3.99-.1,7.98-.2,11.97-.3,6.99-2.42,13.98-2.1,20.96,.08,12.58,.02,25.17,.27,37.74-.06,4.89-.13,7.24,1,6.28,6.22-.18,.97-.09,1.98-.12,2.98-1.47,1.35-3.27,1.43-5.13,1.41-21.9-.19-43.8-.02-65.7-.1-1.97,0-4.01,.21-5.82-.91-2.24-3.07-2.26-6.18-.18-9.33Z"/><path class="ab" d="M233.1,187.58c25.6,.05,51.19,.09,76.79,.14,.07,20.61,.15,41.22,.22,61.83-1.99,1.65-3.98,3.3-5.97,4.95-2.25-2.12-1.71-4.92-1.73-7.51-.07-16.14-.01-32.27-.04-48.41-.01-7.08-.22-7.31-7.25-7.31-40.23-.02-80.46,0-120.7-.03-2.96,0-6.01,.47-8.81-1.05-1.38-1.49-.17-2.33,.82-3.22,1.85-.93,3.85-.92,5.84-.92,18.07-.04,36.14-.03,54.21,0,2.31,0,4.68-.13,6.62,1.54Z"/><path class="ay" d="M83.26,80.43c-1.13-8.03,6.3-14.27,13.86-14.2,8.63,.08,13.92,5.01,14.71,14.23,.65,7.59-7.18,15.33-14.69,15.17-7.84-.16-13.86-6.76-13.87-15.2Z"/><path class="f" d="M65.2,197.6c0,6.69,0,13.39,0,20.08-9.38,5.35-14,5.28-19.68-.3-5.14-5.04-5.72-12.36-1.43-17.97,4.23-5.53,11.61-7.03,17.67-3.57,1.12,.64,1.9,1.93,3.44,1.75Z"/><path class="g" d="M245.22,171.33c-2.21-2.92-5.67-1.91-8.55-2.61-3.52-.86-7.14-1.3-10.71-1.92,2.12-2.24,4.93-1.69,7.52-1.7,15.97-.07,31.94,0,47.92-.05,6.69-.02,7.01-.35,7.02-7.08,.03-11.49,.05-22.98-.01-34.46-.03-5.78-.44-6.16-6.32-6.22-6.16-.07-12.31,.03-18.47-.04-2.3-.03-4.7,.24-6.69-1.39-.9-3.81,2.09-2.59,3.66-2.6,10.05-.1,20.1-.07,30.15-.04,1.79,.87,1.26,2.53,1.26,3.94,.03,16.08-.1,32.16,.1,48.24,.05,3.75-1.44,4.38-4.68,4.32-8.45-.17-16.9,.08-25.34-.13-3.14-.08-4.64,.67-4.05,3.99-4.53,.75-8.86,.32-12.81-2.25Z"/><path class="au" d="M290.74,113.22c-9.93,.05-19.85,.06-29.78,.2-1.48,.02-4.03-1.12-3.72,2.2,1.2,1.82,1.26,3.62-.11,5.38-2.52,1.68-5.39,1.16-8.13,1.13-6.39-.08-12.79,.47-19.16-.25-2.25-.05-3.09-3.29-5.76-2.83-.23,2.93,3.19,2.24,3.64,4.25,.24,1.16,.06,2.19-.95,2.95-7.42,1.9-9.76,.27-10.06-7.03,.02-1.24,.03-2.49,.46-3.69,.63-1.58,1.78-2.56,3.42-2.99,9.56-.39,19.12-.53,28.68,.05,12.23,0,24.46-.02,36.68,.03,1.59,0,3.3-.59,4.77,.57Z"/><path class="ab" d="M310.05,327.42c-2.04,0-4.08,0-6.12,0-1.46-1.38-1.69-3.15-1.63-5.02,.38-11.58-.06-23.17,.24-34.76,.2-3.7-1.12-7.62,1.56-10.97,1.96,1.31,3.91,2.63,5.87,3.94,.04,1.31,.09,2.61,.13,3.92-.02,14.3-.04,28.59-.05,42.89Z"/><path class="aa" d="M249.29,112.61c-1.43,1.64-3.36,1.05-5.09,1.05-8.05,.02-16.11-.05-24.16-.08-1.29-.49-2.04-2.35-3.87-1.55-.84,2,1.19,2.45,1.89,3.6,0,1.03,.01,2.05,.02,3.08-3.39,2.05-6.38,1.84-8.8-1.55-.35-1.85-2.45-2.22-3.2-3.74,2.01-1.03,4.73-1.21,4.31-4.73-.18-1.47,1.53-1.96,2.96-1.96,10.94,0,21.87-.02,32.81-.01,4.7,0,2.12,3.92,3.13,5.91Z"/><path class="d" d="M145.32,103.63c2.98,.15,5.95,.32,8.67-1.3,3.33-1.98,6.82-3.8,4.31-8.76-.47-.93-.02-2.3-.14-3.45-.3-2.92,1.96-4.05,3.9-4.1,2.1-.05,3.1,1.94,3.14,4.24,.07,3.84-.82,7.46-1.92,11.08-.72,2.35-1.52,4.72-1,7.25-1.06,1.91-2.27,3.78-2.22,6.09-5.45-2.43-10.52-5.62-15.93-8.12,.4-.98,.8-1.96,1.21-2.94Z"/><path class="au" d="M89.33,186.64c-4.03,2.16-8.35,.67-12.53,.95-3.77,.26-7.57,.05-11.36,.05q-.43-8.99,8.42-8.99c3.45,0,6.89-.04,10.34-.06-.4,3.77,1.49,5.61,5.07,6.04,.54,.65,.6,1.32,.07,2Z"/><path class="d" d="M176,98.88c-9.28-2.21-11.01-7.51-4.78-14.64,3.16-2.31,6.16-2.25,8.96,.62-.38,4.98-1.78,9.65-4.18,14.02Z"/><path class="ay" d="M165.26,182.67c-1.62-8.88-3.45-17.73-4.75-26.66-.55-3.8-2.38-4.4-5.67-4.39-23.53,.06-47.06-.02-70.58-.05,2.52-1.81,5.41-.47,8.08-.93,3.32-.04,6.65-.08,9.97-.11,1.63-.85,3.26-1.32,4.89,0,16.67,0,33.34,0,50.01,0,3.8-1.61,5.32,.94,6.07,3.78,2.12,8.04,3.16,16.3,4.48,24.5,.3,1.84,.21,3.81-2.5,3.87Z"/><path class="af" d="M144.12,106.57c6.39,.58,11.37,3.94,15.93,8.12,.4,.66,.81,1.31,1.21,1.97-7.97-2.1-16.07-3.11-24.31-3.04,1.95-2.79,2.79-6.72,7.16-7.05Z"/><path class="d" d="M245.22,171.33c4.32,.46,8.7,.57,12.81,2.25,2.87,1.32,5.93,2.35,7.96,5.01-6.99-.03-13.97-.05-20.96-.08,.06-2.39,.12-4.78,.19-7.17Z"/><path class="ai" d="M206.08,113.41c1.61,.24,4.14-1.2,4.01,2.21-1.96,1.89-1.31,4.38-1.35,6.61-.16,9.8-.01,19.61-.1,29.41-.02,2.43,.47,5.06-1.67,7.01-2.68-1.17-1.91-3.59-1.93-5.62-.12-12.61-.17-25.23-.25-37.84,.43-.59,.85-1.18,1.28-1.77Z"/><path class="aq" d="M180.18,84.86c-2.96-.62-5.87-2.01-8.96-.62,3.48-4.43,8.41-3.42,13.06-3.5-1.01,1.73-2.52,2.96-4.09,4.12Z"/><path class="ap" d="M273.83,45.17c1.55-.61,2.89-.73,4.41,.11-1.55,.61-2.89,.73-4.41-.11Z"/><path class="aw" d="M285.15,45.43c1.14-.93,2.39-.79,3.73-.45-1.09,1.6-2.49,.16-3.73,.45Z"/><path class="aw" d="M252.45,45.58c1.5-1.22,2.54-.69,4.01-.8-1.44,1.47-2.47,.69-4.01,.8Z"/><path class="aw" d="M267.47,45.21c-1.54,.65-2.55,.74-3.59,.03,1.03-.75,2.06-.62,3.59-.03Z"/><path class="aw" d="M241.73,45.39c1.34-1.03,2.35-.49,3.78-.59-1.28,1.29-2.29,.91-3.78,.59Z"/><path class="af" d="M165.26,182.67c1.03-.6,1.91-1.2,1.62-2.69-1.61-8.53-3.18-17.06-4.73-25.6-.51-2.81-2.38-3.75-4.95-3.87,.44-4.18,1.92-7.99,4.31-11.42,2.03-2.92,4.58-3.49,6.89-.55,2.26,2.89,5.09,4.51,8.48,5.6,2.47,.79,3.89,2.42,4.4,5.35,.89,5.16,2.52,10.2,3.84,15.29-3.84-.14-4.06-4.48-7.3-6.11-3.38,6.45-2.94,14.11-6.35,20.48-1.41,3-2.12,6.43-5.14,8.45l-1.04,2.06c.1,2.17-.68,3.67-3.02,3.99l-1.26-6.97c-.45-.7-.48-1.38,.09-2.04,1.04-1.37,3.22-.33,4.15-1.95Z"/><path class="au" d="M166.34,187.59l4.23-9.04c1.13-.73,2.32-1.37,3.68-1.34,8.37,.22,16.85-1.39,25.09,1.29,11.24,.1,22.48,.21,33.72,.31,.01,2.93,.03,5.85,.04,8.78-22.26,0-44.51,0-66.77,0Z"/><path class="af" d="M107.21,150.51c-1.63,0-3.26,0-4.89,0,1.15-2.6,2.75-4.8,5.38-6.23,1.4,2.31-.9,4.16-.49,6.23Z"/><path class="e" d="M157.33,186.66c-.92,3.09,1.01,5.96,.71,9-.98,1.02-2.26,1.43-3.6,1.43-15.86,.02-31.73,.7-47.59-.34-3.19-1.48-4.17-3.84-2.83-7.13l-.92-2.02c-.95-1.4-.98-2.71,.39-3.87,15.77,.04,31.55,.07,47.32,.11,2.14,0,4.34-.28,6.34,.83,.57,.61,.64,1.27,.19,1.98Z"/><path class="bb" d="M103.49,183.73c-.13,1.29-.26,2.58-.39,3.87-3.3-.38-6.79,1.1-9.92-.97-.71-1.02-.76-2.01,.15-2.95,3.39,.02,6.77,.03,10.16,.05Z"/><path class="y" d="M93.33,183.69c-.05,.98-.1,1.97-.15,2.95-1.28,0-2.57,0-3.85,0-.02-.67-.04-1.34-.07-2,1.09-1.44,2.66-.85,4.07-.95Z"/><path class="r" d="M157.33,186.66c-.06-.66-.12-1.32-.18-1.98,1.3-1.81,2.64-.59,3.97-.06-.03,.68-.06,1.36-.09,2.04-1.23,0-2.46,0-3.69,0Z"/><path class="an" d="M47.51,287.69c.78-.03,1.72-.37,2.31-.05,1.65,.91,4.16-2.38,4.44,.05,.19,1.69-3.2,.52-4.95,.87-.59,.12-1.25-.07-1.88-.12l.08-.75Z"/><path class="be" d="M53.64,301.78c-3.72,1.17-6.03,.74-9.79,.6,3.76-1.15,6.07-.73,9.79-.6Z"/><path class="s" d="M50.57,268.62c1.09,2.64,.65,4.32,0,6.01v-6.01Z"/><path class="ax" d="M62.85,287.45c-.71-1.58-.72-3.17-.13-5.35,.83,2.13,.6,3.74,.13,5.35Z"/><path class="c" d="M61.25,295.63c-.32,.97-.65,1.95-.97,2.92-1-.78-1.68-1.73-1.63-3.08,.87,.05,1.73,.1,2.6,.15Z"/><path class="m" d="M50.44,279.63l-.69,1.14c-.32-.54-.7-1.07-.92-1.65-.06-.17,.3-.69,.53-.74,1.14-.25,.68,.78,1.08,1.25Z"/><path class="u" d="M35.94,263.83c.34,.46,.87,.91,1.03,1.46,.16,.59-.41,.82-.84,.45-.47-.4-.79-.98-1.17-1.49l.99-.42Z"/><path class="al" d="M41.45,286.62c.9,.08,2.55,.07,2.58,.26,.16,1.25-.94,.56-1.51,.67-.4,.08-.87-.18-1.3-.28l.23-.65Z"/><path class="b`" d="M325.68,324.71c1.44-1.73,2.15-2.58,2.86-3.43,.26,.41,.77,.84,.74,1.22-.16,1.79-1.53,1.51-3.6,2.2Z"/><path class="ak" d="M343.95,318.87c-.93,.89-1.98,.89-3.08,.31,.92-1.19,2.02-.24,3.08-.31Z"/><path class="p" d="M163.18,196.61c14.65,4.45,29.42,8.46,43.77,13.88,12.24,4.62,15.81,11.81,10.99,23.65-.86,2.11-1.85,4.17-2.77,6.25,1.04,2.25-.13,4.22-.89,6.19-2.99,7.75-6.14,15.43-9.32,23.11-2.92,6.67-5.31,13.56-8.37,20.17-.72,1.54-.85,3.68-3.23,3.89-1.64-.87-2.25-2.41-2.42-4.09-1.79-17.09-4.31-34.09-5.96-51.19,.03-.54,.12-1.07,.26-1.59,.82-2.12,1.22-4.44,2.88-6.18,2.11-3.45,1.35-5.19-2.9-5.1-4.16,.09-8.34-.27-12.47,.11-3.5,.32-4.69-1.27-5.2-4.27-1.42-8.28-2.9-16.56-4.36-24.84Z"/><path class="p" d="M158.07,199.55c1.04,8.38,2.78,16.67,2.98,25.14-10.43,.66-20.82,1.09-30.53-3.9-2.02-1.04-4.2-1.74-6.08-.15-6.39,5.39-11.91,2.88-17.32-1.6-3.12-5.15-3.36-10.85-3.11-16.61,.07-1.71,.83-3.17,2.62-3.82,6.6-1.18,13.26-.45,19.88-.56,8.31-.13,16.61-.07,24.92,0,2.3,.02,4.7-.24,6.63,1.49Z"/><path class="ah" d="M71.4,284.49c4.97-3.74,10.53-5.47,16.75-4.96,1.58,1.52,.9,3.4,.75,5.16-1.09,12.68-3.59,25.2-4.4,37.91-.12,1.89-.87,3.52-2.29,4.81h-10.86c.02-14.31,.04-28.61,.05-42.92Z"/><path class="ad" d="M106.15,199.6c.03-1.27,.07-2.55,.1-3.82,17.26-.04,34.52-.08,51.79-.12,0,1.3,.02,2.59,.03,3.89-17.3,.02-34.61,.03-51.91,.05Z"/><path class="as" d="M115.25,225.62c-2.75-1.91-6.43-2.88-6.97-6.99,1.55,.94,3.05,1.99,4.66,2.81,2.97,1.52,5.88,2.1,8.64-.62,3.01-2.96,5.99-3.46,10.08-1.15,9.09,5.12,19.34,4.8,29.39,5.02-1.43,1.75-3.4,.88-5.09,.89-13.57,.08-27.14,.04-40.71,.04Z"/><path class="v" d="M179.3,236.58c-.41-1.98-.82-3.96-1.23-5.94,2.4,.01,4.79,.03,7.19,.04,2.58,1.56,1.25,3.82,1.03,5.87l-.33,.07c-2.23,1.75-4.45,1.69-6.66-.04Z"/><path class="v" d="M93.41,236.58c-.67-2.1,.51-3.96,.76-5.94,2.39,0,4.77,0,7.16,0-.41,1.98-.82,3.96-1.23,5.94-2.23,1.76-4.46,1.77-6.69,0Z"/><path class="v" d="M168.23,231.69c-.37,1.65,.64,3.57-.99,4.96-1.99,1.44-3.96,1.61-5.91-.07-.08-1.98-.16-3.96-.23-5.94,2.37,.37,5-.99,7.13,1.05Z"/><path class="as" d="M186.3,236.55c-.19-1.98-.06-4.03-1.03-5.87,.95,0,1.9,.01,2.84,.02,.03,2.15-.61,4.09-1.81,5.85Z"/><path class="aa" d="M337.53,134.67c-6.48,0-12.96-.1-19.44,.05-2.86,.06-4.29-.63-4.16-3.86,.21-5.15,.17-10.31,.01-15.46-.08-2.81,.95-3.78,3.75-3.76,13.13,.1,26.25,.09,39.38,0,2.65-.02,3.99,.63,3.9,3.6-.17,5.32-.13,10.64-.01,15.96,.06,2.58-.91,3.54-3.49,3.5-6.64-.11-13.29-.04-19.94-.04Z"/><path class="aa" d="M325.87,107.67c-3.15,0-6.3,0-9.44,0-1.29,0-2.29-.41-2.3-1.95-.01-1.54,.96-1.98,2.26-1.98,6.3-.02,12.59-.02,18.89-.02,1.48,0,2.68,.37,2.54,2.21-.12,1.57-1.29,1.74-2.5,1.75-3.15,.01-6.3,0-9.44,0Z"/><path class="aa" d="M282.38,62.72c5.65,0,11.3,.11,16.94-.04,2.84-.08,3.62,1.03,3.74,3.78,.7,16.26,.76,16.25-15.16,16.25-7.64,0-15.28-.12-22.92,.05-3.08,.07-4.13-1.03-3.98-4.04,.19-3.81,.23-7.65,0-11.46-.21-3.4,.84-4.77,4.44-4.6,5.64,.26,11.29,.07,16.94,.07Z"/><path class="aa" d="M271.81,55.73c2.48,0,4.96-.04,7.44,.02,1.11,.02,2.57-.13,2.46,1.61-.08,1.31-1.28,1.33-2.26,1.33-5.29,.02-10.58,.02-15.88,0-1,0-2.19-.09-2.22-1.38-.04-1.69,1.41-1.55,2.53-1.57,2.65-.04,5.29-.01,7.94-.01Z"/><path class="o" d="M309.87,265.66l-1.67-.56c.56-.19,1.12-.37,1.67-.56,.42-.52,.83-.52,1.25,0,8.66,2.19,4.75-5.23,6.35-8.71q1.26,8.44,8.54,9.08c-1.13,1.31-2.56,.51-3.8,.66-1.94,.25-4.31-.88-4.35,2.88-.03,3.43,1.79,3.27,4.05,3.16,.48-.02,.96,.14,2.31,.36-5.31,1.24-9.72,1.82-14.08-.36,.32-.34,.68-.62,1.09-.84,.61-.23,1.26-.31,1.9-.44,.97-.19,2.06-.39,2.12-1.63,.08-1.59-1.21-1.7-2.35-1.88-.65-.1-1.29-.17-1.91-.4-.4-.24-.78-.5-1.15-.78Z"/><path class="bc" d="M309.87,265.66h1.25c1.43,1.96,1.43,3.92,0,5.88-.32,.05-.64,.07-.96,.08-.1-1.99-.19-3.97-.29-5.96Z"/><path class="bc" d="M311.12,264.54h-1.25l.27-5.27,.61-.03c.12,1.77,.24,3.54,.37,5.31Z"/><path class="ah" d="M92.43,280.5c9.54,1.94,14.03,9.13,17.66,17.15,.67,1.48,.88,3.17,1.28,4.77,1.97,7.86,1.91,7.64,9.91,5.7,10.74-2.61,20.9-1.2,30,5.53,2.51,4.83,.92,9.32-1.15,13.77-20.27,0-40.55,0-60.82,0-1.47-3.42-.23-7.11-1.13-10.69-.49-1.96-.84-3.46-2.5-4.55,.95-9.57,2.88-18.97,4.7-28.39,.25-1.3,.77-2.55,2.05-3.27Z"/><path class="ah" d="M258.03,317.41c4.33-10.11,13.51-12.02,22.84-12.63,4.95-.33,7.94-1.24,10.39-6.07,2.56-5.05,6.66-9.45,12.61-11.19,.02,13.3,.05,26.6,.07,39.9-9.93,.04-19.87,.08-29.8,.13-4.27-5.13-10.65-6.9-16.11-10.13Z"/><path class="ad" d="M258.03,317.41c6.51,1.56,13.03,3.11,16.11,10.13h-45.15c-2.01-3.36-.44-7,.36-9.93,1.78-6.5-.62-11.64-3.28-16.98,3.46-3.8,7.63-5.8,12.88-5,2.87,4.67,4.6,9.91,7.79,14.47,2.9,4.16,6.37,6.66,11.29,7.3Z"/><path class="ad" d="M167.06,327.54c1.55-8.2,5.94-15.56,7.05-23.88,4.85-2.27,9.61-2.74,14.16,.73,1.39,4.03,3.15,7.87,5.82,11.25,1.28,3.88,3.31,7.7,1.13,11.91-9.39,0-18.77,0-28.16,0Z"/><path class="ab" d="M92.43,280.5c-2.04,10.68-4.07,21.36-6.11,32.04,.42,.72,.75,1.47,.96,2.27-.42,4.33-.68,8.7-2.95,12.6-.71,0-1.41,0-2.12,0,1.98-15.96,3.96-31.92,5.94-47.88,1.75-14.32,3.51-28.63,5.26-42.95,2.23,0,4.46,0,6.69,0-2.56,14.64-5.11,29.28-7.67,43.92Z"/><path class="ab" d="M195.22,327.55c-.12-4.08-.84-8.05-2.1-11.93-2.29-4.2-2.72-8.89-3.5-13.48-2.7-15.37-6.19-30.61-7.68-46.19-.05-.49-.41-.9-.71-1.3,1.6-6.26-1.59-12.01-1.94-18.07,2.22,.01,4.44,.03,6.66,.04,2.01,15.64,3.98,31.28,6.06,46.9,.44,3.32-1.07,7.06,1.92,9.9-2.01,3.26-.05,6.48,.3,9.64,.53,4.86,.33,9.84,1.9,14.57,1.53,3.19,2.78,6.41,.9,9.91h-1.81Z"/><path class="ab" d="M150.13,327.41c.38-4.59,.76-9.18,1.15-13.77,.97-6.62,2.04-13.23,2.88-19.86,1.71-13.53,3.38-27.06,4.88-40.62,.61-5.56,.93-11.14,2.3-16.59,1.97,.02,3.94,.05,5.91,.07-1.05,11.17-3.67,22.07-5.56,33.1-2.56,14.92-5.05,29.85-7.57,44.78-.47,2.9,.46,5.86-.48,8.78-.51,1.58-.55,3.32-2.35,4.11h-1.14Z"/><path class="ad" d="M197.04,327.55c-.11-3.32-1.45-6.53-.9-9.91,6.29,2.26,13.27,3.35,17.07,9.91-5.39,0-10.78,0-16.17,0Z"/><path class="ah" d="M151.27,327.42c1.7-4.13,.91-8.81,2.84-12.89,2.69,4.29,5.38,8.58,8.07,12.87-3.64,0-7.27,.01-10.91,.02Z"/><path class="ah" d="M84.33,327.41c-.35-4.44,1.54-8.53,1.98-12.85,1.69-.14,2.42,.9,2.39,2.33-.09,3.5,.74,7.05-.47,10.51h-3.89Z"/><path class="at" d="M88.22,327.41c-.79-4.26,2.04-9.05-1.91-12.84,0-.67,.01-1.35,.02-2.02,1.97,.52,3.29,1.25,3.03,3.84-.37,3.64,.86,7.34-.04,11.02-.36,0-.73,0-1.09,0Z"/><path class="o" d="M93.28,83.71c-.93-5.39,2.93-7.07,6.78-8.75,.77-.34,1.55-.5,2.25,.28,.72,.8,.95,1.41,.42,2.59-1.53,3.39-3.07,6.61-7.42,6.9-1.14,.58-1.63-.13-2.03-1.02Z"/><path class="i" d="M93.28,83.71l2.03,1.02c-.28,1.09-.72,2.95-1.64,2.57-1.36-.57-3.25-2.33-3.14-3.42,.25-2.62,1.78,.09,2.76-.17Z"/><path class="b" d="M59.64,210.26l2.41-4.04c.35,.31,.96,.6,1,.95,.23,1.99-1.42,2.55-3.41,3.09Z"/><path class="ao" d="M53.64,211.45c-.66-2.43,.97-3.61,.96-5.64,1.51,2.44,.19,3.89-.96,5.64Z"/><path class="w" d="M48.71,208.6c.5,.66-.21,.96-.46,.83-.66-.35-1.38-.82-1.72-1.44-.3-.54,.01-1.31,.91-1.2,1.03,.13,.81,1.23,1.27,1.82Z"/><path class="a`" d="M257.21,120.54q8.68,.39,8.85,9.45c.02,.82,.1,1.65,.16,2.47-.71,1.04-1.78,1.51-2.94,1.55-8.2,.27-16.4,.28-24.59-.01-.99-.04-1.86-.6-2.65-1.22-.65-.03-1.3-.08-1.95-.09q-6.82-.08-7.13-7.01c0-1.08,0-2.17,0-3.25-.44-1.13-.26-1.89,1.15-1.89,9.7,0,19.41,0,29.11,0Z"/><path class="h" d="M228.1,120.53c-.81,.37-1.01,1.12-1.15,1.9-1.8,.3-3.75,.72-4.61-1.49-.55-1.41-.52-3.24,1.14-3.81,2.88-.99,4.1,.86,4.62,3.4Z"/><path class="bd" d="M218.05,115.62c-2.25,.19-3.91-.4-3.89-3.07,.01-1.48,.71-2.7,2.22-2.69,2.28,.01,3.46,1.46,3.65,3.72-.66,.68-1.32,1.36-1.98,2.05Z"/><path class="bd" d="M232.13,116.9h21.06v.5h-21.23l.17-.5Z"/><path class="ag" d="M224.33,111.89h20.53v.5h-20.59l.05-.5Z"/><path class="bd" d="M224.12,109.9h20.72l.02,.43h-20.53l-.21-.43Z"/><path class="ay" d="M285.94,135.57c.03,7.65-.09,15.3,.14,22.94,.1,3.36-1.17,4.24-4.35,4.2-13.79-.13-27.58-.13-41.37,0-3.18,.03-4.45-.85-4.35-4.2,.22-7.64,.11-15.29,.14-22.94,1.61-1.5,3.63-1.38,5.6-1.38,12.86-.01,25.72-.01,38.58,0,1.98,0,3.99-.12,5.6,1.38Z"/><path class="ab" d="M285.94,135.57c-16.6,0-33.19,0-49.79,0-.04-.93-.08-1.87-.12-2.8,10.06-.1,20.12-.21,30.18-.32,5.39,.02,10.78,.08,16.17,.03,2.2-.02,4.03,.14,3.56,3.09Z"/><path class="p" d="M238.95,295.63c-4.54,1.03-8.65,3.16-12.88,5-5.14,1.87-3.4-3.29-5.07-4.97,1.4-7.07-.68-13.48-3.76-19.68-1.86-3.75-1.91-7.82-1.41-11.75,.68-5.36,.7-10.92,3.43-15.86,7.27,13.4,14.39,26.87,21.9,40.14,2.11,3.73,1.65,5.72-2.21,7.13Z"/><path class="as" d="M219.26,248.36c.24,5.35-1.5,10.42-2.19,15.65-.87,6.6,1.53,12.36,4.25,18.05,2.21,4.63,2.49,9.13-.33,13.6-5.7-8.58-11.41-17.15-17.11-25.73,3.47-8.91,6.94-17.81,10.39-26.72,.35-.92,.6-1.87,.9-2.81,1.78,2.44,3.05,5.15,4.09,7.97Z"/><path class="aa" d="M266.88,204.64c7.2-.02,12.13,4.66,12.15,11.51,.02,6.83-5.38,12.36-12.18,12.48-6.57,.12-12.25-5.64-12.26-12.44-.01-6.48,5.37-11.53,12.3-11.55Z"/><path class="p" d="M181.24,254.65c.89,.09,1.63,.44,1.78,1.39,1.61,10.14,3.09,20.31,4.82,30.43,.87,5.08,2.17,10.1,3.28,15.14-.8,1.49-1.03,3.44-3.13,3.89-2.1-3.16-5.31-1.49-8.04-1.78-1.93-.21-3.9-.05-5.85-.06-2.45,.36-4.16,.11-2.9-3.11,5.04-12.92,6.3-26.68,8.93-40.14,.38-1.92,.73-3.84,1.1-5.76Z"/><path class="bd" d="M328.77,124.62c-3.14,0-6.28,.02-9.42,0-1.02,0-2.14-.18-2.1-1.5,.04-1.31,1.19-1.41,2.19-1.41,6.45-.01,12.89,0,19.34,0,.85,0,1.73,.22,1.83,1.24,.14,1.36-.89,1.63-1.92,1.64-3.31,.04-6.61,.01-9.92,.02Z"/><path class="av" d="M349.76,116.72c2.61-.17,4.03,.68,4.18,3.28,.16,2.81-1.6,4.12-3.84,4.25-2.47,.14-4.06-1.7-3.98-4.13,.07-2.14,1.22-3.83,3.63-3.4Z"/><path class="bd" d="M340.29,118.24h-22.71l-.05-.87h22.73l.03,.87Z"/><path class="n" d="M317.56,128.76c4.21-1.26,8.44-1.31,12.69-.15-4.18,1.47-8.43,1-12.69,.15Z"/><path class="bd" d="M343.54,128.69c4.27-1.04,8.54-1.42,12.79-.07-4.24,1.67-8.52,.93-12.79,.07Z"/><path class="bd" d="M264.66,72.22h19.75v.97h-19.76v-.97Z"/><path class="bd" d="M284.4,68.28h-19.76v-1h19.76v1Z"/><path class="bd" d="M296.93,70.42c-.52,1.95-1.31,3.39-3.64,3.29-2.23-.1-3.4-1.14-3.2-3.37,.19-2.04,1.48-3.49,3.48-3.44,1.98,.05,3.11,1.55,3.36,3.52Z"/><path class="bd" d="M298.44,77.65c-3.62,1.19-7.24,1.47-10.82,.09,3.59-1.6,7.21-.97,10.82-.09Z"/><path class="bd" d="M275.42,77.66c-3.57,1.41-7.17,1.23-10.79,.09,3.53-1.41,7.15-1.15,10.79-.09Z"/><path class="aj" d="M311.11,271.54c0-1.96,0-3.92,0-5.88,1.95,.83,5.46-2.23,5.88,2.45,.5,5.48-3.56,2.92-5.88,3.43Z"/><path class="x" d="M129.2,322.56h-4.34c1.34-2.52,2.98-.81,4.34-.97,.34,.22,.45,.43,.34,.65-.11,.22-.22,.32-.34,.32Z"/><path class="x" d="M134.21,321.58c1.7,.17,3.47-.44,5.22,.49-1.75,.94-3.52,.32-5.22,.49-.33-.22-.44-.44-.33-.66,.11-.22,.22-.33,.33-.33Z"/><path class="j" d="M134.21,321.58c-.01,.33-.01,.66,0,.98-1.67,0-3.34,0-5.01,0,.01-.33,.01-.65,0-.98,1.67,0,3.34,0,5.01,0Z"/><path class="k" d="M102.09,314.04c-.45,.4-.85,.97-1.4,1.2-.55,.23-1.02-.2-.62-.78,.35-.52,.96-.85,1.46-1.27l.56,.85Z"/><path class="ba" d="M298.88,321.85c-2.14,.96-3.41,.83-4.9,.43,1.29-1.29,2.61-.57,4.9-.43Z"/><path class="ae" d="M188,305.5c.46-1.77,2.01-2.65,3.13-3.89,.67,4.67,1.33,9.34,2,14.01-3.19-2.62-5.12-5.88-5.13-10.12Z"/><path class="bd" d="M236.04,126.97c-.15,1.99-1.38,2.79-3.3,2.65-2.09-.16-2.76-1.52-2.58-3.41,.17-1.79,1.31-2.53,3.02-2.49,2.06,.05,2.9,1.22,2.86,3.25Z"/><path class="bd" d="M239.89,123.95h21.37v.46h-21.37v-.46Z"/><path class="bd" d="M239.83,128.93h10.27v.43h-10.26v-.43Z"/><path class="bd" d="M282.03,149.61c0,9.09-2.68,11.09-11.8,9.05-2.03-.45-2.18-1.67-2.18-3.23,0-4.14,.06-8.29-.03-12.43-.05-2.24,.72-3.17,3.1-3.38,10.9-.98,10.9-1.05,10.9,9.99Z"/><path class="am" d="M241.14,152.93h21.63v.39h-21.62v-.39Z"/><path class="bd" d="M262.78,158.41h-21.7v-.5h21.72l-.03,.5Z"/><path class="bd" d="M263.01,140.42h-21.92v-.49h21.92v.49Z"/><path class="l" d="M241.13,143.91h21.71v.44h-21.71v-.44Z"/><path class="bd" d="M241.29,148.85h21.55v.5h-21.57l.02-.5Z"/><path class="o" d="M267.17,210.84c.99,3.86,1.2,7.7-.24,11.53-.85-3.86-1.34-7.71,.24-11.53Z"/><path class="ar" d="M270.79,210.63c1.29,.16,1.3,.99,1.23,1.82-.04,.49-.35,1.07-.85,.66-.59-.48-.95-1.25-1.41-1.9l1.03-.58Z"/></svg>