<svg id="Layer_2" data-name="Layer 2" xmlns="http://www.w3.org/2000/svg" xmlns:xlink="http://www.w3.org/1999/xlink" viewBox="0 0 1000 1000"><defs><style>.cls-1{fill:url(#radial-gradient);}.cls-2{fill:#00aeef;}.cls-3{font-size:75.88px;fill:#fff;font-family:Aller-BoldItalic, Aller;font-weight:700;font-style:italic;}.cls-4{letter-spacing:-0.01em;}</style><radialGradient id="radial-gradient" cx="500" cy="500" r="500" gradientUnits="userSpaceOnUse"><stop offset="0" stop-color="#fff"/><stop offset="1" stop-color="#f1f2f2"/></radialGradient></defs><rect class="cls-1" width="1000" height="1000"/><path class="cls-2" d="M140.42,661s70.84-105.65,201.7-154.87c0,0-6.76-175.72,133.27-270.14,0,0-33.62,150.08,78,222.11,0,0-67.24-12-104.46-78,41.59,132.61,144.21,97,249.53,143.57,55.83,24.69,126.26,70.14,161.08,180.59C835.52,646.69,720.31,518.09,500,546.91c0,0,66.63,2.4,103.85,44.42C603.85,591.33,340.92,506.09,140.42,661Z" transform="translate(0)"/><text class="cls-3" transform="translate(188.14 717.6) scale(1.86 1)">LAN<tspan class="cls-4" x="135.67" y="0">G</tspan><tspan x="184.92" y="0">UNA</tspan></text></svg>