<?xml version="1.0" encoding="UTF-8"?><svg id="a" xmlns="http://www.w3.org/2000/svg" viewBox="0 0 785.83 198.9"><defs><style>.b{fill:#fad063;font-family:Aller-BoldItalic, Aller;font-size:140px;}.c{fill:#745fa9;}.d{letter-spacing:0em;}</style></defs><g><path class="c" d="M158.39,46.93c7.02,21.8-16.63,41.76-16.63,41.76,5.54-10.47,1.85-29.93-18.36-25-20.19,4.92-26.36,36.71-42.13,44.83-15.76,8.13-21.92,.74-19.45-.25,11.82-6.15,17.24-43.11,11.58-42.62-25.62,.49-52.97,53.95-52.23,63.81,.74,9.85-2.22,8.62,23.89,.74,26.12-7.89,36.22,17,36.22,17-17-6.9-27.35,5.66-29.31,8.87-6.9,15.52,15.29,35.3,15.29,35.3-33.02,10.19-61.23-24.83-63.08-34.33C-17.03,68.37,49.37,40.28,51.96,38.8,57.87,29.93,46.42,0,46.42,0c31.41,.37,40.28,29.19,40.28,29.19,11.45-2.22,64.67-4.06,71.69,17.74Zm-65.17,11.1c3.16,13.16,41.94-5.19,36.33-11.77,0,0-39.49-1.38-36.33,11.77Z"/><path class="c" d="M109.86,85.13c10.04,10.66,1.42,44.04,0,49.58-1.42,5.55-10.23,8.68-9.3,1.29,.92-7.39-5.99-27.72-5.99-27.72,8.38-5.91,15.28-23.15,15.28-23.15Z"/></g><text class="b" transform="translate(169.27 164.04)"><tspan x="0" y="0">LAN</tspan><tspan class="d" x="250.32" y="0">G</tspan><tspan x="341.18" y="0">UNA</tspan></text></svg>