<?xml version="1.0" encoding="UTF-8"?><svg id="a" xmlns="http://www.w3.org/2000/svg" viewBox="0 0 945.39 239.28"><defs><style>.b{fill:#745fa9;}.c{letter-spacing:0em;}.d{fill:#fad063;font-family:Aller-BoldItalic, Aller;font-size:168.43px;}</style></defs><g><path class="b" d="M190.55,56.46c8.44,26.23-20.01,50.24-20.01,50.24,6.67-12.59,2.22-36.01-22.09-30.07-24.29,5.92-31.71,44.16-50.68,53.94-18.96,9.78-26.37,.89-23.4-.3,14.23-7.4,20.74-51.86,13.93-51.27-30.82,.59-63.72,64.91-62.83,76.77,.89,11.84-2.67,10.37,28.74,.89,31.42-9.5,43.57,20.45,43.57,20.45-20.45-8.31-32.9,6.81-35.26,10.67-8.31,18.67,18.39,42.47,18.39,42.47-39.73,12.25-73.66-29.88-75.88-41.3C-20.49,82.25,59.4,48.46,62.51,46.68,69.62,36.01,55.84,0,55.84,0c37.79,.44,48.46,35.12,48.46,35.12,13.78-2.67,77.8-4.89,86.25,21.34Zm-78.4,13.36c3.8,15.83,50.46-6.24,43.7-14.17,0,0-47.51-1.66-43.7,14.17Z"/><path class="b" d="M132.16,102.42c12.08,12.82,1.71,52.98,0,59.65-1.71,6.67-12.3,10.44-11.18,1.55,1.1-8.89-7.2-33.34-7.2-33.34,10.08-7.11,18.39-27.85,18.39-27.85Z"/></g><text class="d" transform="translate(203.64 197.35)"><tspan x="0" y="0">LAN</tspan><tspan class="c" x="301.14" y="0">G</tspan><tspan x="410.45" y="0">UNA</tspan></text></svg>